<svg width="21" height="21" viewBox="0 0 21 21" fill="none" xmlns="http://www.w3.org/2000/svg">
<g clip-path="url(#clip0_52_348)">
<path d="M10.5 13.1666C11.8807 13.1666 13 12.0473 13 10.6666C13 9.28591 11.8807 8.16663 10.5 8.16663C9.11929 8.16663 8 9.28591 8 10.6666C8 12.0473 9.11929 13.1666 10.5 13.1666Z" stroke="#286EF1" stroke-width="1.5" stroke-linecap="round" stroke-linejoin="round"/>
<path d="M16.6666 13.1666C16.5557 13.418 16.5226 13.6968 16.5716 13.9671C16.6206 14.2375 16.7495 14.4869 16.9416 14.6833L16.9916 14.7333C17.1465 14.8881 17.2695 15.0719 17.3534 15.2742C17.4372 15.4766 17.4804 15.6934 17.4804 15.9125C17.4804 16.1315 17.4372 16.3484 17.3534 16.5507C17.2695 16.753 17.1465 16.9368 16.9916 17.0916C16.8368 17.2466 16.653 17.3695 16.4507 17.4534C16.2483 17.5373 16.0314 17.5804 15.8124 17.5804C15.5934 17.5804 15.3765 17.5373 15.1742 17.4534C14.9719 17.3695 14.788 17.2466 14.6333 17.0916L14.5833 17.0416C14.3869 16.8495 14.1374 16.7206 13.8671 16.6716C13.5967 16.6226 13.3179 16.6557 13.0666 16.7666C12.8201 16.8723 12.6099 17.0477 12.4618 17.2712C12.3138 17.4948 12.2343 17.7568 12.2333 18.025V18.1666C12.2333 18.6087 12.0577 19.0326 11.7451 19.3451C11.4325 19.6577 11.0086 19.8333 10.5666 19.8333C10.1246 19.8333 9.70064 19.6577 9.38807 19.3451C9.07551 19.0326 8.89992 18.6087 8.89992 18.1666V18.0916C8.89347 17.8158 8.80418 17.5483 8.64368 17.3239C8.48317 17.0995 8.25886 16.9285 7.99992 16.8333C7.74857 16.7224 7.46976 16.6893 7.19943 16.7383C6.9291 16.7873 6.67965 16.9162 6.48325 17.1083L6.43325 17.1583C6.27846 17.3133 6.09465 17.4362 5.89232 17.5201C5.68999 17.6039 5.47311 17.6471 5.25409 17.6471C5.03506 17.6471 4.81818 17.6039 4.61585 17.5201C4.41352 17.4362 4.22971 17.3133 4.07492 17.1583C3.91996 17.0035 3.79703 16.8197 3.71315 16.6174C3.62928 16.415 3.58611 16.1982 3.58611 15.9791C3.58611 15.7601 3.62928 15.5432 3.71315 15.3409C3.79703 15.1386 3.91996 14.9548 4.07492 14.8L4.12492 14.75C4.31703 14.5536 4.44591 14.3041 4.49492 14.0338C4.54394 13.7635 4.51085 13.4847 4.39992 13.2333C4.29428 12.9868 4.11888 12.7766 3.89531 12.6286C3.67173 12.4805 3.40974 12.401 3.14159 12.4H2.99992C2.55789 12.4 2.13397 12.2244 1.82141 11.9118C1.50885 11.5993 1.33325 11.1753 1.33325 10.7333C1.33325 10.2913 1.50885 9.86735 1.82141 9.55479C2.13397 9.24223 2.55789 9.06664 2.99992 9.06664H3.07492C3.35075 9.06018 3.61826 8.9709 3.84267 8.8104C4.06708 8.64989 4.23802 8.42558 4.33325 8.16664C4.44418 7.91529 4.47727 7.63648 4.42826 7.36615C4.37924 7.09582 4.25037 6.84637 4.05825 6.64997L4.00825 6.59997C3.85329 6.44518 3.73036 6.26137 3.64649 6.05904C3.56261 5.85671 3.51944 5.63983 3.51944 5.4208C3.51944 5.20178 3.56261 4.9849 3.64649 4.78257C3.73036 4.58024 3.85329 4.39642 4.00825 4.24164C4.16304 4.08668 4.34685 3.96374 4.54918 3.87987C4.75152 3.796 4.96839 3.75283 5.18742 3.75283C5.40644 3.75283 5.62332 3.796 5.82565 3.87987C6.02798 3.96374 6.2118 4.08668 6.36659 4.24164L6.41659 4.29164C6.61298 4.48375 6.86243 4.61262 7.13276 4.66164C7.40309 4.71066 7.68191 4.67757 7.93325 4.56664H7.99992C8.24639 4.461 8.4566 4.2856 8.60466 4.06202C8.75273 3.83845 8.83218 3.57646 8.83325 3.3083V3.16664C8.83325 2.72461 9.00885 2.30069 9.32141 1.98812C9.63397 1.67556 10.0579 1.49997 10.4999 1.49997C10.9419 1.49997 11.3659 1.67556 11.6784 1.98812C11.991 2.30069 12.1666 2.72461 12.1666 3.16664V3.24164C12.1677 3.50979 12.2471 3.77178 12.3952 3.99536C12.5432 4.21893 12.7534 4.39433 12.9999 4.49997C13.2513 4.6109 13.5301 4.64399 13.8004 4.59497C14.0707 4.54596 14.3202 4.41708 14.5166 4.22497L14.5666 4.17497C14.7214 4.02001 14.9052 3.89708 15.1075 3.8132C15.3098 3.72933 15.5267 3.68616 15.7458 3.68616C15.9648 3.68616 16.1817 3.72933 16.384 3.8132C16.5863 3.89708 16.7701 4.02001 16.9249 4.17497C17.0799 4.32976 17.2028 4.51357 17.2867 4.7159C17.3706 4.91823 17.4137 5.13511 17.4137 5.35414C17.4137 5.57316 17.3706 5.79004 17.2867 5.99237C17.2028 6.1947 17.0799 6.37851 16.9249 6.5333L16.8749 6.5833C16.6828 6.7797 16.5539 7.02915 16.5049 7.29948C16.4559 7.56981 16.489 7.84862 16.5999 8.09997V8.16664C16.7056 8.41311 16.881 8.62332 17.1045 8.77138C17.3281 8.91944 17.5901 8.9989 17.8583 8.99997H17.9999C18.4419 8.99997 18.8659 9.17556 19.1784 9.48813C19.491 9.80069 19.6666 10.2246 19.6666 10.6666C19.6666 11.1087 19.491 11.5326 19.1784 11.8451C18.8659 12.1577 18.4419 12.3333 17.9999 12.3333H17.9249C17.6568 12.3344 17.3948 12.4138 17.1712 12.5619C16.9476 12.71 16.7722 12.9202 16.6666 13.1666V13.1666Z" stroke="#286EF1" stroke-width="1.5" stroke-linecap="round" stroke-linejoin="round"/>
</g>
<defs>
<clipPath id="clip0_52_348">
<rect width="20" height="20" fill="white" transform="translate(0.5 0.666626)"/>
</clipPath>
</defs>
</svg>
