<svg width="20" height="21" viewBox="0 0 20 21" fill="none" xmlns="http://www.w3.org/2000/svg">
<path d="M14.1666 18.2949V16.6283C14.1666 15.7442 13.8154 14.8964 13.1903 14.2712C12.5652 13.6461 11.7173 13.2949 10.8333 13.2949H4.16659C3.28253 13.2949 2.43468 13.6461 1.80956 14.2712C1.18444 14.8964 0.833252 15.7442 0.833252 16.6283V18.2949" stroke="" stroke-width="1.5" stroke-linecap="round" stroke-linejoin="round"/>
<path d="M7.50008 9.96159C9.34103 9.96159 10.8334 8.4692 10.8334 6.62826C10.8334 4.78731 9.34103 3.29492 7.50008 3.29492C5.65913 3.29492 4.16675 4.78731 4.16675 6.62826C4.16675 8.4692 5.65913 9.96159 7.50008 9.96159Z" stroke="" stroke-width="1.5" stroke-linecap="round" stroke-linejoin="round"/>
<path d="M19.1667 18.2949V16.6283C19.1662 15.8897 18.9204 15.1722 18.4679 14.5885C18.0154 14.0048 17.3819 13.5879 16.6667 13.4033" stroke="" stroke-width="1.5" stroke-linecap="round" stroke-linejoin="round"/>
<path d="M13.3333 3.40326C14.0503 3.58684 14.6858 4.00384 15.1396 4.58851C15.5935 5.17319 15.8398 5.89228 15.8398 6.63242C15.8398 7.37256 15.5935 8.09166 15.1396 8.67633C14.6858 9.261 14.0503 9.678 13.3333 9.86159" stroke="" stroke-width="1.5" stroke-linecap="round" stroke-linejoin="round"/>
</svg>
