<svg width="422" height="309" viewBox="0 0 422 309" fill="none" xmlns="http://www.w3.org/2000/svg">
<path d="M83.8936 196.691C72.3477 207.993 70.3896 225.48 72.8372 240.799C72.9047 241.145 73.4449 241.052 73.4449 240.723C73.4449 237.237 73.3352 233.785 73.3436 230.342C73.4111 230.181 73.4618 230.029 73.5293 229.878C76.5424 227.683 79.336 225.219 81.024 221.843C82.9568 218.045 83.7164 213.774 85.1849 209.807C85.3284 209.427 84.9233 209.537 84.6532 209.74C77.6311 214.913 75.3692 220.492 73.3774 227.936C73.4171 224.041 73.8269 220.158 74.6012 216.34C76.1204 209.276 79.1166 202.262 84.1974 197.021C84.2411 196.98 84.2669 196.924 84.2693 196.865C84.2717 196.806 84.2504 196.748 84.2101 196.704C84.1698 196.66 84.1138 196.635 84.0545 196.632C83.9951 196.63 83.9373 196.651 83.8936 196.691Z" fill="#A6A6A6"/>
<path d="M86.0881 198.008C88.0715 198.076 89.3207 201.249 90.8652 202.178C91.0278 202.31 91.2164 202.406 91.4187 202.46C91.621 202.515 91.8325 202.526 92.0395 202.493C92.2464 202.461 92.4442 202.385 92.6199 202.271C92.7957 202.157 92.9455 202.007 93.0596 201.831C94.5957 199.688 92.4857 197.046 90.5276 195.569C91.9455 196.151 93.1186 197.173 94.6463 197.468C94.8415 197.53 95.0477 197.55 95.2511 197.526C95.4545 197.502 95.6506 197.436 95.8262 197.33C96.0019 197.225 96.1531 197.083 96.2698 196.915C96.3865 196.747 96.466 196.555 96.5031 196.354C97.1698 193.434 93.5153 192.134 91.0002 192.075C92.2156 191.231 95.7097 188.927 93.8529 187.796C91.9961 186.665 87.8774 189.948 86.5439 191.028C84.5774 192.623 82.2395 195.004 82.1467 197.493C81.9947 200.405 84.5352 198.616 86.0881 198.008Z" fill="#DBDBDB"/>
<path d="M85.489 198.498C88.021 197.341 92.9078 199.004 93.3214 198.042C94.1654 196.084 90.2661 194.742 88.1561 194.48C90.0973 193.957 93.8109 193.121 93.7012 191.256C93.5577 188.969 88.0042 190.935 85.1852 193.088C81.6488 195.805 81.6657 198.43 82.2565 198.953C83.0583 199.671 85.067 198.683 85.489 198.498Z" fill="#EBEBEB"/>
<path d="M57.5945 195.569C69.5624 206.423 72.1704 223.826 70.3136 239.229C70.3136 239.575 69.7228 239.508 69.7144 239.178C69.5793 235.693 69.554 232.232 69.4105 228.797L69.2164 228.333C66.1274 226.265 63.2578 223.894 61.4178 220.568C59.3416 216.855 58.4216 212.609 56.8012 208.702C56.6492 208.33 57.0544 208.423 57.3244 208.609C64.5406 213.521 66.9967 219.007 69.2924 226.375C69.0931 222.482 68.528 218.616 67.6044 214.829C65.8151 207.824 62.5404 200.937 57.2738 195.89C57.105 195.679 57.392 195.375 57.5945 195.569Z" fill="#A6A6A6"/>
<path d="M55.4761 196.97C53.4927 197.113 52.3701 200.346 50.8594 201.317C50.7025 201.456 50.5181 201.56 50.3182 201.622C50.1182 201.685 49.9073 201.704 49.6993 201.68C49.4913 201.655 49.2908 201.587 49.1111 201.479C48.9314 201.371 48.7765 201.227 48.6565 201.055C47.0445 198.97 49.0448 196.253 50.9691 194.7C49.5765 195.341 48.4371 196.388 46.9263 196.751C46.7316 196.821 46.5239 196.849 46.3174 196.832C46.1108 196.815 45.9105 196.754 45.73 196.652C45.5496 196.55 45.3933 196.41 45.272 196.242C45.1507 196.074 45.0672 195.882 45.0273 195.679C44.2424 192.784 47.8547 191.349 50.3614 191.189C49.1123 190.395 45.5337 188.226 47.3483 187.028C49.1629 185.829 53.3998 188.952 54.7755 189.982C56.8011 191.501 59.2319 193.788 59.4091 196.278C59.637 199.215 57.029 197.519 55.4761 196.97Z" fill="#DBDBDB"/>
<path d="M56.0672 197.434C53.493 196.379 48.6737 198.228 48.2264 197.282C47.3149 195.358 51.1551 193.906 53.2904 193.526C51.3323 193.079 47.5934 192.379 47.6356 190.513C47.6862 188.226 53.3157 189.973 56.2106 192.024C59.8483 194.607 59.9243 197.223 59.3588 197.772C58.5485 198.523 56.4976 197.611 56.0672 197.434Z" fill="#EBEBEB"/>
<path d="M69.8329 224.24C70.6446 230.047 71.8888 235.785 73.5549 241.407C73.5792 241.517 73.6456 241.613 73.74 241.674C73.8344 241.736 73.9492 241.758 74.0597 241.736C74.1702 241.714 74.2676 241.649 74.331 241.556C74.3945 241.463 74.4188 241.349 74.3989 241.238C73.614 235.954 72.1792 230.755 71.3943 225.472C70.5317 220.119 70.2234 214.692 70.4743 209.276C70.9723 200.363 73.3945 190.876 79.2097 183.905C79.3447 183.736 79.0662 183.508 78.9396 183.66C67.2924 197.24 69.1492 213.884 69.1577 215.378C67.4697 209.757 65.7817 203.309 59.5698 197.586C59.2997 197.341 59.0887 197.46 59.1394 197.882C60.245 208.339 63.1399 213.749 69.2083 219.311C69.3602 220.999 69.5712 222.619 69.8329 224.24Z" fill="#A6A6A6"/>
<path d="M79.3362 185.466C81.4293 184.538 84.3242 187.205 86.392 187.382C86.6273 187.443 86.8728 187.452 87.112 187.41C87.3511 187.367 87.5782 187.273 87.7778 187.134C87.9773 186.996 88.1445 186.816 88.2681 186.606C88.3916 186.397 88.4685 186.164 88.4936 185.922C89.0084 182.926 85.4974 181.246 82.6953 180.715C84.4593 180.605 86.1895 181.069 87.9197 180.605C88.1522 180.568 88.3744 180.482 88.572 180.354C88.7695 180.226 88.9381 180.058 89.0669 179.861C89.1956 179.664 89.2817 179.442 89.3196 179.21C89.3576 178.977 89.3464 178.74 89.287 178.512C88.5189 175.136 84.0626 175.642 81.4293 176.824C82.2733 175.33 84.7294 171.186 82.2733 170.916C79.8173 170.646 77.1587 176.157 76.3231 177.955C75.0824 180.596 73.8502 184.251 75.0149 186.876C76.2978 190.007 78.028 186.867 79.3362 185.466Z" fill="#DBDBDB"/>
<path d="M78.9562 186.26C81.0155 183.787 86.9151 183.052 86.856 181.846C86.7463 179.398 82.0283 179.963 79.7158 180.757C81.4544 179.238 84.8895 176.495 83.8345 174.612C82.5347 172.317 77.7577 177.144 75.9262 180.807C73.6221 185.407 74.964 188.116 75.8334 188.361C77.0318 188.707 78.6186 186.673 78.9562 186.26Z" fill="#EBEBEB"/>
<path d="M62.1691 227.379L57.0376 266.625H88.2656C87.6242 263.148 81.809 227.337 81.809 227.337L62.1691 227.379Z" fill="#DBDBDB"/>
<path d="M366.971 112.654H389.32V103.21H366.971V112.654Z" fill="#EBEBEB"/>
<path d="M379.437 100.746H401.786V91.3012H379.437V100.746Z" fill="#EBEBEB"/>
<path d="M354.497 100.746H376.846V91.3012H354.497V100.746Z" fill="#EBEBEB"/>
<path d="M32.6797 234.461H55.0288V225.016H32.6797V234.461Z" fill="#EBEBEB"/>
<path d="M20.2139 222.552H42.563V213.107H20.2139V222.552Z" fill="#EBEBEB"/>
<path d="M379.437 234.452H401.786V225.008H379.437V234.452Z" fill="#EBEBEB"/>
<path d="M117.24 24.5662H94.8911V34.0105H117.24V24.5662Z" fill="#EBEBEB"/>
<path d="M104.766 36.475H82.4165V45.9193H104.766V36.475Z" fill="#EBEBEB"/>
<path d="M48.9097 266.592L89.4301 266.389L129.951 266.313L211 266.17L292.041 266.313L332.57 266.389L373.09 266.592L332.57 266.803L292.041 266.87L211 267.014L129.951 266.87L89.4301 266.794L48.9097 266.592Z" fill="#263238"/>
<path d="M146.35 146.625C146.134 146.377 145.903 146.144 145.657 145.925C145.437 145.682 145.203 145.451 144.957 145.233C144.739 144.987 144.508 144.753 144.265 144.532C144.046 144.287 143.812 144.056 143.564 143.84C143.345 143.595 143.109 143.359 142.872 143.14C142.659 142.892 142.427 142.661 142.18 142.448C141.959 142.202 141.726 141.968 141.48 141.747C141.266 141.5 141.035 141.269 140.788 141.055C140.567 140.812 140.333 140.581 140.087 140.363C139.373 139.575 138.538 138.906 137.614 138.38V68.6314C137.614 68.26 137.437 68.0744 137.437 67.703C137.483 67.3243 137.418 66.9404 137.251 66.5974C137.251 66.4117 137.074 66.0403 137.074 65.8546C136.972 65.4752 136.846 65.103 136.694 64.7406C136.499 64.5367 136.372 64.2771 136.331 63.9978C136.119 63.6644 135.87 63.3559 135.589 63.0779C135.394 62.8922 135.217 62.5293 135.031 62.3352L134.289 61.5924C134.289 61.4827 134.145 61.3646 133.985 61.297L133.622 60.9257H133.58C133.58 60.8075 133.445 60.6978 133.284 60.6218L132.913 60.2589C132.913 60.1492 132.77 60.031 132.609 59.9551L132.246 59.5922C132.246 59.474 132.103 59.3643 131.942 59.2883L131.579 58.917C131.579 58.8072 131.436 58.6891 131.276 58.6131L130.904 58.2502V58.208C130.904 58.0983 130.761 57.9886 130.6 57.9126L130.238 57.5412H130.195C130.195 57.4315 130.06 57.3134 129.9 57.2374L129.529 56.8745V56.8323C129.529 56.7226 129.385 56.6128 129.225 56.5369L128.862 56.1655H128.82C128.82 56.0474 128.685 55.9376 128.524 55.8617L128.153 55.4988C128.153 55.389 128.009 55.2709 127.849 55.2034L127.444 54.7982C127.444 54.6126 127.081 54.4269 126.887 54.4269C126.888 54.4029 126.884 54.3789 126.876 54.3565C126.867 54.334 126.855 54.3134 126.838 54.2961C126.821 54.2787 126.802 54.2649 126.779 54.2555C126.757 54.246 126.734 54.2412 126.71 54.2412C126.338 54.064 126.144 53.8698 125.781 53.6842C125.462 53.4526 125.155 53.2047 124.861 52.9414C124.676 52.9414 124.304 52.7642 124.119 52.7642C123.747 52.5785 123.19 52.5785 123.004 52.3844C122.685 52.4104 122.364 52.3492 122.076 52.2072H118.936C118.716 52.3486 118.454 52.4111 118.194 52.3844C117.637 52.5785 117.274 52.5785 117.08 52.7642C116.717 52.7642 116.531 52.9414 116.337 53.3212C115.941 53.3305 115.556 53.4567 115.231 53.6842C115.054 53.8698 114.674 54.064 114.488 54.2412C114.242 54.5116 113.922 54.7051 113.569 54.7982C113.43 55.078 113.241 55.3298 113.011 55.541C112.826 55.7266 112.826 55.9039 112.649 55.9039L43.8879 140.819C42.2619 142.771 41.4503 145.275 41.6216 147.81C41.7929 150.345 42.934 152.717 44.8079 154.432C45.0248 154.687 45.2619 154.924 45.5168 155.141C45.7288 155.396 45.9632 155.63 46.2173 155.842C46.4343 156.097 46.6714 156.334 46.9263 156.551C47.1403 156.806 47.3746 157.043 47.6268 157.26C47.8439 157.512 48.081 157.746 48.3358 157.96C48.5498 158.215 48.7841 158.452 49.0363 158.669C49.2533 158.922 49.4904 159.156 49.7453 159.37C49.9593 159.625 50.1935 159.862 50.4458 160.079C50.6628 160.331 50.8999 160.565 51.1547 160.779C51.5912 161.275 52.0777 161.725 52.6064 162.121C54.3446 163.632 56.5925 164.426 58.8942 164.341H110.142V171.355C110.127 172.782 110.414 174.197 110.984 175.506C111.554 176.816 112.395 177.989 113.45 178.951C113.67 179.187 113.898 179.415 114.126 179.626C114.341 179.866 114.569 180.094 114.809 180.309C115.029 180.546 115.257 180.774 115.493 180.985C115.708 181.225 115.936 181.453 116.176 181.668C116.396 181.905 116.624 182.133 116.86 182.352C117.073 182.594 117.301 182.823 117.544 183.036C117.755 183.272 117.983 183.5 118.219 183.719C118.434 183.96 118.662 184.188 118.903 184.403C119.114 184.631 119.341 184.859 119.578 185.078C120.972 186.585 122.788 187.638 124.788 188.098C126.789 188.559 128.882 188.406 130.795 187.66C132.707 186.914 134.351 185.609 135.512 183.916C136.672 182.222 137.296 180.219 137.302 178.166V164.307H139.159C140.51 164.33 141.852 164.083 143.107 163.582C144.362 163.08 145.505 162.334 146.468 161.387C147.432 160.44 148.198 159.31 148.721 158.064C149.244 156.818 149.514 155.48 149.514 154.129C149.535 152.727 149.264 151.336 148.719 150.045C148.175 148.753 147.368 147.589 146.35 146.625ZM110.125 106.957V136.869H86.0204L110.125 106.957Z" fill="#286EF1"/>
<path opacity="0.1" d="M146.35 146.625C146.134 146.377 145.903 146.144 145.657 145.925C145.437 145.682 145.203 145.451 144.957 145.233C144.739 144.987 144.508 144.753 144.265 144.532C144.046 144.287 143.812 144.056 143.564 143.84C143.345 143.595 143.109 143.359 142.872 143.14C142.659 142.892 142.427 142.661 142.18 142.448C141.959 142.202 141.726 141.968 141.48 141.747C141.266 141.5 141.035 141.269 140.788 141.055C140.567 140.812 140.333 140.581 140.087 140.363C139.373 139.575 138.538 138.906 137.614 138.38V68.6314C137.614 68.26 137.437 68.0744 137.437 67.703C137.483 67.3243 137.418 66.9404 137.251 66.5974C137.251 66.4117 137.074 66.0403 137.074 65.8546C136.972 65.4752 136.846 65.103 136.694 64.7406C136.499 64.5367 136.372 64.2771 136.331 63.9978C136.119 63.6644 135.87 63.3559 135.589 63.0779C135.394 62.8922 135.217 62.5293 135.031 62.3352L134.289 61.5924C134.289 61.4827 134.145 61.3646 133.985 61.297L133.622 60.9257H133.58C133.58 60.8075 133.445 60.6978 133.284 60.6218L132.913 60.2589C132.913 60.1492 132.77 60.031 132.609 59.9551L132.246 59.5922C132.246 59.474 132.103 59.3643 131.942 59.2883L131.579 58.917C131.579 58.8072 131.436 58.6891 131.276 58.6131L130.904 58.2502V58.208C130.904 58.0983 130.761 57.9886 130.6 57.9126L130.238 57.5412H130.195C130.195 57.4315 130.06 57.3134 129.9 57.2374L129.529 56.8745V56.8323C129.529 56.7226 129.385 56.6128 129.225 56.5369L128.862 56.1655H128.82C128.82 56.0474 128.685 55.9376 128.524 55.8617L128.153 55.4988C128.153 55.389 128.009 55.2709 127.849 55.2034L127.444 54.7982C127.444 54.6126 127.081 54.4269 126.887 54.4269C126.888 54.4029 126.884 54.3789 126.876 54.3565C126.867 54.334 126.855 54.3134 126.838 54.2961C126.821 54.2787 126.802 54.2649 126.779 54.2555C126.757 54.246 126.734 54.2412 126.71 54.2412C126.338 54.064 126.144 53.8698 125.781 53.6842C125.462 53.4526 125.155 53.2047 124.861 52.9414C124.676 52.9414 124.304 52.7642 124.119 52.7642C123.747 52.5785 123.19 52.5785 123.004 52.3844C122.685 52.4104 122.364 52.3492 122.076 52.2072H118.936C118.716 52.3486 118.454 52.4111 118.194 52.3844C117.637 52.5785 117.274 52.5785 117.08 52.7642C116.717 52.7642 116.531 52.9414 116.337 53.3212C115.941 53.3305 115.556 53.4567 115.231 53.6842C115.054 53.8698 114.674 54.064 114.488 54.2412C114.242 54.5116 113.922 54.7051 113.569 54.7982C113.43 55.078 113.241 55.3298 113.011 55.541C112.826 55.7266 112.826 55.9039 112.649 55.9039L43.8879 140.819C42.2619 142.771 41.4503 145.275 41.6216 147.81C41.7929 150.345 42.934 152.717 44.8079 154.432C45.0248 154.687 45.2619 154.924 45.5168 155.141C45.7288 155.396 45.9632 155.63 46.2173 155.842C46.4343 156.097 46.6714 156.334 46.9263 156.551C47.1403 156.806 47.3746 157.043 47.6268 157.26C47.8439 157.512 48.081 157.746 48.3358 157.96C48.5498 158.215 48.7841 158.452 49.0363 158.669C49.2533 158.922 49.4904 159.156 49.7453 159.37C49.9593 159.625 50.1935 159.862 50.4458 160.079C50.6628 160.331 50.8999 160.565 51.1547 160.779C51.5912 161.275 52.0777 161.725 52.6064 162.121C54.3446 163.632 56.5925 164.426 58.8942 164.341H110.142V171.355C110.127 172.782 110.414 174.197 110.984 175.506C111.554 176.816 112.395 177.989 113.45 178.951C113.67 179.187 113.898 179.415 114.126 179.626C114.341 179.866 114.569 180.094 114.809 180.309C115.029 180.546 115.257 180.774 115.493 180.985C115.708 181.225 115.936 181.453 116.176 181.668C116.396 181.905 116.624 182.133 116.86 182.352C117.073 182.594 117.301 182.823 117.544 183.036C117.755 183.272 117.983 183.5 118.219 183.719C118.434 183.96 118.662 184.188 118.903 184.403C119.114 184.631 119.341 184.859 119.578 185.078C120.972 186.585 122.788 187.638 124.788 188.098C126.789 188.559 128.882 188.406 130.795 187.66C132.707 186.914 134.351 185.609 135.512 183.916C136.672 182.222 137.296 180.219 137.302 178.166V164.307H139.159C140.51 164.33 141.852 164.083 143.107 163.582C144.362 163.08 145.505 162.334 146.468 161.387C147.432 160.44 148.198 159.31 148.721 158.064C149.244 156.818 149.514 155.48 149.514 154.129C149.535 152.727 149.264 151.336 148.719 150.045C148.175 148.753 147.368 147.589 146.35 146.625ZM110.125 106.957V136.869H86.0204L110.125 106.957Z" fill="black"/>
<path d="M142.687 147.073C142.686 148.425 142.416 149.763 141.892 151.01C141.369 152.257 140.602 153.387 139.637 154.334C138.673 155.281 137.529 156.027 136.273 156.528C135.017 157.029 133.674 157.275 132.322 157.251H130.474V171.321C130.474 174.02 129.402 176.609 127.493 178.518C125.584 180.427 122.995 181.5 120.295 181.5C117.596 181.5 115.007 180.427 113.098 178.518C111.189 176.609 110.117 174.02 110.117 171.321V157.251H51.8216C49.5337 157.329 47.3017 156.536 45.576 155.032C44.5067 154.228 43.6115 153.216 42.9443 152.056C42.2772 150.897 41.8518 149.614 41.6941 148.286C41.5363 146.958 41.6494 145.611 42.0265 144.328C42.4035 143.044 43.0368 141.851 43.888 140.819L112.336 55.6507C112.522 55.6507 112.522 55.4735 112.708 55.2878C112.938 55.0767 113.126 54.8248 113.265 54.5451C113.62 54.4491 113.941 54.2562 114.193 53.988C114.37 53.8023 114.742 53.6167 114.927 53.431C115.253 53.1981 115.641 53.0686 116.042 53.0596C116.227 52.6967 116.413 52.511 116.784 52.511C116.961 52.3253 117.333 52.3253 117.89 52.1397C118.152 52.1674 118.415 52.1017 118.633 51.954H121.781C122.063 52.1048 122.382 52.1694 122.701 52.1397C122.886 52.3253 123.443 52.3253 123.815 52.511C124 52.511 124.372 52.6967 124.557 52.6967C124.92 53.0596 125.292 53.2453 125.477 53.431C125.849 53.6167 126.034 53.8023 126.406 53.988C126.455 53.988 126.502 54.0076 126.537 54.0424C126.572 54.0772 126.592 54.1245 126.592 54.1737C126.777 54.1737 127.149 54.3594 127.149 54.5451L127.883 55.2878C128.069 55.4735 128.254 55.8364 128.44 56.0221C128.723 56.3013 128.972 56.6129 129.183 56.9505C129.229 57.2297 129.358 57.4885 129.554 57.6932C129.707 58.0506 129.828 58.4205 129.917 58.7988C129.917 58.9845 130.103 59.3559 130.103 59.5415C130.27 59.8875 130.334 60.2741 130.288 60.6556C130.288 61.0185 130.474 61.2042 130.474 61.5756V136.894H132.322C135.043 136.881 137.659 137.943 139.6 139.849C141.542 141.756 142.651 144.352 142.687 147.073ZM110.117 91.1831L73.2929 136.894H110.117V91.1831Z" fill="#286EF1"/>
<path d="M250.947 79.5443C248.857 76.365 246.429 73.4219 243.705 70.7667C243.605 70.6563 243.497 70.552 243.384 70.4545L243.292 70.3616C243.207 70.2688 243.123 70.1759 243.03 70.0915C242.794 69.8383 242.54 69.602 242.296 69.3573L242.228 69.2982L241.975 69.045C241.946 69.012 241.915 68.9809 241.882 68.9521C241.798 68.8593 241.713 68.7665 241.62 68.6821C241.384 68.4289 241.131 68.1925 240.886 67.9478L240.819 67.8887L240.565 67.6355L240.473 67.5426C240.388 67.4498 240.304 67.357 240.211 67.2726C239.975 67.0194 239.721 66.7831 239.477 66.5383L239.409 66.4792L239.156 66.226C239.156 66.226 239.097 66.1585 239.063 66.1332C238.979 66.0369 238.889 65.9467 238.793 65.8631C238.565 65.6015 238.312 65.3736 238.067 65.1288L238 65.0697C237.922 64.9791 237.837 64.8945 237.746 64.8165C237.746 64.8165 237.687 64.749 237.654 64.7237C230.218 57.0602 220.529 51.9877 209.658 51.9877C195.032 51.9877 183.013 60.6894 175.231 72.5223C167.087 84.3383 162.841 99.7413 162.656 116.756C162.841 133.636 167.087 149.141 175.231 160.99C177.317 164.122 179.718 167.033 182.397 169.675L182.768 170.038V170.08L183.427 170.739C183.536 170.865 183.654 170.975 183.764 171.085L184.136 171.448L184.178 171.49L184.836 172.148L185.174 172.503L185.545 172.857C185.563 172.866 185.578 172.881 185.587 172.899L186.246 173.558L186.583 173.912L186.955 174.266C186.965 174.272 186.974 174.279 186.981 174.287C186.988 174.296 186.993 174.306 186.997 174.317L187.655 174.975L188.001 175.321L188.364 175.676L188.415 175.727L189.073 176.385C196.382 183.686 205.818 188.589 216.663 188.589C230.91 188.589 243.123 179.702 250.904 168.038C258.855 156.222 263.303 140.65 263.303 123.812C263.328 106.755 258.897 91.3941 250.947 79.5443ZM226.867 149.487C221.499 157.437 215.389 160.957 209.658 160.957C206.132 160.871 202.719 159.691 199.893 157.581C199.631 157.243 199.378 156.889 199.125 156.517C193.943 148.744 190.238 136.903 190.238 123.761C190.238 110.435 193.943 98.7791 199.125 90.8455C204.687 83.0722 210.941 79.3755 216.706 79.5528C220.047 79.5375 223.304 80.6034 225.99 82.5912C226.285 82.9878 226.572 83.3761 226.834 83.7896C232.016 91.7486 235.712 103.404 235.712 116.706C235.746 129.847 232.049 141.705 226.867 149.487Z" fill="#286EF1"/>
<path opacity="0.1" d="M250.947 79.5443C248.857 76.365 246.429 73.4219 243.705 70.7667C243.605 70.6563 243.497 70.552 243.384 70.4545L243.292 70.3616C243.207 70.2688 243.123 70.1759 243.03 70.0915C242.794 69.8383 242.54 69.602 242.296 69.3573L242.228 69.2982L241.975 69.045C241.946 69.012 241.915 68.9809 241.882 68.9521C241.798 68.8593 241.713 68.7665 241.62 68.6821C241.384 68.4289 241.131 68.1925 240.886 67.9478L240.819 67.8887L240.565 67.6355L240.473 67.5426C240.388 67.4498 240.304 67.357 240.211 67.2726C239.975 67.0194 239.721 66.7831 239.477 66.5383L239.409 66.4792L239.156 66.226C239.156 66.226 239.097 66.1585 239.063 66.1332C238.979 66.0369 238.889 65.9467 238.793 65.8631C238.565 65.6015 238.312 65.3736 238.067 65.1288L238 65.0697C237.922 64.9791 237.837 64.8945 237.746 64.8165C237.746 64.8165 237.687 64.749 237.654 64.7237C230.218 57.0602 220.529 51.9877 209.658 51.9877C195.032 51.9877 183.013 60.6894 175.231 72.5223C167.087 84.3383 162.841 99.7413 162.656 116.756C162.841 133.636 167.087 149.141 175.231 160.99C177.317 164.122 179.718 167.033 182.397 169.675L182.768 170.038V170.08L183.427 170.739C183.536 170.865 183.654 170.975 183.764 171.085L184.136 171.448L184.178 171.49L184.836 172.148L185.174 172.503L185.545 172.857C185.563 172.866 185.578 172.881 185.587 172.899L186.246 173.558L186.583 173.912L186.955 174.266C186.965 174.272 186.974 174.279 186.981 174.287C186.988 174.296 186.993 174.306 186.997 174.317L187.655 174.975L188.001 175.321L188.364 175.676L188.415 175.727L189.073 176.385C196.382 183.686 205.818 188.589 216.663 188.589C230.91 188.589 243.123 179.702 250.904 168.038C258.855 156.222 263.303 140.65 263.303 123.812C263.328 106.755 258.897 91.3941 250.947 79.5443ZM226.867 149.487C221.499 157.437 215.389 160.957 209.658 160.957C206.132 160.871 202.719 159.691 199.893 157.581C199.631 157.243 199.378 156.889 199.125 156.517C193.943 148.744 190.238 136.903 190.238 123.761C190.238 110.435 193.943 98.7791 199.125 90.8455C204.687 83.0722 210.941 79.3755 216.706 79.5528C220.047 79.5375 223.304 80.6034 225.99 82.5912C226.285 82.9878 226.572 83.3761 226.834 83.7896C232.016 91.7486 235.712 103.404 235.712 116.706C235.746 129.847 232.049 141.705 226.867 149.487Z" fill="black"/>
<path d="M162.647 116.723C162.833 99.6991 167.095 84.3383 175.231 72.4969C183.004 60.6809 195.031 51.954 209.658 51.954C223.904 51.954 236.117 60.6556 243.89 72.4969C251.849 84.3129 256.289 99.6991 256.289 116.723C256.289 133.603 251.849 149.115 243.89 160.957C236.117 172.612 223.904 181.5 209.658 181.5C195.031 181.5 183.004 172.612 175.231 160.957C167.112 149.115 162.833 133.569 162.647 116.723ZM235.746 116.723C235.746 103.404 232.049 91.7401 226.867 83.8065C221.499 76.0333 215.397 72.3366 209.658 72.5223C203.919 72.3366 197.622 76.0333 192.077 83.8065C186.895 91.7655 183.19 103.43 183.19 116.723C183.19 129.864 186.895 141.713 192.077 149.478C197.622 157.437 203.893 160.957 209.658 160.957C215.422 160.957 221.474 157.437 226.867 149.478C232.049 141.713 235.746 129.847 235.746 116.723Z" fill="#286EF1"/>
<path d="M377.023 146.625C376.804 146.381 376.568 146.144 376.331 145.925C376.103 145.68 375.867 145.452 375.631 145.233C375.403 144.988 375.175 144.752 374.939 144.532C374.711 144.288 374.474 144.051 374.238 143.84C374.01 143.595 373.782 143.359 373.546 143.14C373.318 142.895 373.082 142.659 372.845 142.448C372.618 142.203 372.381 141.967 372.153 141.747C371.936 141.504 371.704 141.273 371.461 141.055C371.233 140.81 370.997 140.582 370.761 140.363C370.046 139.573 369.208 138.903 368.279 138.38V68.6314C368.279 68.26 368.102 68.0744 368.102 67.703C368.148 67.3243 368.083 66.9404 367.917 66.5974C367.917 66.4117 367.739 66.0403 367.739 65.8546C367.638 65.4752 367.511 65.103 367.359 64.7406C367.168 64.5342 367.042 64.2758 366.997 63.9978C366.787 63.6624 366.537 63.3536 366.254 63.0779C366.06 62.8922 365.882 62.5293 365.697 62.3352L364.954 61.5924C364.954 61.4827 364.811 61.3646 364.65 61.297L364.287 60.9257H364.245C364.245 60.8075 364.11 60.6978 363.95 60.6218L363.578 60.2589C363.578 60.1492 363.435 60.031 363.274 59.9551L362.912 59.5922C362.912 59.474 362.768 59.3643 362.608 59.2883L362.245 58.917C362.245 58.8072 362.101 58.6891 361.941 58.6131L361.57 58.2502V58.208C361.57 58.0983 361.426 57.9886 361.266 57.9126L360.903 57.5412H360.861C360.861 57.4315 360.726 57.3134 360.565 57.2374L360.194 56.8745V56.8323C360.194 56.7226 360.05 56.6128 359.89 56.5369L359.527 56.1655H359.485C359.485 56.0474 359.35 55.9376 359.19 55.8617L358.818 55.4988C358.818 55.389 358.675 55.2709 358.514 55.2034L358.109 54.7982C358.109 54.6126 357.746 54.4269 357.552 54.4269C357.552 54.4025 357.547 54.3784 357.538 54.3558C357.529 54.3333 357.515 54.3128 357.498 54.2956C357.481 54.2783 357.46 54.2647 357.438 54.2553C357.415 54.246 357.391 54.2412 357.367 54.2412C357.004 54.064 356.809 53.8698 356.447 53.6842C356.127 53.4526 355.82 53.2047 355.527 52.9414C355.341 52.9414 354.97 52.7642 354.784 52.7642C354.412 52.5785 353.864 52.5785 353.67 52.3844C353.35 52.4113 353.029 52.35 352.741 52.2072H349.602C349.381 52.3486 349.119 52.4111 348.859 52.3844C348.302 52.5785 347.939 52.5785 347.745 52.7642C347.382 52.7642 347.196 52.9414 347.002 53.3212C346.606 53.3315 346.222 53.4576 345.897 53.6842C345.719 53.8698 345.339 54.064 345.162 54.2412C344.91 54.5094 344.589 54.7023 344.234 54.7982C344.093 55.0763 343.904 55.3276 343.677 55.541C343.491 55.7266 343.491 55.9039 343.314 55.9039L274.536 140.819C272.91 142.771 272.099 145.275 272.27 147.81C272.441 150.345 273.582 152.717 275.456 154.432C275.673 154.687 275.91 154.924 276.165 155.141C276.377 155.396 276.612 155.63 276.866 155.842C277.083 156.097 277.32 156.334 277.575 156.551C278.282 157.253 278.986 157.959 279.685 158.669C280.16 159.133 280.63 159.603 281.094 160.079C281.311 160.331 281.548 160.565 281.803 160.779C282.24 161.275 282.726 161.725 283.255 162.121C284.993 163.632 287.241 164.426 289.543 164.341H340.79V171.355C340.775 172.782 341.062 174.197 341.632 175.506C342.202 176.816 343.043 177.989 344.099 178.951C344.318 179.195 344.555 179.423 344.782 179.634C344.993 179.871 345.221 180.09 345.458 180.309C345.676 180.55 345.907 180.778 346.15 180.993C346.369 181.229 346.589 181.449 346.825 181.668C347.044 181.913 347.281 182.141 347.517 182.36C347.736 182.597 347.956 182.825 348.192 183.036C348.412 183.28 348.648 183.508 348.884 183.728C349.104 183.964 349.323 184.192 349.56 184.403C349.774 184.646 350.003 184.877 350.243 185.095C351.638 186.603 353.454 187.655 355.456 188.115C357.457 188.576 359.551 188.422 361.464 187.675C363.377 186.928 365.021 185.622 366.181 183.928C367.341 182.233 367.963 180.228 367.967 178.174V164.307H369.824C371.176 164.331 372.52 164.085 373.776 163.584C375.033 163.083 376.177 162.338 377.142 161.39C378.107 160.443 378.875 159.313 379.399 158.066C379.924 156.82 380.195 155.481 380.197 154.129C380.216 152.726 379.944 151.335 379.398 150.044C378.851 148.752 378.043 147.588 377.023 146.625ZM340.79 106.957V136.869H316.686L340.79 106.957Z" fill="#286EF1"/>
<path opacity="0.1" d="M377.023 146.625C376.804 146.381 376.568 146.144 376.331 145.925C376.103 145.68 375.867 145.452 375.631 145.233C375.403 144.988 375.175 144.752 374.939 144.532C374.711 144.288 374.474 144.051 374.238 143.84C374.01 143.595 373.782 143.359 373.546 143.14C373.318 142.895 373.082 142.659 372.845 142.448C372.618 142.203 372.381 141.967 372.153 141.747C371.936 141.504 371.704 141.273 371.461 141.055C371.233 140.81 370.997 140.582 370.761 140.363C370.046 139.573 369.208 138.903 368.279 138.38V68.6314C368.279 68.26 368.102 68.0744 368.102 67.703C368.148 67.3243 368.083 66.9404 367.917 66.5974C367.917 66.4117 367.739 66.0403 367.739 65.8546C367.638 65.4752 367.511 65.103 367.359 64.7406C367.168 64.5342 367.042 64.2758 366.997 63.9978C366.787 63.6624 366.537 63.3536 366.254 63.0779C366.06 62.8922 365.882 62.5293 365.697 62.3352L364.954 61.5924C364.954 61.4827 364.811 61.3646 364.65 61.297L364.287 60.9257H364.245C364.245 60.8075 364.11 60.6978 363.95 60.6218L363.578 60.2589C363.578 60.1492 363.435 60.031 363.274 59.9551L362.912 59.5922C362.912 59.474 362.768 59.3643 362.608 59.2883L362.245 58.917C362.245 58.8072 362.101 58.6891 361.941 58.6131L361.57 58.2502V58.208C361.57 58.0983 361.426 57.9886 361.266 57.9126L360.903 57.5412H360.861C360.861 57.4315 360.726 57.3134 360.565 57.2374L360.194 56.8745V56.8323C360.194 56.7226 360.05 56.6128 359.89 56.5369L359.527 56.1655H359.485C359.485 56.0474 359.35 55.9376 359.19 55.8617L358.818 55.4988C358.818 55.389 358.675 55.2709 358.514 55.2034L358.109 54.7982C358.109 54.6126 357.746 54.4269 357.552 54.4269C357.552 54.4025 357.547 54.3784 357.538 54.3558C357.529 54.3333 357.515 54.3128 357.498 54.2956C357.481 54.2783 357.46 54.2647 357.438 54.2553C357.415 54.246 357.391 54.2412 357.367 54.2412C357.004 54.064 356.809 53.8698 356.447 53.6842C356.127 53.4526 355.82 53.2047 355.527 52.9414C355.341 52.9414 354.97 52.7642 354.784 52.7642C354.412 52.5785 353.864 52.5785 353.67 52.3844C353.35 52.4113 353.029 52.35 352.741 52.2072H349.602C349.381 52.3486 349.119 52.4111 348.859 52.3844C348.302 52.5785 347.939 52.5785 347.745 52.7642C347.382 52.7642 347.196 52.9414 347.002 53.3212C346.606 53.3315 346.222 53.4576 345.897 53.6842C345.719 53.8698 345.339 54.064 345.162 54.2412C344.91 54.5094 344.589 54.7023 344.234 54.7982C344.093 55.0763 343.904 55.3276 343.677 55.541C343.491 55.7266 343.491 55.9039 343.314 55.9039L274.536 140.819C272.91 142.771 272.099 145.275 272.27 147.81C272.441 150.345 273.582 152.717 275.456 154.432C275.673 154.687 275.91 154.924 276.165 155.141C276.377 155.396 276.612 155.63 276.866 155.842C277.083 156.097 277.32 156.334 277.575 156.551C278.282 157.253 278.986 157.959 279.685 158.669C280.16 159.133 280.63 159.603 281.094 160.079C281.311 160.331 281.548 160.565 281.803 160.779C282.24 161.275 282.726 161.725 283.255 162.121C284.993 163.632 287.241 164.426 289.543 164.341H340.79V171.355C340.775 172.782 341.062 174.197 341.632 175.506C342.202 176.816 343.043 177.989 344.099 178.951C344.318 179.195 344.555 179.423 344.782 179.634C344.993 179.871 345.221 180.09 345.458 180.309C345.676 180.55 345.907 180.778 346.15 180.993C346.369 181.229 346.589 181.449 346.825 181.668C347.044 181.913 347.281 182.141 347.517 182.36C347.736 182.597 347.956 182.825 348.192 183.036C348.412 183.28 348.648 183.508 348.884 183.728C349.104 183.964 349.323 184.192 349.56 184.403C349.774 184.646 350.003 184.877 350.243 185.095C351.638 186.603 353.454 187.655 355.456 188.115C357.457 188.576 359.551 188.422 361.464 187.675C363.377 186.928 365.021 185.622 366.181 183.928C367.341 182.233 367.963 180.228 367.967 178.174V164.307H369.824C371.176 164.331 372.52 164.085 373.776 163.584C375.033 163.083 376.177 162.338 377.142 161.39C378.107 160.443 378.875 159.313 379.399 158.066C379.924 156.82 380.195 155.481 380.197 154.129C380.216 152.726 379.944 151.335 379.398 150.044C378.851 148.752 378.043 147.588 377.023 146.625ZM340.79 106.957V136.869H316.686L340.79 106.957Z" fill="black"/>
<path d="M373.351 147.073C373.351 148.425 373.081 149.763 372.557 151.01C372.034 152.257 371.267 153.387 370.302 154.334C369.338 155.281 368.194 156.027 366.938 156.528C365.682 157.029 364.339 157.275 362.987 157.251H361.139V171.321C361.139 174.02 360.066 176.609 358.158 178.518C356.249 180.427 353.66 181.5 350.96 181.5C348.261 181.5 345.672 180.427 343.763 178.518C341.854 176.609 340.782 174.02 340.782 171.321V157.251H282.486C280.184 157.34 277.935 156.546 276.199 155.032C275.124 154.228 274.225 153.214 273.555 152.052C272.884 150.889 272.457 149.603 272.299 148.27C272.141 146.938 272.256 145.587 272.636 144.301C273.016 143.014 273.654 141.818 274.511 140.785L343.001 55.6507C343.187 55.6507 343.187 55.4735 343.373 55.2878C343.602 55.0767 343.791 54.8248 343.93 54.5451C344.285 54.4491 344.606 54.2562 344.858 53.988C345.044 53.8023 345.415 53.6167 345.601 53.431C345.923 53.1968 346.309 53.0671 346.706 53.0596C346.892 52.6967 347.078 52.511 347.441 52.511C347.626 52.3253 347.998 52.3253 348.555 52.1397C348.817 52.1674 349.08 52.1017 349.297 51.954H352.446C352.727 52.1048 353.047 52.1694 353.366 52.1397C353.551 52.3253 354.108 52.3253 354.48 52.511C354.665 52.511 355.037 52.6967 355.222 52.6967C355.594 53.0596 355.957 53.2453 356.142 53.431C356.514 53.6167 356.699 53.8023 357.071 53.988C357.12 53.988 357.167 54.0076 357.202 54.0424C357.237 54.0772 357.256 54.1245 357.256 54.1737C357.442 54.1737 357.805 54.3594 357.805 54.5451L358.548 55.2878C358.733 55.4735 358.919 55.8364 359.105 56.0221C359.388 56.3013 359.637 56.6129 359.847 56.9505C359.894 57.2297 360.023 57.4885 360.219 57.6932C360.371 58.0517 360.495 58.4213 360.59 58.7988C360.59 58.9845 360.767 59.3559 360.767 59.5415C360.935 59.8875 360.999 60.2741 360.953 60.6556C360.953 61.0185 361.139 61.2042 361.139 61.5756V136.894H362.987C365.708 136.881 368.324 137.943 370.265 139.849C372.207 141.756 373.316 144.352 373.351 147.073ZM340.782 91.1831L303.958 136.894H340.782V91.1831Z" fill="#286EF1"/>
<path d="M236.548 157.488C236.518 157.681 236.557 157.878 236.657 158.046C236.757 158.214 236.912 158.342 237.096 158.408C237.982 158.543 239.063 158.686 240.261 158.855C243.831 151.107 247.477 145.005 246.448 147.419C244.875 151.211 243.843 155.206 243.384 159.286C244.777 159.471 248.026 159.868 249.646 160.062C253.377 146.237 257.487 136.076 257.006 139.266C255.048 152.137 255.394 156.34 255.841 160.838C270.974 162.678 290.85 164.856 305.258 166.097C307.612 158.501 309.815 150.196 310.018 150.803C311.596 155.319 311.562 161.699 311.166 166.595C315.757 166.957 319.437 167.152 321.69 167.152C321.69 167.152 323.378 160.72 323.682 158.593C324.586 153.151 324.534 147.594 323.53 142.169C322.492 136.633 320.281 131.653 318.213 126.564C318.207 126.532 318.198 126.501 318.188 126.471C316.816 123.137 315.831 119.656 315.251 116.098C315.245 116.07 315.245 116.041 315.251 116.014C314.865 113.419 314.698 110.796 314.753 108.173C314.938 98.5682 310.634 89.934 302.455 86.8112C288.487 72.5392 269.303 79.0886 263.885 91.1578C261.766 96.5679 259.665 103.632 257.833 109.076C257.838 109.085 257.841 109.095 257.841 109.105C257.841 109.116 257.838 109.126 257.833 109.135C257.142 111.27 256.322 113.362 255.377 115.398C250.355 125.12 240.683 130.134 236.548 157.488Z" fill="#17233D"/>
<path d="M305.823 89.647C311.064 93.1159 314.052 97.8507 314.263 104.89C314.398 108.992 314.263 112.984 315.419 116.925C316.576 120.993 318.669 124.42 320.838 127.838C324.273 133.273 326.535 138.607 326.526 145.495C326.518 152.382 325.48 160.687 322.703 167.008C322.703 167.05 322.636 167.008 322.652 167.008C325.016 160.551 325.877 151.453 325.395 144.482C324.864 136.818 321.285 131.771 317.69 125.72C314.793 120.916 313.19 115.443 313.039 109.836C312.938 106.358 313.309 102.771 312.297 99.429C311.098 95.4453 308.228 92.753 305.359 90.3476C304.979 90.0015 305.426 89.3854 305.823 89.647Z" fill="#17233D"/>
<path d="M245.064 125.466C249.435 120.326 253.9 115.997 256.787 109.43C259.412 103.446 261.175 97.0574 263.834 91.0903C263.834 90.989 264.011 91.0396 263.969 91.1493C259.749 101.784 258.129 112.705 250.752 121.373C246.735 126.083 242.759 130.429 239.873 136.21C236.921 142.308 235.075 148.88 234.421 155.622C234.421 155.859 234.108 155.825 234.108 155.622C234.104 144.596 237.983 133.919 245.064 125.466Z" fill="#17233D"/>
<path d="M202.56 256.447C202.56 256.447 243.299 267.419 250.035 266.237C256.77 265.056 279.507 234.452 284.554 223.354C289.601 212.255 297.982 157.04 296.37 150.964C294.758 144.887 286.327 144.802 279.212 160.467C272.097 176.132 255.276 210.567 252.28 213.403C249.283 216.239 199.276 253.51 202.56 256.447Z" fill="#FFBE9D"/>
<path d="M246.498 262.608C240.253 259.342 232.648 251.417 227.466 250.589C226.198 250.341 224.885 250.508 223.719 251.064C222.553 251.62 221.597 252.537 220.993 253.678C220.993 253.678 218.613 248.387 213.785 248.412C211.312 248.412 209.151 252.396 209.151 252.396C209.151 252.396 207.05 248.235 202.771 248.522C199.352 248.749 197.707 252.699 197.707 252.699C197.707 252.699 193.841 249.644 190.431 251.011C183.527 253.738 182.38 283.083 193.014 288.046C197.968 290.359 197.859 283.176 197.859 283.176C197.859 283.176 200.509 293.473 206.552 293.861C212.595 294.25 211.894 284.932 211.894 284.932C211.894 284.932 214.553 294.883 220.858 294.655C227.424 294.427 225.128 285.219 225.128 285.219C225.128 285.219 229.298 291.92 234.083 290.637C241.991 288.527 233.492 272.643 235.282 266.254H245.215L246.498 262.608Z" fill="#FFBE9D"/>
<path d="M237.485 256.362C243.671 258.945 250.727 249.18 257.091 251.45C265.345 254.396 257.715 264.583 245.207 266.237H235.273L237.485 256.362Z" fill="#FFBE9D"/>
<path d="M197.344 253.282C197.344 253.262 197.336 253.242 197.322 253.228C197.307 253.214 197.288 253.206 197.268 253.206C197.248 253.206 197.228 253.214 197.214 253.228C197.2 253.242 197.192 253.262 197.192 253.282C194.466 262.844 194.39 274.188 197.808 283.59C197.918 283.894 198.475 283.851 198.416 283.489C196.745 273.09 196.086 263.756 197.344 253.282Z" fill="#17233D"/>
<path d="M209.092 252.227C209.092 252.109 208.915 252.083 208.881 252.227C206.121 262.102 206.349 274.871 211.607 285.252C211.785 285.607 212.308 285.742 212.131 285.32C209.185 278.163 207.911 261.671 209.092 252.227Z" fill="#17233D"/>
<path d="M225.736 285.835C221.119 275.707 220.216 265.098 220.858 254.075C220.858 253.932 220.663 253.932 220.621 254.075C218.84 259.384 219.17 266.448 219.887 271.926C220.448 277.009 222.331 281.857 225.348 285.987C225.5 286.164 225.837 286.054 225.736 285.835Z" fill="#17233D"/>
<path d="M257.58 250.674C253.529 249.323 249.368 252.564 245.958 254.379C244.867 255.028 243.717 255.574 242.523 256.008C239.822 256.852 237.822 256.312 236.615 255.561C234.725 254.354 228.825 248.462 224.563 250.421C223.092 251.109 221.833 252.178 220.917 253.518C219.617 251.155 217.954 248.581 215.076 248.108C214.442 248 213.792 248.028 213.17 248.19C212.547 248.351 211.966 248.643 211.464 249.045C210.928 249.459 210.45 249.944 210.046 250.488C209.645 250.977 209.316 251.519 209.067 252.1C209.066 252.08 209.066 252.061 209.067 252.041L208.974 251.864L208.797 251.501C208.556 251.015 208.213 250.586 207.793 250.243C207.712 250.162 207.616 250.097 207.511 250.053C207.405 250.01 207.291 249.988 207.176 249.99C207.159 249.99 207.141 249.997 207.129 250.01C207.116 250.023 207.109 250.04 207.109 250.058C207.109 250.076 207.116 250.093 207.129 250.105C207.141 250.118 207.159 250.125 207.176 250.125C207.374 250.219 207.535 250.377 207.632 250.573C207.767 250.775 207.894 250.986 208.037 251.18C208.181 251.374 208.316 251.577 208.459 251.771L208.67 252.083L208.763 252.244C208.804 252.295 208.849 252.343 208.898 252.387C208.91 252.403 208.925 252.416 208.943 252.424C208.96 252.433 208.98 252.438 208.999 252.438C209.019 252.438 209.038 252.433 209.056 252.424C209.074 252.416 209.089 252.403 209.101 252.387C209.535 252.001 209.928 251.571 210.274 251.104C210.699 250.61 211.171 250.158 211.683 249.754C212.17 249.377 212.73 249.108 213.328 248.962C213.926 248.817 214.547 248.799 215.152 248.91C217.735 249.416 219.372 251.712 220.748 253.763C220.748 253.763 220.748 253.763 220.79 253.763C220.748 253.83 220.841 253.889 220.891 253.839C222.309 252.598 223.66 251.206 225.618 250.919C227.728 250.606 229.728 251.619 231.475 252.683C232.35 253.197 233.196 253.761 234.007 254.371C234.725 254.928 235.408 255.552 236.176 256.059C239.459 258.126 243.055 256.523 243.949 256.143C245.714 255.348 247.425 254.44 249.073 253.425C250.728 252.315 252.596 251.559 254.559 251.206C255.459 251.073 256.379 251.17 257.232 251.489C258.085 251.808 258.844 252.338 259.437 253.029C260.053 253.822 260.838 255.307 259.226 258.692C259.226 258.692 259.226 258.759 259.277 258.734C260.121 257.856 262.804 252.421 257.58 250.674Z" fill="#17233D"/>
<path d="M293.172 202.245L254.728 196.101C254.728 196.101 273.093 159.733 284.124 149.183C295.012 138.768 300.312 149.436 298.708 165.523C296.936 183.356 293.172 202.245 293.172 202.245Z" fill="#0940A8"/>
<path d="M291.922 195.088C290.842 194.835 289.736 194.674 288.656 194.43C287.576 194.185 286.538 194.033 285.474 193.873C283.305 193.535 281.128 193.231 278.959 192.936C274.671 192.345 270.384 191.695 266.079 191.248C263.632 190.978 261.201 190.606 258.745 190.404C258.669 190.404 258.66 190.522 258.745 190.539C263.007 191.535 267.345 192.227 271.666 192.978C275.988 193.729 280.241 194.337 284.546 194.801C285.753 194.936 286.968 195.088 288.175 195.147C289.382 195.206 290.665 195.324 291.905 195.341C291.939 195.343 291.972 195.332 291.997 195.31C292.023 195.288 292.038 195.257 292.041 195.223C292.043 195.189 292.032 195.156 292.009 195.131C291.987 195.106 291.956 195.09 291.922 195.088Z" fill="#17233D"/>
<path d="M271.768 266.575H373.58C373.58 266.575 331.261 161.547 309.748 146.203C303.291 141.595 293.003 141.08 286.065 150.331C280.377 157.927 264.586 188.1 263.868 198.953C263.151 209.807 271.667 220.535 271.667 220.535L271.768 266.575Z" fill="#0D4DC6"/>
<path d="M305.477 195.409C305.739 195.341 305.992 195.307 306.245 195.257C306.468 195.206 306.7 195.206 306.923 195.257C307.146 195.308 307.355 195.409 307.534 195.552C307.713 195.694 307.858 195.875 307.958 196.081C308.058 196.287 308.11 196.513 308.11 196.742C308.104 196.946 308.15 197.148 308.245 197.328C308.34 197.509 308.479 197.661 308.65 197.772C308.842 197.892 309.059 197.967 309.283 197.991C309.542 198.029 309.798 198.08 310.052 198.143C309.798 198.211 309.545 198.245 309.283 198.295C309.001 198.351 308.708 198.325 308.439 198.219C308.154 198.097 307.911 197.894 307.741 197.634C307.571 197.374 307.483 197.069 307.486 196.759C307.481 196.556 307.425 196.358 307.323 196.182C307.221 196.007 307.077 195.86 306.903 195.755C306.703 195.645 306.481 195.579 306.254 195.561C305.992 195.51 305.739 195.476 305.477 195.409Z" fill="white"/>
<path d="M266.535 195.409C266.788 195.341 267.042 195.307 267.295 195.257C267.518 195.206 267.75 195.206 267.973 195.257C268.196 195.308 268.405 195.409 268.584 195.552C268.763 195.694 268.908 195.875 269.008 196.081C269.107 196.287 269.159 196.513 269.16 196.742C269.155 196.947 269.203 197.149 269.299 197.329C269.396 197.509 269.536 197.662 269.709 197.772C269.899 197.895 270.116 197.97 270.342 197.991C270.595 198.042 270.848 198.067 271.101 198.143C270.848 198.211 270.595 198.245 270.342 198.295C270.059 198.35 269.766 198.324 269.498 198.219C269.214 198.095 268.973 197.89 268.804 197.631C268.634 197.372 268.544 197.069 268.544 196.759C268.539 196.556 268.483 196.358 268.381 196.182C268.28 196.007 268.135 195.86 267.962 195.755C267.761 195.644 267.54 195.578 267.312 195.561C267.042 195.51 266.788 195.476 266.535 195.409Z" fill="white"/>
<path d="M319.623 245.998C319.876 245.931 320.137 245.897 320.391 245.846C320.614 245.798 320.845 245.801 321.067 245.854C321.289 245.907 321.496 246.008 321.674 246.152C321.852 246.295 321.996 246.475 322.095 246.681C322.194 246.887 322.246 247.112 322.247 247.34C322.245 247.544 322.294 247.745 322.39 247.925C322.486 248.105 322.626 248.258 322.796 248.37C322.988 248.487 323.205 248.56 323.429 248.581C323.682 248.631 323.944 248.665 324.197 248.733C323.944 248.809 323.682 248.842 323.429 248.893C323.145 248.946 322.852 248.917 322.585 248.809C322.299 248.686 322.056 248.483 321.885 248.223C321.714 247.963 321.623 247.659 321.623 247.348C321.621 247.146 321.567 246.947 321.465 246.773C321.363 246.598 321.216 246.453 321.04 246.353C320.845 246.238 320.625 246.172 320.399 246.158C320.137 246.108 319.876 246.074 319.623 245.998Z" fill="white"/>
<path d="M337.229 198.143C337.482 198.067 337.743 198.042 337.997 197.991C338.219 197.941 338.451 197.941 338.674 197.992C338.896 198.043 339.105 198.144 339.283 198.286C339.462 198.429 339.606 198.61 339.704 198.816C339.803 199.023 339.854 199.248 339.853 199.477C339.85 199.681 339.899 199.882 339.995 200.062C340.091 200.242 340.231 200.395 340.402 200.506C340.592 200.629 340.81 200.702 341.035 200.717C341.288 200.777 341.55 200.802 341.803 200.878C341.55 200.945 341.288 200.979 341.035 201.03C340.752 201.086 340.459 201.06 340.191 200.954C339.905 200.831 339.662 200.628 339.491 200.368C339.32 200.109 339.228 199.805 339.229 199.494C339.227 199.29 339.173 199.09 339.071 198.914C338.968 198.738 338.822 198.592 338.646 198.489C338.449 198.379 338.23 198.312 338.005 198.295C337.743 198.211 337.482 198.211 337.229 198.143Z" fill="white"/>
<path d="M292.218 172.41C292.479 172.342 292.733 172.308 292.986 172.258C293.267 172.196 293.56 172.217 293.83 172.317C294.123 172.426 294.376 172.622 294.555 172.878C294.734 173.134 294.832 173.439 294.834 173.752C294.833 173.955 294.883 174.156 294.979 174.336C295.075 174.515 295.213 174.668 295.383 174.781C295.577 174.895 295.792 174.967 296.016 174.992C296.277 175.043 296.531 175.077 296.784 175.144C296.531 175.22 296.277 175.246 296.016 175.305C295.732 175.354 295.44 175.324 295.172 175.22C294.882 175.097 294.636 174.889 294.466 174.624C294.296 174.359 294.21 174.049 294.218 173.735C294.214 173.533 294.159 173.335 294.057 173.161C293.955 172.987 293.81 172.841 293.636 172.739C293.437 172.623 293.215 172.553 292.986 172.536C292.733 172.511 292.479 172.486 292.218 172.41Z" fill="white"/>
<path d="M319.926 171.827C320.179 171.76 320.433 171.726 320.694 171.675C320.976 171.616 321.268 171.637 321.538 171.735C321.831 171.845 322.084 172.041 322.264 172.297C322.445 172.553 322.545 172.856 322.551 173.169C322.547 173.373 322.596 173.575 322.692 173.755C322.788 173.936 322.928 174.088 323.1 174.199C323.291 174.318 323.508 174.39 323.733 174.41C323.986 174.461 324.239 174.494 324.501 174.562C324.239 174.638 323.986 174.672 323.733 174.722C323.449 174.776 323.156 174.746 322.889 174.638C322.603 174.516 322.359 174.312 322.188 174.052C322.017 173.793 321.926 173.489 321.927 173.178C321.923 172.976 321.868 172.778 321.766 172.603C321.664 172.429 321.519 172.284 321.344 172.182C321.149 172.067 320.929 172.001 320.703 171.988C320.441 171.948 320.182 171.894 319.926 171.827Z" fill="white"/>
<path d="M301.991 145.233C302.244 145.165 302.506 145.132 302.759 145.081C302.982 145.03 303.214 145.03 303.436 145.081C303.659 145.132 303.867 145.233 304.046 145.376C304.224 145.519 304.368 145.7 304.467 145.906C304.566 146.112 304.617 146.338 304.616 146.566C304.611 146.771 304.659 146.973 304.756 147.153C304.852 147.333 304.993 147.486 305.165 147.596C305.356 147.718 305.572 147.793 305.798 147.816C306.051 147.866 306.313 147.891 306.566 147.967C306.313 148.035 306.051 148.069 305.798 148.119C305.515 148.176 305.222 148.15 304.954 148.043C304.668 147.921 304.424 147.717 304.253 147.458C304.082 147.198 303.991 146.894 303.991 146.583C303.99 146.38 303.935 146.18 303.833 146.004C303.731 145.828 303.585 145.681 303.409 145.579C303.212 145.468 302.993 145.402 302.768 145.385C302.506 145.334 302.244 145.3 301.991 145.233Z" fill="white"/>
<path d="M285.424 216.576C285.677 216.509 285.93 216.475 286.183 216.424C286.465 216.362 286.758 216.383 287.027 216.483C287.321 216.591 287.574 216.785 287.755 217.039C287.936 217.294 288.035 217.597 288.04 217.91C288.036 218.114 288.084 218.316 288.18 218.496C288.276 218.677 288.417 218.829 288.589 218.939C288.779 219.062 288.996 219.138 289.222 219.159C289.475 219.209 289.728 219.243 289.981 219.311C289.728 219.387 289.475 219.412 289.222 219.463C288.939 219.517 288.646 219.491 288.378 219.387C288.094 219.262 287.853 219.058 287.684 218.799C287.514 218.539 287.424 218.236 287.424 217.927C287.419 217.724 287.363 217.525 287.262 217.35C287.16 217.174 287.015 217.027 286.842 216.922C286.641 216.813 286.42 216.747 286.192 216.728C285.93 216.677 285.677 216.652 285.424 216.576Z" fill="white"/>
<path d="M315.656 262.937C315.909 262.861 316.171 262.827 316.424 262.777C316.647 262.729 316.878 262.732 317.1 262.785C317.322 262.837 317.53 262.939 317.707 263.082C317.885 263.225 318.029 263.406 318.128 263.612C318.227 263.817 318.279 264.042 318.281 264.271C318.278 264.475 318.327 264.676 318.423 264.856C318.519 265.036 318.659 265.188 318.829 265.3C319.02 265.422 319.237 265.494 319.462 265.511C319.715 265.562 319.977 265.596 320.23 265.663C319.977 265.739 319.715 265.773 319.462 265.824C319.179 265.877 318.886 265.847 318.618 265.739C318.332 265.618 318.088 265.414 317.916 265.155C317.745 264.895 317.655 264.59 317.656 264.279C317.655 264.077 317.6 263.878 317.498 263.703C317.396 263.529 317.249 263.384 317.074 263.283C316.878 263.169 316.658 263.102 316.432 263.089C316.145 263.038 315.884 263.005 315.656 262.937Z" fill="white"/>
<path d="M300.759 238.022C301.012 237.955 301.266 237.921 301.519 237.87C301.8 237.812 302.092 237.833 302.363 237.929C302.657 238.038 302.911 238.234 303.092 238.49C303.272 238.746 303.371 239.051 303.376 239.364C303.372 239.568 303.42 239.77 303.516 239.95C303.612 240.131 303.753 240.283 303.924 240.394C304.115 240.514 304.332 240.587 304.557 240.605C304.81 240.656 305.064 240.689 305.325 240.757C305.064 240.833 304.81 240.858 304.557 240.917C304.273 240.965 303.982 240.936 303.713 240.833C303.43 240.708 303.189 240.504 303.019 240.245C302.85 239.985 302.76 239.682 302.76 239.373C302.754 239.171 302.698 238.974 302.596 238.8C302.494 238.626 302.35 238.48 302.177 238.377C301.981 238.257 301.757 238.191 301.527 238.183C301.308 238.124 301.012 238.098 300.759 238.022Z" fill="white"/>
<path d="M273.236 242.555C273.498 242.479 273.751 242.445 274.004 242.394C274.228 242.346 274.459 242.349 274.681 242.402C274.903 242.455 275.11 242.556 275.288 242.7C275.466 242.843 275.61 243.024 275.709 243.229C275.808 243.435 275.86 243.66 275.861 243.888C275.859 244.092 275.908 244.293 276.004 244.473C276.1 244.653 276.239 244.806 276.41 244.918C276.6 245.039 276.818 245.111 277.043 245.129C277.304 245.179 277.558 245.213 277.811 245.281C277.558 245.347 277.301 245.401 277.043 245.441C276.759 245.494 276.466 245.465 276.199 245.357C275.912 245.235 275.668 245.032 275.497 244.772C275.326 244.512 275.235 244.208 275.237 243.896C275.235 243.695 275.182 243.497 275.081 243.323C274.98 243.148 274.836 243.003 274.663 242.901C274.464 242.787 274.241 242.721 274.013 242.706C273.751 242.656 273.498 242.622 273.236 242.555Z" fill="white"/>
<path d="M313.428 217.184C313.681 217.116 313.934 217.083 314.187 217.032C314.411 216.984 314.642 216.987 314.865 217.04C315.087 217.093 315.295 217.194 315.474 217.337C315.652 217.48 315.797 217.661 315.897 217.866C315.997 218.072 316.05 218.297 316.053 218.526C316.049 218.73 316.097 218.932 316.193 219.112C316.289 219.292 316.43 219.445 316.601 219.556C316.792 219.676 317.009 219.748 317.234 219.767C317.487 219.817 317.741 219.851 317.994 219.918C317.741 219.994 317.487 220.02 317.234 220.079C316.951 220.13 316.658 220.101 316.39 219.994C316.107 219.87 315.865 219.666 315.696 219.406C315.527 219.147 315.437 218.844 315.436 218.534C315.431 218.333 315.375 218.136 315.273 217.962C315.171 217.788 315.027 217.642 314.854 217.538C314.657 217.421 314.433 217.355 314.204 217.344C313.968 217.285 313.681 217.26 313.428 217.184Z" fill="white"/>
<path d="M348.614 251.29C348.867 251.222 349.129 251.189 349.382 251.138C349.663 251.076 349.956 251.097 350.226 251.197C350.519 251.306 350.772 251.502 350.951 251.758C351.13 252.015 351.228 252.319 351.23 252.632C351.229 252.835 351.279 253.036 351.375 253.216C351.471 253.395 351.609 253.549 351.779 253.662C351.973 253.775 352.188 253.847 352.412 253.873C352.673 253.923 352.927 253.957 353.18 254.024C352.927 254.1 352.673 254.126 352.412 254.185C352.187 254.226 351.957 254.217 351.736 254.158C351.516 254.099 351.311 253.992 351.137 253.844C350.963 253.696 350.825 253.511 350.731 253.303C350.638 253.095 350.592 252.868 350.597 252.64C350.596 252.438 350.541 252.239 350.439 252.065C350.337 251.89 350.191 251.745 350.015 251.644C349.82 251.527 349.6 251.458 349.373 251.442C349.129 251.383 348.867 251.383 348.614 251.29Z" fill="white"/>
<path d="M334.646 230.468C334.899 230.401 335.161 230.367 335.414 230.317C335.637 230.269 335.868 230.272 336.09 230.324C336.312 230.377 336.52 230.479 336.698 230.622C336.876 230.765 337.019 230.946 337.118 231.151C337.218 231.357 337.27 231.582 337.271 231.81C337.267 232.015 337.315 232.216 337.411 232.396C337.507 232.577 337.648 232.729 337.819 232.84C338.009 232.963 338.227 233.035 338.452 233.051C338.706 233.102 338.967 233.135 339.22 233.203C338.967 233.279 338.706 233.313 338.452 233.363C338.169 233.417 337.876 233.388 337.608 233.279C337.322 233.157 337.078 232.954 336.907 232.694C336.735 232.435 336.645 232.13 336.646 231.819C336.645 231.616 336.59 231.418 336.488 231.243C336.386 231.068 336.24 230.923 336.064 230.823C335.868 230.708 335.649 230.642 335.422 230.629C335.161 230.578 334.899 230.544 334.646 230.468Z" fill="white"/>
<path d="M364.338 260.81C364.6 260.743 364.853 260.709 365.106 260.658C365.329 260.611 365.56 260.613 365.782 260.666C366.004 260.719 366.212 260.821 366.39 260.964C366.567 261.107 366.711 261.288 366.81 261.493C366.909 261.699 366.962 261.924 366.963 262.152C366.96 262.356 367.01 262.557 367.105 262.737C367.201 262.917 367.341 263.07 367.511 263.182C367.702 263.303 367.919 263.376 368.144 263.393C368.406 263.444 368.659 263.477 368.912 263.545C368.659 263.611 368.403 263.665 368.144 263.705C367.861 263.758 367.568 263.729 367.3 263.621C367.014 263.5 366.771 263.296 366.601 263.036C366.431 262.776 366.342 262.471 366.347 262.161C366.341 261.959 366.285 261.762 366.183 261.588C366.081 261.414 365.937 261.268 365.764 261.165C365.565 261.052 365.343 260.985 365.114 260.971C364.853 260.92 364.608 260.886 364.338 260.81Z" fill="white"/>
<path d="M294.556 186.783C294.429 187.011 294.269 187.213 294.125 187.433C294.003 187.626 293.838 187.79 293.644 187.911C293.449 188.033 293.23 188.109 293.003 188.134C292.775 188.159 292.544 188.132 292.328 188.056C292.112 187.98 291.916 187.857 291.754 187.695C291.613 187.547 291.436 187.438 291.241 187.379C291.046 187.32 290.839 187.312 290.64 187.357C290.419 187.406 290.214 187.508 290.04 187.652C289.832 187.807 289.615 187.951 289.391 188.083C289.526 187.855 289.678 187.652 289.821 187.433C289.987 187.19 290.218 187 290.488 186.884C290.773 186.772 291.085 186.746 291.385 186.809C291.685 186.872 291.96 187.021 292.176 187.239C292.322 187.38 292.502 187.481 292.699 187.533C292.895 187.584 293.102 187.585 293.298 187.534C293.517 187.474 293.72 187.365 293.889 187.213C294.159 187.07 294.362 186.91 294.556 186.783Z" fill="white"/>
<path d="M284.369 169.692C284.242 169.92 284.082 170.122 283.938 170.342C283.816 170.535 283.651 170.699 283.457 170.82C283.262 170.942 283.043 171.018 282.816 171.043C282.588 171.068 282.357 171.041 282.141 170.965C281.925 170.889 281.729 170.766 281.567 170.604C281.427 170.455 281.25 170.346 281.055 170.287C280.859 170.228 280.652 170.22 280.453 170.266C280.232 170.315 280.027 170.417 279.853 170.561C279.645 170.716 279.428 170.86 279.204 170.992C279.339 170.764 279.491 170.561 279.634 170.342C279.8 170.099 280.031 169.909 280.301 169.793C280.586 169.681 280.898 169.655 281.198 169.718C281.498 169.781 281.773 169.93 281.989 170.148C282.135 170.289 282.315 170.391 282.511 170.443C282.708 170.495 282.915 170.495 283.111 170.443C283.33 170.383 283.533 170.274 283.702 170.122C283.938 169.979 284.141 169.819 284.369 169.692Z" fill="white"/>
<path d="M335.912 216.534C335.777 216.77 335.625 216.973 335.481 217.184C335.321 217.429 335.096 217.624 334.831 217.749C334.552 217.871 334.242 217.907 333.941 217.853C333.641 217.799 333.363 217.657 333.143 217.446C333.001 217.3 332.825 217.193 332.63 217.134C332.435 217.075 332.228 217.066 332.029 217.108C331.809 217.158 331.604 217.259 331.43 217.403C331.211 217.547 331.008 217.707 330.78 217.834C330.907 217.606 331.067 217.403 331.211 217.184C331.373 216.942 331.601 216.751 331.869 216.635C332.155 216.526 332.466 216.502 332.765 216.565C333.064 216.628 333.339 216.775 333.557 216.99C333.701 217.131 333.88 217.233 334.075 217.285C334.27 217.337 334.476 217.337 334.671 217.285C334.892 217.227 335.097 217.121 335.27 216.973C335.507 216.829 335.709 216.669 335.912 216.534Z" fill="white"/>
<path d="M310.136 161.142C310.009 161.37 309.849 161.573 309.706 161.792C309.548 162.034 309.326 162.227 309.064 162.349C308.779 162.478 308.462 162.519 308.154 162.466C307.846 162.413 307.56 162.27 307.334 162.054C307.193 161.907 307.016 161.798 306.821 161.737C306.627 161.677 306.42 161.667 306.22 161.708C306 161.759 305.795 161.86 305.621 162.003C305.401 162.147 305.199 162.307 304.971 162.442C305.097 162.206 305.258 162.003 305.401 161.784C305.565 161.541 305.797 161.353 306.068 161.244C306.353 161.131 306.665 161.105 306.965 161.168C307.265 161.231 307.54 161.381 307.756 161.598C307.904 161.746 308.087 161.853 308.288 161.909C308.489 161.965 308.701 161.968 308.904 161.919C309.121 161.856 309.323 161.746 309.495 161.598C309.748 161.429 309.908 161.269 310.136 161.142Z" fill="white"/>
<path d="M292.26 148.516C292.133 148.744 291.973 148.947 291.83 149.166C291.67 149.408 291.449 149.604 291.188 149.731C290.902 149.859 290.585 149.898 290.277 149.844C289.968 149.79 289.683 149.645 289.458 149.428C289.317 149.28 289.141 149.171 288.945 149.112C288.75 149.053 288.543 149.045 288.344 149.09C288.123 149.138 287.917 149.239 287.745 149.385C287.525 149.529 287.323 149.689 287.095 149.816C287.221 149.588 287.382 149.385 287.525 149.166C287.689 148.921 287.921 148.731 288.192 148.617C288.477 148.505 288.789 148.479 289.089 148.542C289.389 148.605 289.664 148.754 289.88 148.972C290.025 149.114 290.205 149.216 290.402 149.268C290.599 149.32 290.806 149.32 291.002 149.267C291.222 149.207 291.424 149.098 291.593 148.947C291.83 148.803 292.024 148.643 292.26 148.516Z" fill="white"/>
<path d="M309.131 177.212C309.207 177.465 309.233 177.727 309.292 177.98C309.344 178.262 309.324 178.552 309.233 178.824C309.121 179.116 308.925 179.367 308.669 179.546C308.414 179.725 308.11 179.824 307.798 179.828C307.594 179.825 307.393 179.874 307.212 179.97C307.032 180.066 306.88 180.206 306.768 180.377C306.646 180.567 306.573 180.785 306.557 181.01C306.498 181.263 306.473 181.525 306.397 181.778C306.329 181.525 306.296 181.263 306.245 181.01C306.187 180.727 306.217 180.432 306.329 180.166C306.45 179.879 306.653 179.634 306.913 179.463C307.173 179.292 307.478 179.201 307.79 179.204C307.992 179.202 308.19 179.147 308.365 179.045C308.539 178.943 308.684 178.797 308.785 178.622C308.896 178.424 308.962 178.205 308.98 177.98C309.03 177.727 309.064 177.465 309.131 177.212Z" fill="white"/>
<path d="M303.046 222.172C303.114 222.425 303.148 222.687 303.198 222.94C303.246 223.163 303.243 223.394 303.191 223.616C303.138 223.838 303.036 224.046 302.893 224.224C302.75 224.401 302.569 224.545 302.363 224.644C302.158 224.743 301.933 224.796 301.705 224.797C301.5 224.793 301.299 224.841 301.118 224.937C300.938 225.033 300.786 225.174 300.675 225.345C300.556 225.537 300.484 225.754 300.464 225.978C300.413 226.232 300.379 226.493 300.312 226.746C300.236 226.493 300.202 226.232 300.152 225.978C300.098 225.695 300.127 225.402 300.236 225.134C300.358 224.849 300.562 224.605 300.822 224.434C301.081 224.263 301.385 224.172 301.696 224.172C301.899 224.171 302.097 224.116 302.272 224.014C302.447 223.912 302.592 223.766 302.692 223.59C302.806 223.394 302.873 223.175 302.886 222.948C302.937 222.687 302.996 222.425 303.046 222.172Z" fill="white"/>
<path d="M362.076 243.002C362.152 243.255 362.186 243.508 362.236 243.761C362.284 243.985 362.281 244.216 362.228 244.439C362.175 244.661 362.074 244.869 361.931 245.048C361.788 245.226 361.607 245.371 361.402 245.471C361.196 245.571 360.971 245.624 360.742 245.627C360.538 245.623 360.336 245.671 360.156 245.767C359.976 245.863 359.823 246.004 359.713 246.175C359.589 246.364 359.516 246.583 359.502 246.808C359.451 247.061 359.417 247.315 359.35 247.568C359.274 247.315 359.24 247.061 359.189 246.808C359.138 246.525 359.167 246.232 359.274 245.964C359.397 245.68 359.602 245.438 359.861 245.269C360.121 245.099 360.424 245.01 360.734 245.011C360.936 245.005 361.132 244.949 361.307 244.847C361.481 244.745 361.626 244.601 361.73 244.428C361.843 244.229 361.909 244.007 361.924 243.778C361.983 243.508 362.017 243.255 362.076 243.002Z" fill="white"/>
<path d="M334.73 183.441C334.798 183.694 334.831 183.947 334.882 184.209C334.941 184.49 334.921 184.782 334.823 185.053C334.712 185.345 334.516 185.598 334.26 185.779C334.005 185.959 333.701 186.059 333.388 186.066C333.184 186.062 332.982 186.11 332.802 186.206C332.622 186.302 332.469 186.443 332.358 186.614C332.24 186.806 332.167 187.023 332.147 187.247C332.097 187.5 332.063 187.754 331.995 188.015C331.919 187.754 331.894 187.5 331.835 187.247C331.794 187.023 331.803 186.792 331.862 186.572C331.921 186.351 332.028 186.147 332.176 185.973C332.324 185.799 332.509 185.66 332.717 185.567C332.925 185.473 333.151 185.428 333.38 185.433C333.582 185.43 333.78 185.374 333.954 185.272C334.129 185.17 334.274 185.025 334.376 184.85C334.493 184.656 334.56 184.436 334.57 184.209C334.629 183.947 334.654 183.694 334.73 183.441Z" fill="white"/>
<path d="M334.73 255.603C334.798 255.856 334.831 256.109 334.882 256.362C334.93 256.586 334.927 256.817 334.874 257.04C334.821 257.262 334.72 257.47 334.577 257.649C334.434 257.827 334.253 257.972 334.048 258.072C333.842 258.172 333.617 258.225 333.388 258.228C333.184 258.224 332.982 258.272 332.802 258.368C332.622 258.464 332.469 258.605 332.359 258.776C332.238 258.967 332.166 259.184 332.148 259.409C332.097 259.662 332.063 259.916 331.996 260.169C331.92 259.916 331.894 259.662 331.835 259.409C331.788 259.125 331.817 258.834 331.92 258.565C332.044 258.282 332.249 258.041 332.508 257.871C332.767 257.702 333.07 257.612 333.38 257.612C333.581 257.606 333.778 257.55 333.952 257.448C334.127 257.346 334.272 257.202 334.376 257.029C334.495 256.833 334.562 256.609 334.57 256.379C334.629 256.135 334.654 255.881 334.73 255.603Z" fill="white"/>
<path d="M348.614 214.289C348.69 214.542 348.715 214.804 348.766 215.057C348.817 215.28 348.816 215.511 348.765 215.734C348.714 215.957 348.614 216.165 348.471 216.344C348.328 216.522 348.147 216.666 347.941 216.765C347.735 216.863 347.509 216.914 347.28 216.914C347.076 216.911 346.875 216.959 346.695 217.055C346.515 217.151 346.362 217.291 346.251 217.462C346.128 217.652 346.056 217.87 346.04 218.095C345.981 218.349 345.955 218.61 345.879 218.863C345.812 218.61 345.778 218.349 345.727 218.095C345.67 217.812 345.699 217.518 345.812 217.251C345.932 216.966 346.134 216.722 346.392 216.551C346.65 216.379 346.954 216.288 347.264 216.289C347.467 216.288 347.667 216.233 347.843 216.131C348.019 216.029 348.165 215.883 348.268 215.707C348.379 215.51 348.445 215.291 348.462 215.065C348.513 214.804 348.572 214.542 348.614 214.289Z" fill="white"/>
<path d="M278.258 223.784C278.334 224.037 278.359 224.29 278.41 224.544C278.461 224.767 278.46 224.999 278.409 225.222C278.358 225.445 278.258 225.654 278.115 225.833C277.973 226.012 277.791 226.157 277.585 226.256C277.379 226.356 277.153 226.408 276.925 226.409C276.72 226.404 276.518 226.452 276.338 226.548C276.158 226.644 276.005 226.785 275.895 226.957C275.771 227.147 275.698 227.365 275.684 227.59C275.625 227.844 275.599 228.097 275.524 228.35C275.456 228.097 275.422 227.844 275.372 227.59C275.316 227.307 275.345 227.013 275.456 226.746C275.577 226.462 275.78 226.22 276.038 226.05C276.296 225.881 276.599 225.791 276.908 225.793C277.111 225.788 277.309 225.732 277.484 225.63C277.66 225.528 277.807 225.384 277.912 225.21C278.024 225.011 278.09 224.789 278.106 224.56C278.157 224.29 278.191 224.037 278.258 223.784Z" fill="white"/>
<path d="M279.626 183.441C279.689 183.694 279.74 183.95 279.777 184.209C279.84 184.489 279.822 184.782 279.727 185.053C279.616 185.345 279.42 185.598 279.164 185.779C278.909 185.959 278.605 186.059 278.292 186.066C278.088 186.061 277.886 186.109 277.705 186.205C277.525 186.301 277.372 186.442 277.262 186.614C277.14 186.804 277.067 187.022 277.051 187.247C276.992 187.5 276.967 187.754 276.891 188.015C276.823 187.754 276.79 187.5 276.739 187.247C276.682 186.964 276.709 186.671 276.815 186.403C276.937 186.117 277.141 185.874 277.401 185.703C277.66 185.532 277.964 185.441 278.275 185.441C278.478 185.438 278.677 185.383 278.853 185.281C279.029 185.179 279.176 185.033 279.28 184.859C279.39 184.662 279.456 184.443 279.474 184.217C279.524 183.947 279.558 183.694 279.626 183.441Z" fill="white"/>
<path d="M294.345 157.218C294.412 157.471 294.446 157.724 294.496 157.986C294.556 158.267 294.535 158.559 294.437 158.83C294.326 159.122 294.131 159.375 293.875 159.556C293.619 159.736 293.315 159.836 293.003 159.843C292.798 159.839 292.597 159.887 292.416 159.983C292.236 160.079 292.084 160.22 291.973 160.391C291.854 160.583 291.782 160.8 291.762 161.024C291.711 161.277 291.678 161.531 291.61 161.792C291.534 161.531 291.509 161.277 291.45 161.024C291.398 160.74 291.427 160.448 291.534 160.18C291.659 159.897 291.863 159.655 292.122 159.486C292.382 159.317 292.684 159.227 292.994 159.226C293.196 159.223 293.394 159.168 293.569 159.066C293.743 158.964 293.888 158.819 293.99 158.644C294.108 158.45 294.175 158.229 294.184 158.003C294.243 157.699 294.269 157.471 294.345 157.218Z" fill="white"/>
<path d="M290.395 197.755C290.462 198.017 290.496 198.27 290.547 198.523C290.594 198.747 290.591 198.978 290.539 199.201C290.486 199.423 290.384 199.631 290.241 199.809C290.099 199.988 289.918 200.132 289.712 200.232C289.507 200.333 289.282 200.386 289.053 200.388C288.849 200.384 288.647 200.433 288.467 200.529C288.287 200.625 288.134 200.765 288.023 200.937C287.903 201.128 287.831 201.345 287.812 201.57C287.762 201.823 287.728 202.076 287.66 202.329C287.584 202.076 287.551 201.823 287.5 201.57C287.448 201.286 287.478 200.994 287.584 200.726C287.709 200.442 287.913 200.201 288.172 200.032C288.432 199.862 288.735 199.772 289.044 199.772C289.246 199.767 289.443 199.711 289.617 199.609C289.791 199.507 289.937 199.363 290.04 199.19C290.153 198.991 290.22 198.768 290.234 198.54C290.285 198.27 290.336 198.017 290.395 197.755Z" fill="white"/>
<path d="M325.868 203.207C325.935 203.46 325.969 203.722 326.02 203.975C326.068 204.199 326.065 204.43 326.012 204.652C325.959 204.874 325.858 205.081 325.714 205.259C325.571 205.437 325.39 205.58 325.185 205.68C324.979 205.779 324.754 205.831 324.526 205.832C324.322 205.83 324.121 205.879 323.941 205.975C323.761 206.071 323.608 206.21 323.496 206.381C323.379 206.573 323.306 206.789 323.285 207.014C323.235 207.267 323.201 207.529 323.133 207.782C323.057 207.529 323.032 207.267 322.973 207.014C322.92 206.73 322.949 206.437 323.057 206.17C323.18 205.884 323.383 205.64 323.643 205.469C323.903 205.298 324.207 205.207 324.518 205.208C324.72 205.206 324.919 205.152 325.093 205.049C325.268 204.947 325.413 204.801 325.513 204.625C325.631 204.431 325.698 204.211 325.708 203.984C325.784 203.722 325.784 203.46 325.868 203.207Z" fill="white"/>
<path d="M293.079 248.733C293.146 248.994 293.18 249.247 293.231 249.501C293.281 249.724 293.281 249.956 293.23 250.179C293.179 250.402 293.079 250.611 292.936 250.79C292.793 250.969 292.612 251.114 292.406 251.213C292.2 251.313 291.974 251.365 291.745 251.366C291.541 251.36 291.338 251.407 291.157 251.503C290.977 251.599 290.825 251.741 290.716 251.915C290.594 252.102 290.519 252.316 290.496 252.539C290.459 252.797 290.408 253.054 290.344 253.307C290.277 253.054 290.243 252.801 290.192 252.539C290.136 252.256 290.163 251.963 290.268 251.695C290.39 251.41 290.594 251.167 290.854 250.997C291.114 250.827 291.418 250.738 291.728 250.741C291.931 250.737 292.13 250.681 292.305 250.579C292.481 250.477 292.628 250.333 292.733 250.159C292.842 249.958 292.908 249.737 292.927 249.509C292.978 249.247 293.011 248.994 293.079 248.733Z" fill="white"/>
<path d="M319.783 190.336C319.918 190.108 320.078 189.906 320.222 189.686C320.377 189.443 320.6 189.249 320.863 189.129C321.142 189.008 321.451 188.971 321.751 189.023C322.052 189.076 322.33 189.215 322.551 189.425C322.694 189.572 322.872 189.681 323.068 189.741C323.264 189.802 323.472 189.812 323.674 189.771C323.891 189.719 324.093 189.618 324.264 189.475C324.484 189.323 324.686 189.172 324.923 189.036C324.788 189.273 324.627 189.475 324.484 189.695C324.321 189.935 324.092 190.122 323.825 190.235C323.54 190.345 323.229 190.37 322.929 190.307C322.63 190.244 322.355 190.096 322.137 189.88C321.992 189.742 321.813 189.642 321.618 189.59C321.424 189.538 321.219 189.537 321.023 189.585C320.806 189.648 320.604 189.758 320.433 189.906C320.222 190.049 320.019 190.21 319.783 190.336Z" fill="white"/>
<path d="M299.097 209.082C299.223 208.854 299.384 208.651 299.527 208.432C299.65 208.238 299.814 208.075 300.009 207.953C300.203 207.832 300.422 207.756 300.65 207.731C300.878 207.706 301.108 207.732 301.324 207.808C301.541 207.884 301.737 208.008 301.899 208.17C302.039 208.318 302.216 208.427 302.411 208.487C302.606 208.546 302.814 208.553 303.013 208.508C303.233 208.458 303.439 208.357 303.612 208.212C303.821 208.057 304.038 207.913 304.262 207.782C304.127 208.01 303.975 208.212 303.832 208.432C303.702 208.621 303.533 208.778 303.335 208.893C303.137 209.009 302.916 209.078 302.688 209.096C302.46 209.115 302.23 209.082 302.016 209.001C301.802 208.92 301.609 208.791 301.451 208.626C301.307 208.485 301.128 208.384 300.933 208.332C300.738 208.28 300.533 208.28 300.337 208.33C300.12 208.394 299.918 208.503 299.747 208.651C299.527 208.795 299.325 208.955 299.097 209.082Z" fill="white"/>
<path d="M285.069 236.697C285.204 236.461 285.365 236.258 285.508 236.047C285.631 235.854 285.795 235.69 285.99 235.569C286.184 235.448 286.403 235.372 286.631 235.346C286.859 235.321 287.089 235.348 287.306 235.424C287.522 235.5 287.718 235.623 287.88 235.786C288.022 235.932 288.198 236.04 288.393 236.099C288.588 236.158 288.795 236.166 288.994 236.123C289.214 236.074 289.42 235.973 289.593 235.828C289.802 235.673 290.019 235.529 290.243 235.397C290.108 235.625 289.956 235.828 289.813 236.047C289.684 236.236 289.516 236.394 289.318 236.509C289.121 236.624 288.901 236.693 288.673 236.712C288.446 236.731 288.217 236.698 288.004 236.617C287.79 236.535 287.598 236.407 287.441 236.241C287.295 236.1 287.115 235.998 286.918 235.946C286.722 235.895 286.515 235.894 286.318 235.946C286.1 236.002 285.897 236.109 285.728 236.258C285.508 236.41 285.272 236.562 285.069 236.697Z" fill="white"/>
<path d="M291.129 265.385C291.264 265.157 291.424 264.954 291.568 264.735C291.723 264.491 291.946 264.298 292.209 264.178C292.489 264.058 292.797 264.022 293.097 264.075C293.397 264.127 293.675 264.266 293.897 264.473C294.038 264.621 294.214 264.73 294.409 264.791C294.604 264.852 294.812 264.861 295.011 264.819C295.232 264.767 295.437 264.662 295.611 264.515C295.822 264.372 296.024 264.22 296.26 264.085C296.125 264.321 295.973 264.524 295.83 264.735C295.665 264.978 295.433 265.168 295.163 265.283C294.878 265.393 294.566 265.419 294.267 265.356C293.967 265.293 293.692 265.145 293.475 264.929C293.329 264.79 293.151 264.69 292.956 264.639C292.761 264.587 292.557 264.585 292.361 264.634C292.143 264.697 291.942 264.806 291.77 264.954C291.568 265.098 291.365 265.258 291.129 265.385Z" fill="white"/>
<path d="M318.264 233.853C318.39 233.625 318.551 233.422 318.694 233.203C318.852 232.961 319.074 232.768 319.336 232.646C319.621 232.517 319.938 232.477 320.246 232.529C320.554 232.582 320.84 232.725 321.066 232.941C321.207 233.089 321.383 233.199 321.578 233.259C321.773 233.32 321.98 233.329 322.18 233.287C322.399 233.234 322.604 233.133 322.779 232.992C322.99 232.848 323.193 232.688 323.429 232.553C323.294 232.789 323.142 232.992 322.999 233.211C322.835 233.454 322.603 233.642 322.332 233.752C322.047 233.864 321.735 233.89 321.435 233.827C321.135 233.764 320.86 233.615 320.644 233.397C320.496 233.258 320.316 233.158 320.12 233.107C319.924 233.055 319.718 233.053 319.521 233.102C319.304 233.165 319.102 233.274 318.93 233.422C318.694 233.566 318.492 233.726 318.264 233.853Z" fill="white"/>
<path d="M336.933 245.281C337.06 245.053 337.22 244.85 337.364 244.631C337.523 244.391 337.745 244.198 338.005 244.074C338.285 243.954 338.593 243.918 338.893 243.971C339.193 244.023 339.471 244.162 339.693 244.369C339.834 244.516 340.011 244.625 340.205 244.686C340.4 244.746 340.607 244.756 340.807 244.715C341.027 244.664 341.232 244.563 341.406 244.42C341.626 244.276 341.828 244.116 342.056 243.981C341.93 244.217 341.769 244.42 341.626 244.639C341.464 244.883 341.231 245.072 340.959 245.179C340.674 245.292 340.362 245.318 340.062 245.255C339.762 245.192 339.487 245.042 339.271 244.825C339.123 244.686 338.943 244.586 338.747 244.535C338.551 244.483 338.345 244.481 338.148 244.529C337.931 244.593 337.729 244.702 337.558 244.85C337.364 244.994 337.161 245.154 336.933 245.281Z" fill="white"/>
<path d="M305.528 253.957C305.654 253.729 305.815 253.527 305.958 253.307C306.114 253.063 306.336 252.87 306.6 252.75C306.885 252.621 307.202 252.581 307.51 252.633C307.818 252.686 308.104 252.829 308.33 253.045C308.471 253.193 308.647 253.303 308.842 253.363C309.037 253.424 309.244 253.433 309.444 253.392C309.665 253.339 309.87 253.235 310.043 253.088C310.254 252.944 310.457 252.792 310.693 252.657C310.558 252.894 310.406 253.096 310.263 253.307C310.1 253.552 309.868 253.743 309.596 253.856C309.311 253.968 308.999 253.994 308.699 253.931C308.399 253.868 308.124 253.719 307.908 253.501C307.76 253.362 307.58 253.262 307.384 253.211C307.188 253.159 306.982 253.158 306.785 253.206C306.568 253.269 306.366 253.378 306.195 253.527C305.958 253.67 305.756 253.83 305.528 253.957Z" fill="white"/>
<path d="M346.04 265.385C346.175 265.157 346.327 264.954 346.47 264.735C346.628 264.493 346.85 264.3 347.111 264.178C347.396 264.049 347.713 264.008 348.022 264.061C348.33 264.114 348.615 264.257 348.842 264.473C348.983 264.62 349.159 264.729 349.354 264.79C349.549 264.85 349.756 264.86 349.956 264.819C350.176 264.768 350.381 264.667 350.555 264.524C350.774 264.372 350.977 264.22 351.205 264.085C351.078 264.321 350.918 264.524 350.774 264.743C350.612 264.983 350.383 265.171 350.116 265.283C349.831 265.394 349.519 265.42 349.219 265.357C348.92 265.294 348.645 265.145 348.428 264.929C348.282 264.791 348.103 264.691 347.909 264.64C347.714 264.588 347.51 264.586 347.314 264.634C347.093 264.695 346.888 264.804 346.715 264.954C346.462 265.098 346.259 265.258 346.04 265.385Z" fill="white"/>
<path d="M350.606 234.503C350.733 234.266 350.893 234.064 351.036 233.844C351.196 233.604 351.418 233.412 351.678 233.287C351.963 233.159 352.28 233.118 352.588 233.171C352.896 233.223 353.182 233.367 353.408 233.583C353.549 233.73 353.726 233.839 353.92 233.899C354.115 233.96 354.322 233.97 354.522 233.929C354.742 233.878 354.947 233.777 355.121 233.633C355.341 233.49 355.543 233.33 355.771 233.195C355.645 233.431 355.484 233.633 355.341 233.853C355.179 234.097 354.946 234.286 354.674 234.393C354.389 234.505 354.077 234.531 353.777 234.468C353.477 234.405 353.202 234.256 352.986 234.039C352.84 233.9 352.661 233.801 352.467 233.749C352.272 233.698 352.068 233.696 351.872 233.743C351.651 233.804 351.446 233.914 351.273 234.064C351.036 234.216 350.834 234.376 350.606 234.503Z" fill="white"/>
<path d="M276.621 257.915C276.756 257.679 276.908 257.476 277.051 257.257C277.211 257.017 277.432 256.825 277.692 256.7C277.977 256.571 278.294 256.531 278.603 256.583C278.911 256.636 279.197 256.779 279.423 256.995C279.564 257.142 279.74 257.251 279.935 257.312C280.13 257.372 280.337 257.383 280.537 257.341C280.757 257.29 280.962 257.189 281.136 257.046C281.355 256.903 281.558 256.742 281.786 256.607C281.659 256.843 281.499 257.046 281.355 257.265C281.195 257.507 280.966 257.695 280.697 257.806C280.412 257.917 280.1 257.942 279.8 257.879C279.501 257.816 279.226 257.668 279.009 257.451C278.863 257.312 278.684 257.213 278.489 257.163C278.294 257.113 278.09 257.113 277.895 257.164C277.673 257.218 277.467 257.326 277.296 257.476C277.051 257.62 276.832 257.78 276.621 257.915Z" fill="white"/>
<path d="M274.3 209.731C274.426 209.503 274.587 209.301 274.73 209.081C274.89 208.839 275.111 208.644 275.372 208.516C275.657 208.388 275.975 208.349 276.283 208.403C276.592 208.457 276.877 208.602 277.102 208.82C277.243 208.967 277.419 209.076 277.614 209.135C277.81 209.195 278.017 209.202 278.216 209.157C278.438 209.114 278.645 209.012 278.815 208.862C279.035 208.719 279.237 208.558 279.465 208.432C279.333 208.656 279.19 208.873 279.035 209.081C278.872 209.324 278.644 209.514 278.376 209.63C278.091 209.741 277.779 209.767 277.48 209.704C277.18 209.641 276.905 209.492 276.688 209.276C276.543 209.135 276.365 209.035 276.17 208.983C275.975 208.931 275.77 208.93 275.574 208.98C275.353 209.041 275.148 209.151 274.975 209.301C274.739 209.444 274.536 209.605 274.3 209.731Z" fill="white"/>
<path d="M301.84 145.444C301.527 147.022 294.404 157.412 287.247 157.319C284.917 157.277 284.546 144.549 284.546 144.549L284.301 143.621L280.925 130.556L296.058 120.115L298.253 118.731C298.253 118.731 298.936 122.369 299.755 126.901C299.755 127.112 299.831 127.323 299.865 127.551C299.898 127.779 299.974 128.041 300.008 128.285C300.143 128.961 300.27 129.653 300.388 130.345C300.481 130.868 300.565 131.374 300.641 131.931C300.717 132.489 300.801 133.029 300.894 133.619C301.478 137.535 301.794 141.486 301.84 145.444Z" fill="#FFBE9D"/>
<path d="M299.755 126.901C298.546 130.642 296.538 134.075 293.869 136.963C291.2 139.85 287.936 142.122 284.301 143.621L280.925 130.556L296.058 120.115L298.253 118.731C298.253 118.731 298.936 122.369 299.755 126.901Z" fill="#17233D"/>
<path d="M262.374 111.152C261.75 134.835 275.878 137.882 280.942 138.008C285.576 138.126 301.375 137.941 304.447 114.452C307.52 90.9637 296.7 83.2242 286.116 82.3802C275.532 81.5362 262.999 87.4695 262.374 111.152Z" fill="#FFBE9D"/>
<path d="M265.969 103.987C266.527 103.894 267.016 103.725 267.556 103.582C268.133 103.511 268.672 103.257 269.092 102.856C269.2 102.703 269.254 102.52 269.247 102.334C269.239 102.147 269.17 101.969 269.05 101.826C268.769 101.581 268.428 101.415 268.061 101.345C267.695 101.276 267.317 101.305 266.965 101.429C266.218 101.571 265.549 101.986 265.092 102.594C264.996 102.739 264.944 102.909 264.942 103.082C264.94 103.256 264.988 103.427 265.081 103.574C265.174 103.721 265.307 103.838 265.464 103.911C265.622 103.984 265.797 104.011 265.969 103.987Z" fill="#17233D"/>
<path d="M281.803 107.447C281.258 107.387 280.717 107.297 280.183 107.177C279.604 107.161 279.047 106.957 278.596 106.595C278.475 106.453 278.404 106.275 278.395 106.088C278.386 105.902 278.439 105.718 278.545 105.565C278.803 105.295 279.129 105.099 279.487 104.997C279.846 104.894 280.226 104.889 280.588 104.983C281.346 105.06 282.047 105.419 282.554 105.987C282.665 106.122 282.734 106.286 282.752 106.46C282.771 106.633 282.738 106.808 282.658 106.964C282.578 107.119 282.455 107.247 282.303 107.333C282.151 107.419 281.977 107.459 281.803 107.447Z" fill="#17233D"/>
<path d="M269.464 111.692C269.464 111.633 269.345 111.777 269.345 111.844C269.506 113.448 269.421 115.313 268.003 115.946C267.953 115.946 268.003 116.047 268.003 116.039C269.776 115.668 269.869 113.186 269.464 111.692Z" fill="#17233D"/>
<path d="M267.911 110.106C265.311 110.106 265.455 115.288 267.868 115.313C270.282 115.338 270.08 110.131 267.911 110.106Z" fill="#17233D"/>
<path d="M266.839 110.485C266.434 110.772 266.045 111.279 265.548 111.329C265.05 111.38 264.543 110.831 264.163 110.3C264.163 110.249 264.087 110.3 264.087 110.359C264.087 111.355 264.45 112.384 265.404 112.545C266.358 112.705 266.898 111.827 267.092 110.857C267.151 110.646 266.999 110.367 266.839 110.485Z" fill="#17233D"/>
<path d="M280.056 125.475C279.659 125.838 279.254 126.319 278.663 126.378C278.074 126.339 277.499 126.178 276.975 125.905C276.964 125.9 276.95 125.898 276.938 125.9C276.925 125.903 276.914 125.909 276.905 125.919C276.897 125.928 276.891 125.941 276.89 125.953C276.889 125.966 276.892 125.979 276.899 125.99C277.119 126.316 277.424 126.577 277.781 126.743C278.138 126.91 278.533 126.976 278.925 126.935C279.258 126.864 279.563 126.694 279.798 126.447C280.033 126.2 280.187 125.888 280.241 125.551C280.208 125.458 280.115 125.424 280.056 125.475Z" fill="#17233D"/>
<path d="M271.987 119.001C271.987 119.001 271.801 121.415 271.86 122.546C274.071 122.425 276.288 122.618 278.444 123.12C278.95 123.255 278.916 122.842 278.342 122.538C276.633 121.647 274.696 121.288 272.78 121.508C272.679 121.196 273.143 117.794 272.966 117.794C272.094 117.923 271.242 118.167 270.434 118.52C270.687 113.456 271.751 108.527 271.928 103.506C271.93 103.469 271.919 103.432 271.897 103.403C271.875 103.374 271.842 103.354 271.806 103.346C271.77 103.339 271.733 103.345 271.701 103.364C271.669 103.382 271.644 103.412 271.633 103.446C270.147 108.57 269.725 114.359 269.328 119.558C269.278 120.2 271.548 119.221 271.987 119.001Z" fill="#17233D"/>
<path d="M283.254 111.777C282.306 111.405 281.27 111.323 280.275 111.54C279.742 111.662 279.237 111.885 278.79 112.199C278.328 112.543 277.95 112.988 277.684 113.499L277.186 114.418L278.207 114.309C278.925 114.233 279.65 114.233 280.368 114.309C281.117 114.374 281.838 114.63 282.461 115.051C282.053 114.306 281.368 113.751 280.554 113.507C279.76 113.245 278.921 113.15 278.089 113.228L278.612 114.072C279.049 113.34 279.722 112.778 280.52 112.477C281.399 112.131 282.317 111.896 283.254 111.777Z" fill="#17233D"/>
<path d="M280.326 115.971C279.562 115.792 278.826 115.508 278.14 115.127C277.98 115.026 277.364 114.562 277.397 114.427C277.484 114.034 277.621 113.655 277.802 113.296C277.519 113.615 277.303 113.988 277.169 114.393C277.217 114.616 277.312 114.826 277.449 115.009C277.586 115.191 277.762 115.341 277.963 115.448C278.689 115.834 279.505 116.014 280.326 115.971Z" fill="#17233D"/>
<path d="M274.722 122.377C274.722 122.377 276.19 124.487 277.878 124.741C279.819 125.044 280.047 123.297 277.878 122.301C276.781 121.787 274.722 122.377 274.722 122.377Z" fill="#17233D"/>
<path d="M277.87 124.783C277.134 124.63 276.458 124.27 275.92 123.745C276.326 123.145 277.254 122.479 279.339 123.601C279.642 124.31 279.102 124.935 277.87 124.783Z" fill="#FF99BA"/>
<path d="M304.304 115.018C300.405 115.507 299.105 107.346 299.105 107.346C299.105 107.346 291.155 107.751 287.973 96.4413C288.367 99.858 289.752 103.085 291.956 105.725C291.956 105.725 277.853 104.881 271.38 93.4619C271.38 93.4619 274.03 99.3277 276.342 101.345C276.342 101.345 270.375 99.9945 267.278 95.3525C267.278 95.3525 265.151 102.248 263.353 104.215C263.353 104.215 262.737 79.6457 285.601 81.148C285.601 81.148 299.881 81.4012 305.545 92.4238C311.208 103.446 304.304 115.018 304.304 115.018Z" fill="#17233D"/>
<path d="M300.658 116.166C300.658 116.166 305.376 108.477 308.836 110.114C312.297 111.751 309.056 122.69 305.215 124.386C304.738 124.639 304.214 124.792 303.676 124.837C303.138 124.881 302.596 124.817 302.083 124.646C301.57 124.476 301.098 124.204 300.693 123.846C300.289 123.488 299.961 123.051 299.729 122.563L300.658 116.166Z" fill="#FFBE9D"/>
<path d="M307.832 113.228C307.891 113.228 307.908 113.304 307.832 113.33C305.139 114.613 303.848 117.254 302.987 119.972C303.747 118.9 304.827 118.284 306.253 119.128C306.329 119.17 306.253 119.288 306.186 119.28C305.693 119.153 305.173 119.184 304.698 119.367C304.223 119.55 303.816 119.876 303.536 120.301C303.063 121.009 302.672 121.767 302.371 122.563C302.253 122.816 301.806 122.715 301.882 122.428C301.877 122.406 301.877 122.383 301.882 122.36C301.645 118.875 304.076 113.811 307.832 113.228Z" fill="#17233D"/>
<path d="M302.996 123.154C303.008 123.372 303.085 123.582 303.216 123.757C303.348 123.932 303.528 124.064 303.735 124.136C303.941 124.209 304.165 124.218 304.377 124.163C304.589 124.108 304.78 123.992 304.925 123.828C305.071 123.665 305.165 123.462 305.195 123.245C305.225 123.029 305.19 122.808 305.095 122.611C304.999 122.414 304.848 122.25 304.659 122.139C304.47 122.028 304.252 121.976 304.034 121.989C303.889 121.997 303.747 122.033 303.616 122.096C303.485 122.158 303.368 122.247 303.272 122.355C303.175 122.463 303.101 122.59 303.054 122.727C303.006 122.864 302.987 123.009 302.996 123.154Z" fill="white"/>
<path d="M305.646 121.322C305.653 121.463 305.701 121.598 305.785 121.711C305.869 121.823 305.984 121.909 306.117 121.956C306.249 122.003 306.393 122.009 306.529 121.974C306.665 121.94 306.788 121.866 306.882 121.761C306.975 121.656 307.036 121.526 307.056 121.387C307.076 121.248 307.054 121.106 306.993 120.98C306.932 120.853 306.835 120.748 306.713 120.676C306.592 120.605 306.453 120.571 306.313 120.58C306.22 120.584 306.129 120.607 306.045 120.646C305.961 120.686 305.886 120.742 305.824 120.811C305.762 120.881 305.714 120.961 305.683 121.049C305.653 121.137 305.64 121.23 305.646 121.322Z" fill="white"/>
<path d="M228.843 167.384L216.585 170.232L225.402 208.18L237.66 205.332L228.843 167.384Z" fill="#EBEBEB"/>
<path d="M198.964 66.6565C188.723 69.0391 179.419 74.4044 172.227 82.0742C165.035 89.744 160.278 99.3739 158.558 109.747C156.838 120.119 158.231 130.769 162.563 140.35C166.894 149.931 173.969 158.012 182.893 163.573C191.817 169.134 202.188 171.924 212.698 171.591C223.207 171.258 233.381 167.816 241.935 161.702C250.489 155.587 257.037 147.074 260.754 137.238C264.47 127.402 265.186 116.686 262.813 106.443C261.236 99.6363 258.333 93.2076 254.27 87.5238C250.207 81.84 245.063 77.0127 239.134 73.3177C233.204 69.6228 226.604 67.1326 219.712 65.9897C212.819 64.8467 205.769 65.0733 198.964 66.6565ZM220.503 159.387C212.412 161.269 203.944 160.709 196.171 157.778C188.398 154.847 181.669 149.676 176.834 142.92C172 136.164 169.278 128.126 169.013 119.823C168.747 111.52 170.95 103.325 175.343 96.2737C179.736 89.2227 186.121 83.6329 193.691 80.2114C201.261 76.7898 209.676 75.6902 217.871 77.0516C226.066 78.413 233.674 82.1742 239.731 87.8596C245.788 93.545 250.023 100.899 251.9 108.992C254.416 119.838 252.522 131.239 246.634 140.689C240.747 150.139 231.348 156.864 220.503 159.387Z" fill="#A6A6A6"/>
<path d="M233.026 194.593L224.805 196.503C221.958 197.165 220.187 200.009 220.848 202.856L231.363 248.112C232.024 250.959 234.868 252.731 237.715 252.069L245.936 250.159C248.783 249.498 250.555 246.654 249.893 243.807L239.378 198.55C238.717 195.703 235.873 193.932 233.026 194.593Z" fill="#17233D"/>
<g opacity="0.3">
<path d="M251.9 108.975C253.776 117.064 253.212 125.528 250.278 133.296C247.344 141.065 242.172 147.789 235.417 152.618C228.662 157.448 220.626 160.166 212.326 160.429C204.027 160.692 195.835 158.488 188.788 154.096C181.74 149.704 176.154 143.32 172.734 135.753C169.314 128.186 168.215 119.775 169.575 111.583C170.935 103.391 174.694 95.7865 180.376 89.7307C186.058 83.6749 193.408 79.4398 201.497 77.561C206.869 76.3119 212.435 76.1338 217.876 77.0368C223.317 77.9397 228.527 79.9061 233.208 82.8234C237.889 85.7407 241.949 89.5519 245.156 94.039C248.363 98.5262 250.655 103.601 251.9 108.975Z" fill="white"/>
<path d="M252.93 120.807C252.31 131.861 247.352 142.224 239.134 149.643C230.916 157.061 220.102 160.936 209.042 160.425L252.93 120.807Z" fill="#EBEBEB"/>
<path d="M233.611 83.0892L173.492 137.35C171.997 134.37 170.863 131.222 170.116 127.973C169.242 124.25 168.889 120.424 169.07 116.604L213.456 76.5397C220.624 76.9615 227.564 79.2166 233.611 83.0892Z" fill="#EBEBEB"/>
<path d="M250.744 104.949L193.479 156.627C190.976 155.477 188.593 154.083 186.364 152.466L247.343 97.4372C248.728 99.8192 249.868 102.336 250.744 104.949Z" fill="#EBEBEB"/>
<path d="M238.227 86.5158L176.396 142.304C176.109 141.882 175.822 141.46 175.552 141.03L237.029 85.5536C237.451 85.8575 237.847 86.1698 238.227 86.5158Z" fill="#EBEBEB"/>
<path d="M199.454 78.0927L172.024 102.839C172.488 101.666 173.011 100.518 173.585 99.4037L195.892 79.2658C197.049 78.8354 198.239 78.4387 199.454 78.0927Z" fill="#EBEBEB"/>
</g>
<path d="M181.189 125.736C181.186 125.68 181.186 125.624 181.189 125.568C181.038 124.724 181.299 126.369 181.189 125.821C181.08 125.272 181.021 124.521 180.97 123.871C180.776 121.58 180.776 119.276 180.97 116.984C180.97 116.655 181.029 116.334 181.054 116.014C181.054 115.912 180.962 116.773 181.054 116.09L181.13 115.499C181.232 114.739 181.358 113.98 181.51 113.228C181.83 111.572 182.262 109.94 182.802 108.342C182.928 107.962 183.072 107.582 183.207 107.202C183.384 106.687 182.97 107.768 183.249 107.093L183.527 106.426C183.89 105.582 184.287 104.738 184.709 103.894C185.131 103.05 185.68 102.147 186.211 101.311C186.465 100.923 186.718 100.543 186.979 100.163C187.427 99.5134 186.768 100.425 187.114 99.9692L187.612 99.3108C189.149 97.3788 190.868 95.5982 192.744 93.9936C192.744 93.9936 193.132 93.6813 192.845 93.9177C192.558 94.154 192.997 93.7911 193.048 93.7489L193.892 93.0821C194.457 92.6601 195.031 92.2381 195.622 91.8667C196.859 91.0396 198.138 90.2762 199.454 89.5795C199.806 89.3578 200.111 89.0689 200.352 88.7292C200.593 88.3896 200.765 88.0058 200.857 87.5998C200.95 87.1938 200.961 86.7736 200.891 86.3632C200.821 85.9527 200.671 85.56 200.45 85.2076C200.228 84.8551 199.939 84.5498 199.599 84.309C199.26 84.0682 198.876 83.8967 198.47 83.8042C198.064 83.7117 197.644 83.7001 197.233 83.77C196.823 83.8399 196.43 83.99 196.078 84.2117C187.739 88.6595 180.886 95.6816 177.442 104.535C175.111 110.489 174.117 116.883 174.53 123.264C174.615 124.681 174.795 126.091 175.07 127.484C175.311 128.287 175.86 128.962 176.597 129.363C177.333 129.763 178.199 129.855 179.004 129.619C179.795 129.358 180.457 128.805 180.854 128.072C181.251 127.34 181.353 126.483 181.139 125.677L181.189 125.736Z" fill="white"/>
<path d="M183.992 134.717C184.166 135.305 184.163 135.933 183.981 136.519C183.799 137.106 183.448 137.625 182.971 138.012C182.494 138.399 181.913 138.636 181.301 138.693C180.69 138.749 180.075 138.624 179.535 138.331C178.995 138.039 178.554 137.593 178.267 137.05C177.981 136.507 177.861 135.891 177.925 135.28C177.988 134.669 178.231 134.091 178.623 133.618C179.015 133.145 179.538 132.799 180.126 132.624C180.518 132.506 180.928 132.466 181.335 132.508C181.741 132.549 182.135 132.671 182.495 132.866C182.854 133.06 183.171 133.324 183.428 133.642C183.685 133.959 183.877 134.325 183.992 134.717Z" fill="white"/>
<path d="M318.298 161.328C325.894 188.792 329.54 216.365 325.336 230.587C322.653 239.651 316.179 245.779 312.06 247.804C302.43 252.564 270.485 245.812 249.672 241.626C244.557 240.596 256.618 199.384 261.758 201.57C269.354 204.786 292.606 209.124 293.248 209.335C294.623 209.807 297.468 180.006 299.476 162.535C302.253 138.194 313.917 145.469 318.298 161.328Z" fill="#FFBE9D"/>
<path d="M209.675 193.721C207.413 197.409 210.35 200.785 210.35 200.785C208.422 201.749 206.893 203.359 206.029 205.334C204.67 208.879 209.632 212.567 209.632 212.567C207.842 213.983 206.521 215.907 205.843 218.087C204.881 221.615 209.362 226.046 209.362 226.046C208.437 228.255 208.338 230.724 209.084 233C211.32 239.001 220.9 240.968 226.977 242.284C233.053 243.601 251.52 241.609 255.082 241.592L263.817 202.659C263.817 202.659 238.236 189.028 230.901 188.505C224.664 188.083 212.215 189.585 209.675 193.721Z" fill="#FFBE9D"/>
<path d="M210.755 200.219C217.507 199.114 224.141 200.042 230.85 200.591C230.882 200.591 230.912 200.603 230.934 200.625C230.956 200.648 230.969 200.678 230.969 200.709C230.969 200.74 230.956 200.77 230.934 200.793C230.912 200.815 230.882 200.827 230.85 200.827C224.174 200.203 217.465 200.903 210.789 200.549C210.75 200.545 210.714 200.528 210.686 200.5C210.658 200.473 210.641 200.437 210.637 200.398C210.633 200.359 210.643 200.32 210.664 200.288C210.686 200.255 210.718 200.231 210.755 200.219Z" fill="#17233D"/>
<path d="M209.877 212.086C211.425 211.978 212.981 212.078 214.503 212.382C216.129 212.595 217.752 212.837 219.372 213.107C222.619 213.67 225.849 214.292 229.062 214.973C229.205 214.973 229.197 215.226 229.062 215.2C225.821 214.669 222.58 214.188 219.33 213.791C217.701 213.588 216.072 213.411 214.435 213.234C212.886 213.171 211.349 212.936 209.852 212.533C209.806 212.515 209.767 212.483 209.741 212.441C209.714 212.399 209.701 212.35 209.704 212.301C209.707 212.251 209.725 212.204 209.756 212.165C209.787 212.127 209.83 212.099 209.877 212.086Z" fill="#17233D"/>
<path d="M209.497 226.063C210.814 225.835 212.35 226.307 213.65 226.552C215.127 226.831 216.595 227.092 218.072 227.354C221.026 227.877 223.98 228.392 226.951 228.814C227.095 228.814 227.078 229.067 226.951 229.042C223.93 228.637 220.908 228.266 217.895 227.835C216.418 227.624 214.933 227.396 213.456 227.168C212.198 226.974 210.612 226.873 209.489 226.215C209.475 226.207 209.464 226.196 209.456 226.182C209.448 226.168 209.445 226.152 209.445 226.136C209.446 226.12 209.452 226.105 209.461 226.092C209.47 226.079 209.483 226.069 209.497 226.063Z" fill="#17233D"/>
<path d="M218.014 189.686C214.95 190.083 211.439 190.758 209.455 193.366C208.538 194.473 208.087 195.892 208.198 197.325C208.372 198.662 209.048 199.884 210.088 200.743C208.864 201.137 207.775 201.869 206.948 202.855C206.121 203.84 205.589 205.039 205.413 206.313C205.361 206.951 205.442 207.593 205.649 208.199C205.857 208.804 206.187 209.36 206.62 209.833C207.042 210.331 207.523 210.77 207.987 211.225C208.451 211.681 208.966 212.069 209.447 212.466C208.927 212.872 208.439 213.318 207.987 213.799C207.48 214.286 207.025 214.823 206.628 215.403C205.807 216.551 205.343 217.917 205.294 219.328C205.365 220.73 205.853 222.079 206.695 223.202C207.381 224.362 208.347 225.332 209.506 226.021C209.52 226.028 209.537 226.029 209.553 226.025C209.568 226.021 209.582 226.012 209.591 225.998C209.6 225.985 209.604 225.969 209.603 225.953C209.601 225.937 209.594 225.922 209.582 225.911C208.671 225.079 207.899 224.108 207.295 223.033C206.565 221.886 206.165 220.56 206.138 219.201C206.25 217.912 206.686 216.673 207.404 215.597C207.762 215.014 208.151 214.45 208.569 213.909C208.986 213.467 209.375 212.999 209.734 212.508C209.734 212.508 208.73 211.445 208.375 210.989C208.021 210.533 207.675 210.044 207.354 209.546C206.674 208.601 206.373 207.435 206.51 206.279C206.709 205.2 207.199 204.197 207.928 203.376C208.637 202.532 209.557 201.865 210.299 201.038C210.326 200.994 210.343 200.946 210.351 200.895C210.358 200.844 210.355 200.792 210.342 200.743C208.654 198.11 208.865 195.611 210.671 193.662C211.591 192.716 212.667 191.937 213.853 191.358C215.217 190.737 216.628 190.227 218.073 189.83C218.132 189.821 218.106 189.678 218.014 189.686Z" fill="#17233D"/>
<path d="M273.971 246.395C272.173 245.838 270.274 245.551 268.434 245.146C266.594 244.74 264.737 244.361 262.88 243.989C261.024 243.618 259.091 243.247 257.2 242.892C255.31 242.538 253.546 242.141 251.706 241.922C249.929 241.75 248.139 241.789 246.372 242.04C244.588 242.242 242.799 242.386 241.004 242.47C237.388 242.645 233.764 242.566 230.159 242.234C226.08 241.855 222.04 241.135 218.081 240.082C217.997 240.082 217.971 240.183 218.081 240.208C224.944 242.499 232.139 243.64 239.375 243.584C241.164 243.584 242.962 243.475 244.743 243.297C246.522 243.045 248.314 242.892 250.111 242.842C252.01 242.967 253.896 243.249 255.749 243.686C257.614 244.032 259.471 244.386 261.336 244.715C263.446 245.087 265.556 245.466 267.674 245.795C269.793 246.125 271.894 246.597 273.971 246.749C274.122 246.715 274.131 246.437 273.971 246.395Z" fill="#17233D"/>
<path d="M300.186 211.04C297.485 210.12 294.632 209.546 291.855 208.879C289.078 208.212 286.268 207.571 283.474 206.938C278.14 205.731 272.739 204.71 267.438 203.233C266.046 202.844 264.67 202.389 263.311 201.933C262.628 201.688 261.961 201.418 261.294 201.089C260.627 200.76 259.859 200.557 259.201 200.245C259.125 200.194 259.066 200.312 259.142 200.363C259.674 200.692 260.163 201.089 260.712 201.409C261.26 201.73 261.927 202.051 262.552 202.338C263.693 202.86 264.863 203.319 266.054 203.714C268.536 204.558 271.118 205.14 273.65 205.731C279.221 207.005 284.799 208.263 290.387 209.47C291.956 209.807 293.535 210.145 295.113 210.457C296.691 210.769 298.413 211.158 300.084 211.343C300.124 211.354 300.166 211.35 300.202 211.33C300.239 211.311 300.266 211.278 300.279 211.239C300.292 211.201 300.29 211.158 300.272 211.121C300.255 211.084 300.224 211.055 300.186 211.04Z" fill="#17233D"/>
<path d="M291.399 200.827L330.004 206.077C330.004 206.077 322.948 165.945 315.445 152.652C308.043 139.536 299.873 148.204 296.759 164.071C293.265 181.66 291.399 200.827 291.399 200.827Z" fill="#0940A8"/>
<path d="M327.109 200.262C326.029 200.009 324.923 199.848 323.843 199.612C322.762 199.376 321.724 199.215 320.661 199.046C318.492 198.709 316.314 198.405 314.137 198.11C309.849 197.519 305.57 196.869 301.266 196.422C298.818 196.151 296.379 195.789 293.931 195.578C293.913 195.578 293.896 195.585 293.884 195.597C293.871 195.61 293.864 195.627 293.864 195.645C293.864 195.663 293.871 195.68 293.884 195.693C293.896 195.705 293.913 195.713 293.931 195.713C298.194 196.708 302.54 197.451 306.861 198.152C311.183 198.852 315.436 199.511 319.741 199.983C320.948 200.11 322.155 200.27 323.37 200.329C324.585 200.388 325.86 200.498 327.1 200.523C327.135 200.524 327.169 200.512 327.194 200.488C327.22 200.464 327.234 200.431 327.236 200.397C327.237 200.362 327.224 200.328 327.2 200.303C327.176 200.278 327.144 200.263 327.109 200.262Z" fill="#17233D"/>
<path d="M348.26 54.6548C347.764 59.4027 345.959 63.9196 343.046 67.7012C340.132 71.4829 336.225 74.3806 331.761 76.071C327.297 77.7613 322.45 78.1778 317.763 77.274C313.076 76.3702 308.732 74.1816 305.216 70.9524L292.319 72.8514L298.776 61.7022C297.295 58.0734 296.662 54.1547 296.923 50.2442C297.185 46.3337 298.335 42.5343 300.286 39.135C302.236 35.7357 304.937 32.826 308.181 30.6273C311.425 28.4285 315.128 26.9985 319.008 26.4461C322.889 25.8937 326.844 26.2334 330.573 27.4393C334.302 28.6453 337.707 30.6858 340.529 33.4056C343.351 36.1254 345.515 39.4529 346.858 43.135C348.2 46.8171 348.686 50.757 348.277 54.6548H348.26Z" fill="white"/>
<path d="M348.259 54.6548C347.766 59.4063 345.966 63.9283 343.06 67.7199C341.634 69.6284 339.926 71.3101 337.996 72.708C334.162 75.5863 329.61 77.3555 324.838 77.8226C323.649 77.9338 322.453 77.9563 321.26 77.8901C320.065 77.8639 318.873 77.7397 317.698 77.5188C312.946 76.6483 308.53 74.471 304.945 71.231L305.249 71.3238L292.378 73.2988L291.441 73.4422L291.914 72.5982L298.328 61.4321V61.871C296.454 57.2591 295.939 52.2073 296.843 47.3119C297.747 42.4166 300.033 37.8821 303.431 34.2439C306.829 30.6056 311.196 28.0155 316.019 26.7792C320.841 25.543 325.916 25.7122 330.645 27.267C334.369 28.5324 337.763 30.6144 340.579 33.3607C343.389 36.0961 345.541 39.4344 346.871 43.1234C348.202 46.8123 348.677 50.7555 348.259 54.6548ZM348.259 54.6548C348.666 50.777 348.178 46.8575 346.832 43.198C345.486 39.5386 343.319 36.2366 340.496 33.5464C337.674 30.8561 334.272 28.8492 330.552 27.6801C326.832 26.511 322.894 26.2109 319.04 26.8028C315.214 27.3789 311.571 28.8224 308.389 31.0228C305.237 33.2422 302.607 36.1225 300.683 39.4628C298.782 42.8038 297.663 46.5318 297.408 50.3673C297.174 54.1972 297.794 58.0313 299.223 61.5925L299.316 61.8288L299.198 62.0398L292.707 73.1637L292.243 72.4801L305.148 70.6739H305.325L305.452 70.7921C308.899 74.014 313.174 76.2144 317.8 77.1474C318.951 77.3836 320.119 77.5276 321.294 77.5779C322.468 77.658 323.647 77.658 324.822 77.5779C327.174 77.3944 329.489 76.8831 331.7 76.0587C333.929 75.2475 336.026 74.1098 337.92 72.6827C338.874 71.9843 339.781 71.226 340.638 70.4123C341.473 69.5745 342.257 68.6866 342.984 67.7537C345.922 63.9604 347.749 59.4255 348.259 54.6548Z" fill="#263238"/>
<path d="M310.026 64.0147C310.01 63.6724 310.064 63.3304 310.184 63.0095C310.304 62.6885 310.488 62.3952 310.725 62.1475C310.961 61.8997 311.246 61.7025 311.561 61.568C311.876 61.4334 312.216 61.3642 312.558 61.3646C313.261 61.3646 313.935 61.6438 314.432 62.1408C314.929 62.6378 315.208 63.3119 315.208 64.0147C315.208 64.7176 314.929 65.3917 314.432 65.8887C313.935 66.3857 313.261 66.6649 312.558 66.6649C312.216 66.6653 311.876 66.5961 311.561 66.4615C311.246 66.3269 310.961 66.1298 310.725 65.882C310.488 65.6342 310.304 65.341 310.184 65.02C310.064 64.699 310.01 64.357 310.026 64.0147ZM311.098 57.9042L310.499 37.3865H314.601L313.968 57.8789L311.098 57.9042Z" fill="#286EF1"/>
<path d="M319.876 64.0147C319.86 63.6724 319.913 63.3304 320.034 63.0095C320.154 62.6885 320.338 62.3952 320.574 62.1475C320.811 61.8997 321.096 61.7025 321.411 61.568C321.726 61.4334 322.065 61.3642 322.408 61.3646C323.111 61.3646 323.785 61.6438 324.282 62.1408C324.779 62.6378 325.058 63.3119 325.058 64.0147C325.058 64.7176 324.779 65.3917 324.282 65.8887C323.785 66.3857 323.111 66.6649 322.408 66.6649C322.065 66.6653 321.726 66.5961 321.411 66.4615C321.096 66.3269 320.811 66.1298 320.574 65.882C320.338 65.6342 320.154 65.341 320.034 65.02C319.913 64.699 319.86 64.357 319.876 64.0147ZM320.948 57.9042L320.348 37.3865H324.45L323.851 57.9042H320.948Z" fill="#286EF1"/>
<path d="M329.692 64.0147C329.676 63.6724 329.729 63.3304 329.849 63.0095C329.97 62.6885 330.153 62.3952 330.39 62.1475C330.627 61.8997 330.912 61.7025 331.227 61.568C331.542 61.4334 331.881 61.3642 332.224 61.3646C332.927 61.3646 333.601 61.6438 334.098 62.1408C334.595 62.6378 334.874 63.3119 334.874 64.0147C334.874 64.7176 334.595 65.3917 334.098 65.8887C333.601 66.3857 332.927 66.6649 332.224 66.6649C331.881 66.6653 331.542 66.5961 331.227 66.4615C330.912 66.3269 330.627 66.1298 330.39 65.882C330.153 65.6342 329.97 65.341 329.849 65.02C329.729 64.699 329.676 64.357 329.692 64.0147ZM330.764 57.9042L330.164 37.3865H334.266L333.667 57.9042H330.764Z" fill="#286EF1"/>
</svg>
