<svg width="369" height="246" viewBox="0 0 369 246" fill="none" xmlns="http://www.w3.org/2000/svg">
<path d="M327.707 65.7311L327.564 65.4457C314.969 40.2849 289.109 24.2358 260.977 24.8508C259.993 24.8508 259.009 24.9148 258.025 24.9738C234.487 26.4498 212.495 39.5468 201.627 58.543C195.231 69.7163 192.131 83.143 181.681 91.3052C168.082 101.947 147.61 99.6988 129.721 96.8845C111.832 94.0703 88.5404 91.5955 74.9907 102.297C66.5086 108.998 55.0204 121.332 52.9589 135.536C48.6441 165.312 61.254 194.832 87.4973 203.895C115.413 213.528 162.36 220.726 192.239 219.171C234.118 216.996 276.76 206.414 305.926 179.609C332.405 155.265 342.034 102.213 327.707 65.7311Z" fill="#F5F8FF"/>
<path d="M120.2 114.39H68.9438V153.927H120.2V114.39Z" fill="#286EF1"/>
<path opacity="0.3" d="M120.2 114.39H68.9438V153.927H120.2V114.39Z" fill="black"/>
<path d="M107.36 153.647C107.315 153.647 107.276 144.835 107.276 133.967C107.276 123.098 107.315 114.287 107.36 114.287C107.404 114.287 107.443 123.098 107.443 133.967C107.443 144.835 107.404 153.647 107.36 153.647Z" fill="#263238"/>
<path d="M115.856 144.929H111.925V149.371H115.856V144.929Z" fill="#F5F5F5"/>
<path d="M90.4 114.494H84.5796V122.931H90.4V114.494Z" fill="#263238"/>
<path d="M90.4 145.372H84.5796V153.809H90.4V145.372Z" fill="#263238"/>
<path d="M119.758 114.39H119.625H119.241H117.765L112.318 114.414H94.3556H76.3877L70.9462 114.385H69.4702H69.0865H68.9536H69.0865H69.4702H70.9462L76.3877 114.36H94.3556H112.318L117.765 114.385H119.241H119.625L119.758 114.39Z" fill="#263238"/>
<path d="M162.872 114.341H111.615V153.878H162.872V114.341Z" fill="#286EF1"/>
<path d="M150.03 153.598C149.986 153.598 149.947 144.786 149.947 133.918C149.947 123.05 149.986 114.238 150.03 114.238C150.075 114.238 150.114 123.045 150.114 133.918C150.114 144.791 150.06 153.598 150.03 153.598Z" fill="#263238"/>
<path d="M158.527 144.879H154.596V149.322H158.527V144.879Z" fill="#F5F5F5"/>
<path opacity="0.5" d="M133.071 114.444H127.251V122.882H133.071V114.444Z" fill="white"/>
<path opacity="0.5" d="M133.071 145.322H127.251V153.76H133.071V145.322Z" fill="white"/>
<path d="M162.424 114.341H162.296H161.907H160.431L154.99 114.365H137.027H119.059L113.613 114.341H112.137H111.748H111.62H111.748H112.137H113.613L119.059 114.311L137.027 114.287L154.99 114.311L160.431 114.341H161.907H162.296H162.424Z" fill="#263238"/>
<path d="M165.75 74.8037H114.493V114.341H165.75V74.8037Z" fill="#286EF1"/>
<path d="M152.909 114.061C152.86 114.061 152.825 105.249 152.825 94.3807C152.825 83.5124 152.86 74.7007 152.909 74.7007C152.958 74.7007 152.992 83.5075 152.992 94.3807C152.992 105.254 152.953 114.061 152.909 114.061Z" fill="#263238"/>
<path d="M161.406 105.342H157.475V109.785H161.406V105.342Z" fill="#F5F5F5"/>
<path d="M135.949 74.9072H130.129V83.345H135.949V74.9072Z" fill="#263238"/>
<path d="M135.949 105.785H130.129V114.223H135.949V105.785Z" fill="#263238"/>
<path d="M165.312 74.7839C165.27 74.7913 165.227 74.7913 165.184 74.7839H164.796H163.32H157.878L139.915 74.8085L121.947 74.7839H116.501H115.025H114.636C114.594 74.7913 114.551 74.7913 114.508 74.7839H114.636H115.025H116.501L121.947 74.7544H139.915H157.878L163.32 74.7839H164.796H165.184H165.312Z" fill="#263238"/>
<path d="M160.269 197.947V193.317H65.5638C65.228 193.317 64.9059 193.45 64.668 193.687C64.4301 193.924 64.2957 194.246 64.2944 194.581V196.682C64.2957 197.018 64.4301 197.34 64.668 197.577C64.9059 197.814 65.228 197.947 65.5638 197.947H68.2009V200.052C68.2009 200.384 68.0693 200.702 67.8349 200.936C67.6005 201.17 67.2827 201.302 66.9512 201.302H65.5441C65.2135 201.302 64.8964 201.433 64.6622 201.666C64.428 201.9 64.2957 202.216 64.2944 202.547V204.672C64.2957 205.003 64.428 205.319 64.6622 205.553C64.8964 205.786 65.2135 205.917 65.5441 205.917H160.269V201.287H138.193V197.932L160.269 197.947ZM90.8969 197.947H96.5696V201.302H90.9018L90.8969 197.947ZM87.1134 201.302H81.4406V197.947H87.1183L87.1134 201.302ZM100.368 197.947H106.046V201.302H100.368V197.947ZM109.829 197.947H115.502V201.302H109.819L109.829 197.947ZM119.285 197.947H124.968V201.302H119.275L119.285 197.947ZM71.9942 197.947H77.667V201.302H71.9844L71.9942 197.947ZM134.419 201.302H128.732V197.947H134.409L134.419 201.302Z" fill="#455A64"/>
<path d="M236.608 118.183C236.763 118.025 236.885 117.837 236.966 117.631C237.048 117.425 237.088 117.204 237.083 116.982C237.078 116.761 237.03 116.542 236.94 116.339C236.85 116.137 236.72 115.954 236.558 115.802L220.583 100.703C220.264 100.403 219.843 100.236 219.405 100.236C218.967 100.236 218.546 100.403 218.226 100.703C218.059 100.859 217.924 101.047 217.829 101.256C217.735 101.464 217.683 101.69 217.677 101.919C217.671 102.148 217.711 102.376 217.795 102.59C217.878 102.803 218.003 102.998 218.163 103.163L224.534 109.864L221.218 113.057L219.491 111.684L207.442 125.485L201.002 119.29L193.238 142.124L194.778 173.12H212.637L211.388 136.284L223.368 119.222L223.461 115.163L226.905 111.635L234.33 118.267C234.652 118.554 235.072 118.705 235.503 118.69C235.933 118.674 236.342 118.493 236.642 118.183H236.608Z" fill="#263238"/>
<path d="M188.436 178.862C188.367 178.862 188.308 150.582 188.308 115.704C188.308 80.8259 188.367 52.5359 188.436 52.5359C188.505 52.5359 188.564 80.8111 188.564 115.704C188.564 150.596 188.49 178.862 188.436 178.862Z" fill="#263238"/>
<path d="M228.411 170.896L239.274 140.712L235.191 139.059V133.229L264.893 132.771C265.593 132.758 266.264 132.491 266.782 132.019C267.3 131.547 267.629 130.904 267.707 130.208L272.076 91.4286C272.174 90.5614 272.588 89.7606 273.238 89.1789C273.889 88.5972 274.731 88.2754 275.604 88.2749C276.082 88.2745 276.556 88.3709 276.996 88.5583C277.437 88.7458 277.834 89.0203 278.166 89.3655C278.497 89.7107 278.755 90.1194 278.925 90.5669C279.094 91.0145 279.171 91.4917 279.151 91.9698L277.488 131.93L292.996 132.014L293.522 139.3L247.658 141.096L235.698 170.464L228.411 170.896Z" fill="#455A64"/>
<path d="M235.245 170.158L196.633 170.463V173.036L212.628 172.83L238.103 172.633L299.869 163.915L292.868 137.268H251.048C250.325 137.257 249.61 137.423 248.966 137.75C248.321 138.078 247.766 138.557 247.348 139.148L235.245 170.158Z" fill="#263238"/>
<path d="M216.741 58.7252L188.697 148.235L188.894 173.135H197.784V148.392L220.78 58.9663L283.087 58.6169L295.003 151.767H302.034L287.535 59.2713C287.307 58.0614 286.663 56.9692 285.715 56.1832C284.768 55.3972 283.575 54.9668 282.344 54.9663H221.799C220.663 54.9658 219.558 55.3312 218.647 56.0083C217.736 56.6854 217.068 57.6382 216.741 58.7252Z" fill="#455A64"/>
<path d="M183.634 201.892V177.981L188.869 173.135L238.069 172.5L246.925 165.297C248.575 163.958 250.604 163.173 252.726 163.054L262.202 162.518C262.202 162.518 266.453 159.59 270.566 156.687C275.775 152.996 282.001 151.012 288.386 151.01H315.658C316.648 151.01 317.598 151.403 318.298 152.104C318.998 152.804 319.392 153.754 319.392 154.744V201.892H183.634Z" fill="#286EF1"/>
<path d="M319.382 194.188H183.152V202.05H319.382V194.188Z" fill="#263238"/>
<path d="M190.203 201.804C190.153 205.136 191.093 208.407 192.903 211.205C194.713 214.002 197.313 216.2 200.372 217.52C203.431 218.841 206.814 219.224 210.091 218.622C213.368 218.02 216.393 216.459 218.783 214.138C221.174 211.816 222.822 208.838 223.52 205.58C224.217 202.322 223.933 198.93 222.702 195.833C221.472 192.736 219.351 190.074 216.608 188.183C213.864 186.292 210.621 185.257 207.29 185.209C202.823 185.144 198.514 186.856 195.31 189.968C192.106 193.08 190.269 197.338 190.203 201.804Z" fill="#263238"/>
<path d="M190.207 201.765C190.207 201.765 190.207 201.789 190.207 201.804C190.182 206.246 191.912 210.518 195.021 213.691C198.13 216.863 202.366 218.68 206.807 218.745C211.249 218.81 215.536 217.118 218.736 214.037C221.936 210.957 223.79 206.737 223.895 202.296C223.895 202.296 223.895 202.266 223.895 202.252L190.207 201.765Z" fill="#263238"/>
<path d="M195.221 201.878C195.191 204.211 195.853 206.501 197.124 208.459C198.395 210.416 200.218 211.953 202.361 212.876C204.505 213.798 206.874 214.064 209.169 213.641C211.465 213.218 213.583 212.124 215.257 210.497C216.93 208.871 218.085 206.785 218.574 204.503C219.063 202.221 218.864 199.845 218.004 197.676C217.144 195.506 215.66 193.64 213.74 192.314C211.819 190.987 209.549 190.259 207.216 190.222C205.662 190.197 204.119 190.48 202.675 191.052C201.23 191.625 199.913 192.477 198.799 193.56C197.685 194.643 196.795 195.935 196.181 197.362C195.567 198.79 195.241 200.324 195.221 201.878Z" fill="#FAFAFA"/>
<path d="M207.216 190.222C205.662 190.197 204.119 190.48 202.675 191.052C201.23 191.625 199.913 192.477 198.799 193.56C197.685 194.643 196.795 195.935 196.181 197.362C195.567 198.79 195.241 200.324 195.221 201.878L218.871 202.217C218.896 200.664 218.614 199.12 218.041 197.676C217.468 196.232 216.616 194.915 215.533 193.8C214.45 192.686 213.158 191.796 211.731 191.182C210.304 190.568 208.769 190.242 207.216 190.222Z" fill="#F8FAFB"/>
<path d="M199.84 201.946C199.823 203.371 200.228 204.768 201.005 205.963C201.782 207.157 202.896 208.093 204.205 208.655C205.514 209.216 206.961 209.376 208.361 209.116C209.762 208.855 211.053 208.185 212.073 207.19C213.093 206.195 213.794 204.92 214.089 203.526C214.384 202.133 214.26 200.683 213.731 199.36C213.202 198.037 212.293 196.901 211.118 196.095C209.944 195.289 208.556 194.85 207.132 194.832C205.222 194.81 203.381 195.546 202.014 196.88C200.647 198.214 199.865 200.036 199.84 201.946Z" fill="#263238"/>
<path d="M272.632 201.804C272.583 205.136 273.523 208.407 275.333 211.205C277.143 214.002 279.742 216.2 282.802 217.52C285.861 218.841 289.243 219.224 292.521 218.622C295.798 218.02 298.823 216.459 301.213 214.138C303.604 211.816 305.252 208.838 305.949 205.58C306.647 202.322 306.362 198.93 305.132 195.833C303.902 192.736 301.781 190.074 299.037 188.183C296.294 186.292 293.051 185.257 289.719 185.209C285.253 185.144 280.944 186.856 277.74 189.968C274.535 193.08 272.698 197.338 272.632 201.804Z" fill="#263238"/>
<path d="M272.637 201.765C272.637 201.765 272.637 201.789 272.637 201.804C272.612 206.246 274.341 210.518 277.45 213.691C280.559 216.863 284.795 218.68 289.237 218.745C293.678 218.81 297.966 217.118 301.166 214.037C304.366 210.957 306.22 206.737 306.324 202.296C306.324 202.296 306.324 202.266 306.324 202.252L272.637 201.765Z" fill="#263238"/>
<path d="M277.65 201.878C277.621 204.211 278.283 206.501 279.554 208.459C280.825 210.416 282.647 211.953 284.791 212.876C286.935 213.798 289.304 214.064 291.599 213.641C293.894 213.218 296.012 212.124 297.686 210.497C299.36 208.871 300.514 206.785 301.003 204.503C301.492 202.221 301.294 199.845 300.434 197.676C299.573 195.506 298.089 193.64 296.169 192.314C294.249 190.987 291.979 190.259 289.645 190.222C288.092 190.197 286.549 190.48 285.104 191.052C283.66 191.625 282.343 192.477 281.229 193.56C280.114 194.643 279.225 195.935 278.611 197.362C277.997 198.79 277.67 200.324 277.65 201.878Z" fill="#FAFAFA"/>
<path d="M289.645 190.222C288.092 190.197 286.549 190.48 285.104 191.052C283.66 191.625 282.343 192.477 281.229 193.56C280.114 194.643 279.225 195.935 278.611 197.362C277.997 198.79 277.67 200.324 277.65 201.878L301.301 202.217C301.326 200.664 301.043 199.12 300.471 197.676C299.898 196.232 299.046 194.915 297.963 193.8C296.88 192.686 295.588 191.796 294.161 191.182C292.733 190.568 291.199 190.242 289.645 190.222Z" fill="#F8FAFB"/>
<path d="M282.275 201.947C282.258 203.37 282.663 204.767 283.439 205.961C284.215 207.155 285.328 208.092 286.636 208.653C287.945 209.215 289.39 209.376 290.79 209.117C292.19 208.857 293.482 208.188 294.502 207.195C295.522 206.202 296.225 204.928 296.522 203.535C296.819 202.143 296.696 200.693 296.169 199.371C295.643 198.048 294.736 196.91 293.563 196.103C292.391 195.295 291.005 194.853 289.581 194.832C288.634 194.819 287.693 194.992 286.813 195.342C285.933 195.693 285.131 196.213 284.452 196.874C283.774 197.535 283.232 198.323 282.858 199.193C282.485 200.064 282.286 200.999 282.275 201.947Z" fill="#263238"/>
<path d="M311.396 190.06C311.366 190.022 311.338 189.983 311.313 189.942L311.096 189.587L310.752 189.007C310.601 188.741 310.437 188.483 310.26 188.234C309.179 186.609 307.904 185.122 306.462 183.806C306.029 183.368 305.502 182.99 304.986 182.552C304.469 182.114 303.879 181.74 303.288 181.322C302.698 180.904 302.048 180.52 301.35 180.18C301.01 180.003 300.666 179.811 300.312 179.639L299.205 179.147C297.634 178.485 295.998 177.99 294.324 177.671C292.527 177.326 290.696 177.187 288.868 177.258C285.324 177.456 281.868 178.441 278.752 180.141L277.699 180.731C277.36 180.938 277.04 181.164 276.715 181.371C276.051 181.774 275.48 182.266 274.895 182.694C274.31 183.122 273.803 183.61 273.321 184.077C272.838 184.544 272.366 184.992 271.973 185.469C270.662 186.917 269.533 188.52 268.612 190.242C268.458 190.505 268.32 190.778 268.199 191.058C268.086 191.295 267.987 191.496 267.909 191.669L267.727 192.042C267.707 192.085 267.684 192.127 267.658 192.165C267.666 192.119 267.681 192.075 267.702 192.033L267.859 191.649L268.125 191.029C268.241 190.744 268.374 190.466 268.524 190.197C269.416 188.446 270.531 186.818 271.84 185.351C272.228 184.859 272.715 184.426 273.183 183.934C273.65 183.442 274.211 183.009 274.762 182.527C275.313 182.045 275.923 181.597 276.587 181.184C276.912 180.972 277.237 180.746 277.571 180.535L278.629 179.929C280.142 179.109 281.737 178.449 283.387 177.961C285.164 177.439 286.994 177.122 288.843 177.017C292.426 176.877 295.995 177.541 299.288 178.96L300.4 179.452C300.759 179.624 301.104 179.821 301.448 180.003C302.152 180.348 302.767 180.79 303.416 181.164C304.066 181.538 304.592 181.991 305.119 182.419C305.645 182.847 306.162 183.25 306.595 183.693C308.035 185.03 309.298 186.547 310.353 188.205C310.532 188.458 310.696 188.721 310.845 188.992L311.165 189.587C311.249 189.74 311.313 189.858 311.362 189.956C311.411 190.055 311.401 190.055 311.396 190.06Z" fill="#263238"/>
<path d="M229.041 193.159C229.012 193.118 228.989 193.074 228.972 193.027C228.933 192.923 228.878 192.79 228.81 192.623L228.544 191.969C228.426 191.713 228.293 191.418 228.145 191.088C227.288 189.229 226.22 187.474 224.962 185.858C223.128 183.436 220.787 181.443 218.104 180.018C216.497 179.233 214.793 178.666 213.036 178.331C211.154 177.943 209.235 177.768 207.314 177.809C205.393 177.836 203.482 178.082 201.617 178.542C199.882 178.977 198.209 179.63 196.638 180.486C193.954 181.912 191.555 183.818 189.558 186.109C188.23 187.662 187.075 189.354 186.114 191.157C185.769 191.797 185.509 192.298 185.346 192.633C185.268 192.795 185.199 192.923 185.149 193.022C185.131 193.067 185.106 193.111 185.076 193.15C185.085 193.101 185.101 193.055 185.125 193.012L185.302 192.613C185.45 192.259 185.696 191.752 186.025 191.103C186.957 189.27 188.096 187.55 189.42 185.976C191.414 183.649 193.823 181.712 196.525 180.264C198.111 179.398 199.8 178.737 201.553 178.296C203.437 177.831 205.368 177.581 207.309 177.553C209.251 177.519 211.19 177.704 213.09 178.104C214.866 178.448 216.589 179.027 218.212 179.826C220.917 181.277 223.269 183.306 225.1 185.77C226.352 187.405 227.404 189.184 228.234 191.068L228.608 191.959C228.701 192.22 228.785 192.451 228.849 192.623C228.913 192.795 228.957 192.928 228.992 193.036C229.013 193.075 229.029 193.117 229.041 193.159Z" fill="#263238"/>
<path d="M183.6 193.317H108.924V202.05H183.6V193.317Z" fill="#263238"/>
<path d="M181.578 197.021C181.578 197.451 181.45 197.872 181.211 198.229C180.972 198.587 180.633 198.866 180.235 199.03C179.838 199.195 179.401 199.238 178.979 199.154C178.557 199.07 178.17 198.863 177.865 198.559C177.561 198.255 177.354 197.867 177.27 197.446C177.186 197.024 177.229 196.586 177.394 196.189C177.559 195.792 177.837 195.452 178.195 195.213C178.553 194.974 178.973 194.847 179.403 194.847C179.98 194.847 180.533 195.076 180.941 195.484C181.349 195.891 181.578 196.445 181.578 197.021Z" fill="#455A64"/>
<path d="M182.621 54.2776H176.387V178.104H182.621V54.2776Z" fill="#455A64"/>
<path d="M271.269 185.159C271.269 185.228 260.76 185.287 247.801 185.287C234.842 185.287 224.333 185.228 224.333 185.159C224.333 185.09 234.837 185.031 247.801 185.031C260.765 185.031 271.269 185.09 271.269 185.159Z" fill="#263238"/>
<path d="M261.705 183.305C261.631 183.305 261.577 178.734 261.577 173.096C261.577 167.457 261.631 162.892 261.705 162.892C261.778 162.892 261.833 167.457 261.833 173.096C261.833 178.734 261.773 183.305 261.705 183.305Z" fill="#263238"/>
<path d="M188.441 51.4387H175.718V57.1164H188.441V51.4387Z" fill="#263238"/>
<path d="M183.6 177.081H175.408V193.425H183.6V177.081Z" fill="#263238"/>
<path d="M164.579 153.893H113.322V193.43H164.579V153.893Z" fill="#286EF1"/>
<path opacity="0.3" d="M164.579 153.893H113.322V193.43H164.579V153.893Z" fill="black"/>
<path d="M151.738 193.15C151.694 193.15 151.654 184.338 151.654 173.47C151.654 162.601 151.694 153.79 151.738 153.79C151.782 153.79 151.822 162.601 151.822 173.47C151.822 184.338 151.782 193.15 151.738 193.15Z" fill="#263238"/>
<path d="M160.235 184.431H156.304V188.874H160.235V184.431Z" fill="#F5F5F5"/>
<path d="M134.778 153.996H128.958V162.434H134.778V153.996Z" fill="#263238"/>
<path d="M134.778 184.874H128.958V193.312H134.778V184.874Z" fill="#263238"/>
<path d="M164.131 153.893H164.004H163.615H162.139L156.692 153.917L138.744 153.996H120.776L115.335 153.971H113.859H113.47H113.342C113.385 153.967 113.428 153.967 113.47 153.971H113.859H115.335L120.776 153.947L138.744 153.922L156.707 153.947L162.154 153.971H163.63H164.018C164.053 153.941 164.091 153.915 164.131 153.893Z" fill="#263238"/>
<path d="M110.813 153.893H59.5566V193.43H110.813V153.893Z" fill="#286EF1"/>
<path d="M97.9767 193.15C97.9275 193.15 97.8931 184.338 97.8931 173.47C97.8931 162.601 97.9275 153.79 97.9767 153.79C98.0259 153.79 98.0554 162.601 98.0554 173.47C98.0554 184.338 98.021 193.15 97.9767 193.15Z" fill="#263238"/>
<path d="M106.474 184.431H102.542V188.874H106.474V184.431Z" fill="#F5F5F5"/>
<path opacity="0.5" d="M81.0176 153.996H75.1973V162.434H81.0176V153.996Z" fill="white"/>
<path opacity="0.5" d="M81.0176 184.874H75.1973V193.312H81.0176V184.874Z" fill="white"/>
<path d="M110.37 153.893H110.237H109.854H108.378L102.936 153.918H84.9733H67.0054L61.559 153.893H60.083H59.6992H59.5664C59.6106 153.889 59.6551 153.889 59.6992 153.893H60.083H61.559L67.0054 153.868L84.9733 153.844L102.936 153.868L108.378 153.893H109.854H110.237C110.282 153.889 110.326 153.889 110.37 153.893Z" fill="#263238"/>
<path d="M321.532 164.638C324.174 165.278 326.393 167.959 326.348 170.68C326.292 172.043 325.791 173.35 324.921 174.4C324.051 175.45 322.86 176.186 321.532 176.495" fill="#286EF1"/>
<g opacity="0.6">
<path opacity="0.6" d="M321.532 164.638C324.174 165.278 326.393 167.959 326.348 170.68C326.292 172.043 325.791 173.35 324.921 174.4C324.051 175.45 322.86 176.186 321.532 176.495" fill="white"/>
</g>
<path d="M321.64 163.113H319.382V178.074H321.64V163.113Z" fill="#286EF1"/>
<path opacity="0.3" d="M321.64 163.113H319.382V178.074H321.64V163.113Z" fill="black"/>
<path d="M214.192 103.157C213.921 102.947 213.734 102.645 213.666 102.309C213.599 101.972 213.654 101.622 213.823 101.322C214.202 100.663 214.645 99.8857 214.847 99.561C215.093 99.1769 215.318 98.7794 215.521 98.3703C215.583 98.1258 215.713 97.9038 215.896 97.7298C216.078 97.5558 216.307 97.4367 216.554 97.3863C217.155 97.309 217.764 97.3272 218.359 97.4404L224.514 98.7688L227.383 100.186L224.593 102.646L223.043 102.154C222.576 102.557 220.751 102.769 220.131 102.695C219.339 102.597 217.754 102.08 216.854 102.252L215.983 102.375L216.396 102.72C217.153 102.665 217.911 102.82 218.586 103.167C218.694 103.24 218.776 103.345 218.822 103.466C218.867 103.588 218.874 103.721 218.84 103.847C218.807 103.972 218.735 104.085 218.634 104.167C218.534 104.25 218.41 104.3 218.281 104.309L216.259 104.442C215.711 104.185 215.185 103.885 214.684 103.546C214.527 103.408 214.363 103.278 214.192 103.157Z" fill="#FFBE9D"/>
<path d="M215.988 102.395C215.889 102.463 215.777 102.51 215.658 102.533C215.337 102.627 214.996 102.627 214.674 102.533C214.444 102.457 214.24 102.315 214.089 102.125C214.003 102.009 213.942 101.876 213.909 101.736C213.877 101.595 213.875 101.449 213.902 101.308C213.939 101.145 214.029 101 214.158 100.895C214.286 100.801 214.429 100.729 214.581 100.683C214.875 100.585 215.176 100.508 215.481 100.452C216.062 100.34 216.648 100.264 217.238 100.225C217.508 100.225 217.764 100.196 218.01 100.196H218.197H218.345C218.447 100.181 218.549 100.162 218.65 100.137C219.069 100.002 219.494 99.8888 219.924 99.7974C219.542 100.024 219.127 100.19 218.694 100.289C218.59 100.324 218.483 100.351 218.374 100.368C218.309 100.376 218.243 100.376 218.178 100.368H218.01C217.779 100.368 217.518 100.398 217.257 100.422C216.678 100.473 216.102 100.554 215.531 100.663C215.238 100.717 214.949 100.79 214.665 100.88C214.379 100.963 214.173 101.091 214.133 101.323C214.112 101.432 214.112 101.545 214.134 101.655C214.155 101.765 214.199 101.869 214.261 101.962C214.389 102.126 214.559 102.252 214.753 102.326C215.047 102.429 215.361 102.458 215.668 102.41C215.855 102.405 215.988 102.371 215.988 102.395Z" fill="#EB996E"/>
<path d="M216.751 99.187C216.82 99.187 216.938 99.492 216.815 99.8807C216.692 100.269 216.416 100.476 216.372 100.422C216.328 100.368 216.475 100.132 216.574 99.8069C216.672 99.4822 216.677 99.1969 216.751 99.187Z" fill="#EB996E"/>
<path d="M217.715 99.5756C217.784 99.5756 217.804 99.8216 217.631 100.068C217.459 100.314 217.228 100.333 217.203 100.264C217.179 100.196 217.307 100.077 217.43 99.9102C217.553 99.7429 217.641 99.5657 217.715 99.5756Z" fill="#EB996E"/>
<path d="M241.946 98.2029C242.792 97.8487 237.085 103.718 237.085 103.718L226.536 99.7822L222.812 102.07L234.153 110.055C235.318 110.877 236.739 111.255 238.159 111.119C239.578 110.984 240.903 110.345 241.892 109.317L248.588 101.578L241.946 98.2029Z" fill="#FFBE9D"/>
<path d="M248.13 74.6854C246.654 74.4001 245.739 73.9474 245.7 73.3816C245.621 72.2107 249.336 71.0102 254 70.6904C258.664 70.3706 262.502 71.0692 262.585 72.2353C262.62 72.8011 261.779 73.3718 260.371 73.849" fill="#286EF1"/>
<g opacity="0.4">
<path opacity="0.4" d="M248.952 74.5872C247.648 74.3412 246.797 73.9378 246.797 73.4359C246.797 72.0337 250.019 71.3302 254.152 71.0497C258.285 70.7693 261.695 71.3843 261.763 72.4224C261.798 72.9144 261.05 73.4064 259.795 73.8492" fill="black"/>
</g>
<path d="M246.822 72.7519C246.822 72.7519 247.693 67.709 247.781 67.458C247.87 67.2071 249.134 64.9439 252.475 64.0928L255.269 63.9009C255.269 63.9009 259.323 64.9095 260.111 65.8295C260.898 66.7496 261.528 71.4137 261.528 71.4137L253.577 70.2428L248.337 71.9008L246.822 72.7519Z" fill="#286EF1"/>
<path d="M253.351 63.4679L252.15 63.5467C251.87 63.9179 251.731 64.3763 251.756 64.8406C251.756 65.7115 251.968 71.6843 251.968 71.6843L255.461 71.2907L254.856 63.9304L256.061 64.1174L255.997 63.6992L255.658 63.3499L253.351 63.4679Z" fill="#286EF1"/>
<path d="M260.652 90.9561L252.091 91.1431C251.983 90.2427 252.062 84.6093 252.062 84.6093C252.062 84.6093 248.805 84.3239 248.544 81.1013C248.283 77.8787 248.342 71.404 248.342 71.404L248.377 71.1187C252.003 69.2638 256.317 68.8259 259.693 71.0891L260.185 71.4237L260.652 90.9561Z" fill="#FFBE9D"/>
<path d="M252.062 84.6239C253.552 84.5179 254.981 83.9869 256.18 83.0938C256.18 83.0938 255.289 85.5537 252.052 85.4603L252.062 84.6239Z" fill="#EB996E"/>
<path d="M260.037 74.784C260.091 74.784 262.206 73.982 262.285 76.1911C262.364 78.4002 260.13 78.0214 260.125 77.9623C260.12 77.9033 260.037 74.784 260.037 74.784Z" fill="#FFBE9D"/>
<path d="M260.76 77.1014C260.76 77.1014 260.799 77.1309 260.863 77.1555C260.909 77.1751 260.958 77.1852 261.008 77.1852C261.058 77.1852 261.107 77.1751 261.153 77.1555C261.293 77.0599 261.404 76.9287 261.476 76.7756C261.548 76.6225 261.577 76.453 261.562 76.2847C261.561 76.0952 261.518 75.9084 261.434 75.7385C261.41 75.6703 261.371 75.6088 261.319 75.5591C261.266 75.5094 261.203 75.4731 261.134 75.4532C261.089 75.4437 261.043 75.4498 261.003 75.4704C260.963 75.491 260.931 75.5249 260.912 75.5663C260.883 75.6303 260.912 75.6746 260.888 75.6795C260.863 75.6844 260.838 75.6451 260.853 75.5516C260.866 75.4965 260.895 75.4466 260.937 75.4089C260.996 75.361 261.072 75.3381 261.148 75.3449C261.24 75.3595 261.326 75.3975 261.399 75.4553C261.471 75.5131 261.527 75.5886 261.562 75.6746C261.667 75.8532 261.729 76.0535 261.744 76.2601C261.766 76.4586 261.726 76.6591 261.631 76.8349C261.537 77.0106 261.39 77.1534 261.212 77.2441C261.154 77.2644 261.092 77.2709 261.03 77.2632C260.969 77.2556 260.91 77.2338 260.858 77.1998C260.76 77.1555 260.76 77.1063 260.76 77.1014Z" fill="#EB996E"/>
<path d="M249.41 75.3843C249.423 75.5051 249.481 75.6168 249.572 75.6977C249.662 75.7785 249.78 75.8229 249.902 75.8221C250.02 75.8221 250.134 75.775 250.218 75.691C250.302 75.607 250.349 75.4932 250.349 75.3744C250.336 75.2535 250.278 75.1419 250.187 75.061C250.097 74.9801 249.979 74.9358 249.857 74.9365C249.739 74.9365 249.625 74.9837 249.541 75.0677C249.457 75.1516 249.41 75.2655 249.41 75.3843Z" fill="#263238"/>
<path d="M249.262 74.9313C249.321 74.9855 249.656 74.705 250.153 74.6706C250.65 74.6361 251.028 74.8625 251.078 74.7985C251.127 74.7345 251.033 74.6657 250.871 74.5623C250.645 74.4295 250.385 74.3678 250.123 74.3852C249.865 74.402 249.619 74.5002 249.42 74.6657C249.277 74.7837 249.233 74.9067 249.262 74.9313Z" fill="#263238"/>
<path d="M254.295 75.2021C254.298 75.2633 254.313 75.3233 254.34 75.3785C254.366 75.4338 254.404 75.4832 254.449 75.524C254.495 75.5647 254.549 75.596 254.607 75.6159C254.664 75.6358 254.726 75.644 254.787 75.64C254.846 75.64 254.903 75.6284 254.958 75.6058C255.012 75.5833 255.061 75.5502 255.102 75.5086C255.143 75.4669 255.176 75.4175 255.197 75.3632C255.219 75.309 255.23 75.2508 255.23 75.1923C255.227 75.1311 255.211 75.0711 255.185 75.0159C255.158 74.9606 255.121 74.9112 255.075 74.8704C255.03 74.8297 254.976 74.7984 254.918 74.7785C254.86 74.7586 254.799 74.7504 254.738 74.7544C254.679 74.7544 254.621 74.766 254.567 74.7886C254.513 74.8111 254.464 74.8442 254.423 74.8858C254.382 74.9275 254.349 74.9769 254.327 75.0312C254.305 75.0854 254.294 75.1436 254.295 75.2021Z" fill="#263238"/>
<path d="M254.142 74.6904C254.201 74.7495 254.531 74.469 255.028 74.4346C255.525 74.4002 255.904 74.6265 255.953 74.5625C256.002 74.4986 255.914 74.4297 255.746 74.3214C255.523 74.188 255.263 74.1278 255.003 74.1493C254.745 74.1637 254.498 74.2621 254.3 74.4297C254.157 74.5576 254.113 74.6658 254.142 74.6904Z" fill="#263238"/>
<path d="M252.593 78.4888C252.325 78.4285 252.051 78.3988 251.776 78.4002C251.648 78.4002 251.525 78.4002 251.5 78.292C251.48 78.1627 251.501 78.0302 251.559 77.9132L251.869 76.9292C252.158 76.088 252.381 75.2262 252.539 74.3511C252.179 75.1656 251.886 76.0081 251.663 76.8701C251.559 77.2145 251.461 77.5442 251.368 77.8541C251.303 78.0102 251.292 78.1835 251.338 78.3461C251.36 78.3891 251.391 78.4265 251.429 78.4555C251.468 78.4845 251.512 78.5043 251.559 78.5134C251.631 78.5227 251.704 78.5227 251.776 78.5134C252.048 78.5416 252.323 78.5333 252.593 78.4888Z" fill="#263238"/>
<path d="M254.074 78.7197C253.99 78.7197 254.029 79.256 253.582 79.6693C253.134 80.0826 252.598 80.0629 252.598 80.1613C252.598 80.2597 252.731 80.2548 252.977 80.2449C253.29 80.2265 253.588 80.0995 253.818 79.8858C254.038 79.6771 254.17 79.3918 254.187 79.0887C254.177 78.8575 254.108 78.7197 254.074 78.7197Z" fill="#263238"/>
<path d="M253.872 72.7568C253.931 72.8896 254.418 72.7912 255.004 72.8257C255.589 72.8601 256.071 72.9831 256.14 72.8552C256.209 72.7273 256.081 72.6731 255.884 72.5551C255.622 72.4093 255.328 72.3283 255.028 72.3189C254.728 72.3036 254.428 72.3592 254.153 72.4813C253.956 72.5846 253.872 72.6977 253.872 72.7568Z" fill="#263238"/>
<path d="M249.346 73.4849C249.444 73.5882 249.774 73.4505 250.187 73.416C250.6 73.3816 250.949 73.4406 251.023 73.3176C251.097 73.1946 250.989 73.1503 250.831 73.0519C250.619 72.9384 250.377 72.8904 250.137 72.9141C249.897 72.9377 249.67 73.0319 249.483 73.1848C249.346 73.3078 249.306 73.4308 249.346 73.4849Z" fill="#263238"/>
<path d="M260.268 72.693C260.243 73.5934 260.332 74.4937 260.307 75.3941C260.278 75.7342 260.192 76.0669 260.051 76.3781C260.005 76.5584 259.903 76.7195 259.76 76.8388C259.617 76.9581 259.44 77.0296 259.254 77.0431C259.068 77.0567 258.883 77.0117 258.724 76.9145C258.565 76.8173 258.441 76.6727 258.369 76.5011C258.193 76.1457 258.099 75.7558 258.093 75.3596C258.09 74.963 258.023 74.5694 257.896 74.1936C257.687 73.804 257.436 73.4378 257.149 73.1014C257.007 72.9304 256.908 72.729 256.857 72.513C256.807 72.2971 256.807 72.0724 256.858 71.8566C258.049 71.8201 259.228 72.1075 260.268 72.6881" fill="#263238"/>
<path d="M248.342 73.0917L248.288 71.2861L253.454 69.3574L260.169 70.8334L260.297 72.7719C256.417 71.3533 252.141 71.4677 248.342 73.0917Z" fill="#455A64"/>
<path d="M248.593 70.8822L248.377 71.1183L246.561 72.4418C248.938 71.6452 251.406 71.1494 253.907 70.9658C256.653 70.9032 259.397 71.1608 262.084 71.7333L259.486 70.4C259.064 70.0062 258.568 69.701 258.026 69.5024C257.484 69.3038 256.908 69.2159 256.332 69.2438L251.589 69.4701C251.022 69.4971 250.465 69.6356 249.951 69.8779C249.436 70.1202 248.975 70.4615 248.593 70.8822Z" fill="#286EF1"/>
<path d="M251.904 69.3079C251.991 68.4696 252.014 67.6258 251.973 66.784C251.993 65.9406 251.951 65.0969 251.845 64.26C251.752 65.0979 251.728 65.9422 251.776 66.784C251.752 67.6273 251.795 68.4713 251.904 69.3079Z" fill="#263238"/>
<path d="M256.056 64.1175C255.765 64.0103 255.461 63.944 255.151 63.9207C255.055 63.928 254.966 63.971 254.9 64.0412C254.835 64.1113 254.798 64.2035 254.797 64.2995L254.826 64.8309C254.861 65.2097 254.89 65.6131 254.925 66.0313C254.994 66.8874 255.072 67.6599 255.136 68.2158C255.15 68.5206 255.2 68.8228 255.284 69.1162C255.32 68.8138 255.32 68.5083 255.284 68.206C255.254 67.6451 255.2 66.8727 255.127 66.0215C255.087 65.5984 255.053 65.1949 255.018 64.8161C255.018 64.639 254.979 64.4668 254.964 64.2995C254.964 64.2411 254.984 64.1845 255.022 64.1401C255.06 64.0958 255.113 64.0668 255.171 64.0584C255.464 64.1019 255.76 64.1217 256.056 64.1175Z" fill="#263238"/>
<path d="M246.438 72.4272C246.438 72.4272 246.654 72.3189 247.053 72.1467C247.25 72.0582 247.491 71.9598 247.766 71.8073C248.086 71.642 248.359 71.3982 248.559 71.0988C248.79 70.7544 248.805 70.2968 249.051 69.9524C249.297 69.608 249.808 69.5539 250.31 69.5047C251.324 69.3916 252.44 69.3079 253.616 69.2587C254.792 69.2095 255.919 69.1997 256.937 69.2095C257.405 69.1704 257.872 69.2919 258.261 69.5539C258.418 69.7045 258.561 69.8692 258.689 70.0459L258.89 70.287L258.994 70.4001C259.036 70.4387 259.084 70.4702 259.136 70.4936C259.865 70.7839 260.46 70.9856 260.868 71.1185C261.075 71.2039 261.287 71.2763 261.503 71.335C261.455 71.3002 261.404 71.2705 261.35 71.2464C261.247 71.1972 261.095 71.1283 260.893 71.0447C260.499 70.8725 259.909 70.6658 259.2 70.3657C259.164 70.3487 259.129 70.3273 259.097 70.3018L259.004 70.1886L258.812 69.9475C258.678 69.7718 258.53 69.6073 258.369 69.4555C257.955 69.158 257.45 69.0153 256.942 69.0521C255.919 69.0521 254.792 69.0521 253.611 69.0865C252.431 69.121 251.304 69.2243 250.285 69.3473C250.033 69.367 249.783 69.4065 249.538 69.4654C249.302 69.5255 249.095 69.6665 248.952 69.8639C248.667 70.2673 248.667 70.7249 248.46 71.0299C248.279 71.316 248.029 71.5514 247.732 71.7138C247.471 71.8712 247.24 71.9844 247.038 72.0828C246.836 72.1812 246.699 72.2648 246.6 72.3239C246.542 72.3503 246.487 72.3851 246.438 72.4272Z" fill="#263238"/>
<path d="M247.166 72.6586C247.214 72.6384 247.258 72.6119 247.299 72.5799C247.382 72.5208 247.51 72.4421 247.678 72.3486C248.164 72.1068 248.673 71.9139 249.198 71.773C250.938 71.3161 252.733 71.1073 254.531 71.1531C255.589 71.1531 256.593 71.1531 257.483 71.1924C258.374 71.2318 259.21 71.3745 259.889 71.4876C260.194 71.5394 260.496 71.6067 260.794 71.6893C261.02 71.7303 261.233 71.8211 261.419 71.955C261.493 72.0138 261.552 72.0888 261.592 72.1741C261.632 72.2594 261.652 72.3528 261.65 72.447C261.678 72.3994 261.688 72.3439 261.68 72.2896C261.662 72.133 261.589 71.988 261.473 71.8812C261.286 71.7257 261.066 71.6162 260.829 71.5614C260.528 71.4681 260.223 71.3909 259.914 71.3302C259.115 71.1741 258.309 71.0608 257.498 70.9907C256.578 70.9218 255.564 70.9415 254.512 70.9366C252.696 70.8878 250.884 71.1184 249.139 71.6205C248.607 71.771 248.097 71.9876 247.619 72.265C247.49 72.3407 247.368 72.4279 247.255 72.5257C247.196 72.6143 247.161 72.6537 247.166 72.6586Z" fill="#263238"/>
<path d="M252.667 63.6647C252.83 63.6773 252.995 63.6773 253.158 63.6647L254.349 63.6204C254.812 63.6204 255.24 63.5466 255.535 63.5761C255.615 63.5792 255.693 63.5997 255.765 63.6363C255.836 63.6728 255.899 63.7245 255.948 63.7877C255.948 63.7877 255.948 63.7385 255.879 63.6745C255.785 63.5884 255.666 63.5349 255.54 63.522C255.142 63.491 254.742 63.491 254.344 63.522L253.154 63.5909C252.989 63.5971 252.826 63.6218 252.667 63.6647Z" fill="#FAFAFA"/>
<path d="M252.46 69.505C252.543 69.5135 252.627 69.5135 252.711 69.505H253.39C253.965 69.505 254.758 69.505 255.633 69.505L256.868 69.5345C257.198 69.5327 257.527 69.559 257.852 69.6132C258.073 69.6589 258.271 69.7788 258.413 69.9527C258.461 70.0182 258.501 70.0893 258.531 70.1643C258.522 70.0801 258.49 70.0001 258.438 69.933C258.298 69.7443 258.096 69.6117 257.867 69.5591C257.543 69.4963 257.213 69.4634 256.883 69.4607C256.504 69.4607 256.086 69.4312 255.648 69.4263C254.767 69.4263 253.975 69.4263 253.4 69.4509L252.721 69.4853C252.633 69.4841 252.546 69.4907 252.46 69.505Z" fill="#FAFAFA"/>
<path d="M255.053 68.629C255.06 68.5702 255.06 68.5107 255.053 68.4519C255.053 68.2895 255.009 68.1321 254.984 67.9599C254.93 67.5515 254.861 66.9759 254.797 66.3609C254.733 65.7459 254.699 65.1703 254.674 64.7619C254.674 64.5946 254.664 64.4306 254.645 64.2699C254.653 64.2112 254.653 64.1515 254.645 64.0928C254.637 64.1516 254.637 64.2111 254.645 64.2699C254.645 64.3831 254.645 64.5503 254.645 64.7619C254.645 65.1752 254.684 65.7459 254.743 66.3707C254.802 66.9956 254.886 67.5614 254.955 67.9648C254.989 68.1715 255.023 68.3338 255.048 68.4568C255.041 68.5141 255.043 68.5722 255.053 68.629Z" fill="#FAFAFA"/>
<path d="M259.146 70.5874C259.196 70.6161 259.249 70.6392 259.303 70.6563L259.736 70.8186L261.173 71.3106C261.438 71.3951 261.698 71.4953 261.95 71.6108C262.153 71.7039 262.315 71.8662 262.408 72.0683C262.469 72.206 262.484 72.3592 262.452 72.5062C262.418 72.6046 262.378 72.6538 262.388 72.6587C262.43 72.6188 262.462 72.57 262.482 72.516C262.538 72.3652 262.538 72.1995 262.482 72.0486C262.383 71.8302 262.208 71.6553 261.99 71.5566C261.736 71.4323 261.473 71.3287 261.203 71.2467L259.756 70.7547L259.318 70.6169C259.262 70.6001 259.204 70.5901 259.146 70.5874Z" fill="#FAFAFA"/>
<path d="M222.782 158.513L223.23 166.503C223.23 166.503 215.26 169.637 215.201 171.118L230.718 170.813L230.531 158.34L222.782 158.513Z" fill="#286EF1"/>
<g opacity="0.4">
<path opacity="0.4" d="M222.782 158.513L223.23 166.503C223.23 166.503 215.26 169.637 215.201 171.118L230.718 170.813L230.531 158.34L222.782 158.513Z" fill="black"/>
</g>
<path d="M228.012 165.735C228.163 165.777 228.293 165.873 228.376 166.004C228.46 166.136 228.491 166.294 228.465 166.448C228.429 166.6 228.335 166.731 228.204 166.816C228.073 166.9 227.915 166.931 227.762 166.901C227.599 166.86 227.458 166.759 227.367 166.619C227.276 166.478 227.241 166.308 227.27 166.143C227.324 165.99 227.436 165.863 227.582 165.79C227.728 165.717 227.896 165.702 228.052 165.75" fill="#F8FAFB"/>
<path d="M230.718 170.813L230.65 169.558L215.796 170.321C215.796 170.321 215.112 170.636 215.201 171.118L230.718 170.813Z" fill="#F8FAFB"/>
<path d="M222.979 166.429C222.979 166.502 223.358 166.527 223.737 166.763C224.116 166.999 224.322 167.314 224.391 167.285C224.46 167.255 224.337 166.817 223.875 166.542C223.412 166.266 222.959 166.36 222.979 166.429Z" fill="#263238"/>
<path d="M221.361 167.132C221.361 167.206 221.676 167.329 221.941 167.624C222.207 167.919 222.286 168.279 222.36 168.274C222.433 168.269 222.478 167.836 222.143 167.452C221.809 167.068 221.361 167.058 221.361 167.132Z" fill="#263238"/>
<path d="M220.475 169.1C220.544 169.1 220.642 168.731 220.441 168.323C220.239 167.914 219.88 167.752 219.85 167.831C219.821 167.91 220.042 168.111 220.205 168.451C220.367 168.79 220.416 169.09 220.475 169.1Z" fill="#263238"/>
<path d="M223.078 164.594C223.112 164.662 223.457 164.554 223.885 164.594C224.313 164.633 224.652 164.741 224.687 164.677C224.721 164.613 224.401 164.348 223.894 164.328C223.388 164.308 223.038 164.535 223.078 164.594Z" fill="#263238"/>
<g opacity="0.3">
<path opacity="0.3" d="M222.876 160.097L222.95 161.519L230.576 161.297L230.561 160.013L222.876 160.097Z" fill="black"/>
</g>
<path d="M223.019 162.985C223.273 163.052 223.541 163.052 223.796 162.985C224.074 162.926 224.344 162.837 224.603 162.719C224.755 162.646 224.903 162.563 225.046 162.473C225.13 162.421 225.208 162.358 225.277 162.286C225.324 162.231 225.351 162.161 225.356 162.089C225.36 162.016 225.341 161.944 225.301 161.883C225.263 161.831 225.212 161.788 225.154 161.759C225.096 161.73 225.032 161.715 224.967 161.716C224.868 161.713 224.77 161.728 224.677 161.76C224.507 161.801 224.342 161.861 224.185 161.937C223.924 162.063 223.685 162.229 223.476 162.429C223.127 162.768 223.009 163.054 223.033 163.069C223.058 163.083 223.24 162.852 223.599 162.577C223.81 162.413 224.042 162.277 224.288 162.173C224.431 162.112 224.579 162.063 224.731 162.025C224.893 161.976 225.031 161.976 225.075 162.025C225.119 162.075 225.075 162.065 225.075 162.114C225.025 162.167 224.969 162.213 224.908 162.252C224.777 162.34 224.64 162.421 224.499 162.493C224.262 162.617 224.013 162.72 223.757 162.798C223.506 162.84 223.259 162.902 223.019 162.985Z" fill="#263238"/>
<path d="M223.117 163.088C223.147 163.088 223.289 162.827 223.309 162.335C223.315 162.047 223.273 161.759 223.186 161.484C223.134 161.313 223.065 161.148 222.979 160.992C222.937 160.892 222.869 160.805 222.783 160.738C222.697 160.672 222.595 160.629 222.487 160.613C222.419 160.616 222.352 160.639 222.295 160.678C222.239 160.717 222.194 160.771 222.168 160.835C222.131 160.926 222.106 161.022 222.094 161.12C222.069 161.293 222.069 161.469 222.094 161.642C222.143 161.932 222.263 162.205 222.443 162.439C222.753 162.837 223.073 162.931 223.078 162.896C223.083 162.862 222.837 162.714 222.586 162.335C222.447 162.114 222.358 161.866 222.325 161.607C222.303 161.459 222.303 161.308 222.325 161.159C222.325 160.992 222.404 160.859 222.468 160.874C222.532 160.889 222.679 160.992 222.743 161.125C222.825 161.257 222.893 161.397 222.945 161.543C223.038 161.791 223.094 162.051 223.112 162.316C223.152 162.793 223.078 163.078 223.117 163.088Z" fill="#263238"/>
<path d="M264.696 124.579C264.696 124.579 262.998 133.278 260.184 133.401C256.74 133.548 231.722 133.893 231.722 133.893L233.208 161.745L222.295 161.484L217.956 134.035C217.471 131.573 217.883 129.018 219.117 126.833L219.206 126.68C220.138 125.146 221.449 123.878 223.013 122.997C224.576 122.115 226.34 121.65 228.135 121.647L248.912 121.332L264.696 124.579Z" fill="#263238"/>
<path d="M227.029 158.513L227.471 166.503C227.471 166.503 219.501 169.637 219.442 171.118L234.96 170.813L234.773 158.34L227.029 158.513Z" fill="#286EF1"/>
<path d="M232.254 165.735C232.404 165.777 232.534 165.873 232.617 166.004C232.701 166.136 232.733 166.294 232.706 166.448C232.671 166.6 232.578 166.733 232.446 166.817C232.315 166.902 232.156 166.932 232.003 166.901C231.84 166.86 231.699 166.759 231.608 166.619C231.517 166.478 231.482 166.308 231.511 166.143C231.566 165.99 231.678 165.863 231.823 165.79C231.969 165.717 232.137 165.702 232.293 165.75" fill="#F8FAFB"/>
<path d="M234.96 170.813L234.891 169.558L220.037 170.321C220.037 170.321 219.353 170.636 219.442 171.118L234.96 170.813Z" fill="#F8FAFB"/>
<path d="M227.22 166.429C227.22 166.502 227.604 166.527 227.978 166.763C228.352 166.999 228.564 167.314 228.632 167.285C228.701 167.255 228.578 166.817 228.116 166.542C227.653 166.266 227.201 166.36 227.22 166.429Z" fill="#263238"/>
<path d="M225.606 167.132C225.606 167.206 225.921 167.329 226.182 167.624C226.443 167.919 226.527 168.279 226.6 168.274C226.674 168.269 226.718 167.836 226.384 167.452C226.049 167.068 225.606 167.058 225.606 167.132Z" fill="#263238"/>
<path d="M224.716 169.1C224.79 169.1 224.883 168.731 224.681 168.323C224.48 167.914 224.121 167.752 224.091 167.831C224.062 167.91 224.283 168.111 224.445 168.451C224.608 168.79 224.642 169.09 224.716 169.1Z" fill="#263238"/>
<path d="M227.304 164.594C227.339 164.662 227.683 164.554 228.111 164.594C228.539 164.633 228.879 164.741 228.913 164.677C228.947 164.613 228.628 164.348 228.121 164.328C227.614 164.308 227.304 164.535 227.304 164.594Z" fill="#263238"/>
<g opacity="0.3">
<path opacity="0.3" d="M227.117 160.097L227.196 161.519L234.817 161.297L234.802 160.013L227.117 160.097Z" fill="black"/>
</g>
<path d="M227.26 162.985C227.515 163.052 227.782 163.052 228.037 162.985C228.315 162.926 228.586 162.837 228.844 162.719C228.997 162.647 229.145 162.565 229.287 162.473C229.371 162.421 229.449 162.358 229.518 162.286C229.565 162.231 229.593 162.161 229.597 162.089C229.601 162.016 229.582 161.944 229.543 161.883C229.504 161.831 229.454 161.788 229.395 161.759C229.337 161.73 229.273 161.715 229.208 161.716C229.109 161.713 229.011 161.728 228.918 161.76C228.748 161.801 228.583 161.861 228.426 161.937C228.166 162.062 227.929 162.228 227.722 162.429C227.368 162.768 227.23 163.054 227.275 163.069C227.319 163.083 227.481 162.852 227.84 162.577C228.052 162.413 228.283 162.277 228.529 162.173C228.673 162.112 228.821 162.063 228.972 162.025C229.134 161.976 229.272 161.976 229.316 162.025C229.361 162.075 229.316 162.065 229.316 162.114C229.267 162.167 229.21 162.213 229.149 162.252C229.018 162.34 228.881 162.421 228.741 162.493C228.503 162.617 228.254 162.72 227.998 162.798C227.747 162.84 227.5 162.902 227.26 162.985Z" fill="#263238"/>
<path d="M227.358 163.088C227.388 163.088 227.531 162.827 227.55 162.335C227.558 162.047 227.517 161.759 227.427 161.484C227.376 161.313 227.306 161.148 227.221 160.992C227.178 160.892 227.11 160.805 227.024 160.738C226.938 160.672 226.836 160.629 226.729 160.613C226.66 160.616 226.593 160.639 226.537 160.678C226.48 160.717 226.436 160.771 226.409 160.835C226.372 160.926 226.347 161.022 226.335 161.12C226.31 161.293 226.31 161.469 226.335 161.642C226.385 161.932 226.505 162.205 226.684 162.439C226.994 162.837 227.314 162.931 227.319 162.896C227.324 162.862 227.078 162.714 226.827 162.335C226.688 162.114 226.599 161.866 226.566 161.607C226.544 161.459 226.544 161.308 226.566 161.159C226.591 160.992 226.65 160.859 226.709 160.874C226.768 160.889 226.92 160.992 226.984 161.125C227.066 161.257 227.134 161.397 227.186 161.543C227.279 161.791 227.335 162.051 227.353 162.316C227.393 162.793 227.304 163.078 227.358 163.088Z" fill="#263238"/>
<path d="M267.432 124.579C267.432 124.579 265.739 133.278 262.92 133.401C259.476 133.548 234.458 133.893 234.458 133.893L235.978 161.745L225.065 161.484L220.701 134.035C220.217 131.573 220.629 129.018 221.863 126.833L221.951 126.68C222.884 125.146 224.196 123.877 225.76 122.995C227.325 122.114 229.09 121.65 230.886 121.647L251.658 121.332L267.432 124.579Z" fill="#263238"/>
<path d="M246.147 89.6573L249.444 111.541L247.215 121.381L267.456 127.34C269.286 124.722 269.355 116.412 269.291 110.533C269.178 100.171 269.636 99.6695 269.188 96.0336C268.74 92.3977 267.977 90.0656 266.059 88.9193L260.538 86.1001C260.538 86.1001 257.429 88.0681 255.535 87.9746C255.535 87.9746 253.286 88.0681 252.042 86.8725C252.042 86.8578 247.476 88.2354 246.147 89.6573Z" fill="#286EF1"/>
<path d="M246.148 89.6572L239.402 98.956L248.588 104.348L247.884 100.968L246.148 89.6572Z" fill="#286EF1"/>
<path d="M230.074 121.78C230.035 121.788 229.995 121.788 229.956 121.78L229.616 121.805C229.43 121.817 229.244 121.84 229.06 121.873C228.81 121.904 228.562 121.95 228.317 122.011C226.751 122.396 225.303 123.164 224.106 124.245C223.283 124.987 222.575 125.847 222.005 126.798C221.353 127.888 220.948 129.107 220.819 130.37C220.702 131.774 220.755 133.186 220.977 134.577C221.179 136.053 221.469 137.529 221.621 139.098C221.971 142.198 222.438 145.14 222.876 147.812C223.314 150.483 223.737 152.879 224.076 154.906C224.416 156.933 224.682 158.562 224.844 159.698C224.918 160.249 224.977 160.682 225.021 161.007C225.021 161.145 225.051 161.253 225.06 161.347C225.065 161.386 225.065 161.425 225.06 161.465C225.045 161.429 225.035 161.39 225.031 161.352C225.031 161.258 224.992 161.15 224.962 161.012L224.741 159.713C224.534 158.562 224.249 156.938 223.894 154.936C223.54 152.933 223.112 150.508 222.64 147.851C222.167 145.194 221.71 142.237 221.361 139.123C221.203 137.573 220.923 136.077 220.726 134.611C220.501 133.201 220.453 131.768 220.583 130.346C220.719 129.051 221.141 127.802 221.818 126.69C222.404 125.724 223.134 124.853 223.983 124.107C225.21 123.021 226.693 122.266 228.293 121.913C228.878 121.788 229.477 121.743 230.074 121.78Z" fill="#455A64"/>
<path d="M237.828 115.024C237.828 115.024 245.636 117.543 251.707 119.743C252.738 120.117 253.845 120.23 254.93 120.072C256.015 119.914 257.045 119.49 257.926 118.837C259.054 118.006 259.889 116.838 260.312 115.502L264.47 102.405L257.527 99.9741L252.888 111.748L235.619 109.48" fill="#FFBE9D"/>
<path d="M227.501 112.324L227.437 111.704C227.48 111.246 227.67 110.814 227.978 110.474C228.145 110.288 228.346 110.134 228.569 110.021L230.61 108.953C230.914 108.799 231.258 108.744 231.594 108.796L235.781 109.509L240.588 110.139L239.604 115.62L237.38 114.882C237.38 114.882 235.772 115.772 234.778 115.561C234.778 115.561 233.858 116.176 233.479 115.723C233.479 115.723 232.657 116.432 232.347 116.387C232.037 116.343 231.427 115.984 231.452 115.772L231.476 115.487C231.319 115.573 231.14 115.615 230.961 115.607C230.781 115.599 230.607 115.542 230.458 115.443C230.245 115.278 230.083 115.056 229.99 114.803C229.607 114.763 229.245 114.607 228.952 114.355C228.759 114.072 228.63 113.75 228.574 113.411C228.574 113.411 227.653 112.963 227.501 112.324Z" fill="#FFBE9D"/>
<path d="M230.59 110.341C230.62 110.341 230.669 110.567 230.566 110.912C230.413 111.348 230.161 111.742 229.828 112.063C229.459 112.442 229.114 112.752 228.903 113.007C228.691 113.263 228.578 113.44 228.544 113.426C228.509 113.411 228.544 113.194 228.76 112.899C229.021 112.534 229.316 112.195 229.641 111.886C229.948 111.583 230.204 111.233 230.399 110.848C230.531 110.552 230.546 110.341 230.59 110.341Z" fill="#EB996E"/>
<path d="M231.387 112.53C231.153 113.41 230.645 114.192 229.936 114.764C230.117 114.356 230.348 113.972 230.625 113.622C231.023 113.012 231.319 112.496 231.387 112.53Z" fill="#EB996E"/>
<path d="M232.455 113.977C232.514 114.016 232.342 114.37 232.067 114.774C231.791 115.177 231.525 115.472 231.466 115.428C231.407 115.384 231.585 115.03 231.855 114.631C232.126 114.233 232.396 113.937 232.455 113.977Z" fill="#EB996E"/>
<path d="M232.259 113.401C232.259 113.43 232.15 113.435 232.022 113.357C231.939 113.301 231.868 113.228 231.815 113.144C231.762 113.059 231.727 112.964 231.712 112.865C231.695 112.768 231.7 112.668 231.725 112.573C231.751 112.478 231.797 112.389 231.86 112.314C231.954 112.2 232.047 112.171 232.072 112.196C232.096 112.22 231.909 112.496 231.963 112.825C232.018 113.155 232.288 113.337 232.259 113.401Z" fill="#EB996E"/>
<path d="M233.424 114.872C233.424 114.902 233.336 114.907 233.228 114.872C233.159 114.831 233.098 114.776 233.051 114.711C233.004 114.646 232.97 114.572 232.952 114.493C232.922 114.408 232.918 114.315 232.942 114.227C232.965 114.139 233.015 114.06 233.085 114.001C233.213 113.913 233.311 113.972 233.301 114.001C233.247 114.052 233.209 114.118 233.191 114.191C233.174 114.263 233.178 114.339 233.203 114.41C233.257 114.661 233.454 114.808 233.424 114.872Z" fill="#EB996E"/>
<path d="M231.579 111.836C231.579 111.866 231.471 111.89 231.324 111.836C231.225 111.789 231.141 111.716 231.079 111.626C231.017 111.536 230.979 111.432 230.969 111.323C230.959 111.214 230.977 111.104 231.022 111.005C231.067 110.905 231.137 110.819 231.225 110.754C231.358 110.66 231.466 110.67 231.471 110.7C231.476 110.729 231.196 110.951 231.225 111.3C231.255 111.649 231.599 111.777 231.579 111.836Z" fill="#EB996E"/>
<path d="M264.504 90.6951C262.92 90.0063 260.966 90.6951 259.82 91.8956C258.674 93.0961 258.147 94.6656 257.655 96.1908C257.163 97.716 255.992 100.653 255.515 102.124L264.514 105.977C265.281 103.9 265.996 101.806 266.659 99.6938C267.22 97.9226 267.741 96.0136 267.092 94.2523" fill="#286EF1"/>
<path d="M267.092 94.2525C267.133 94.3203 267.164 94.3931 267.186 94.469C267.264 94.6811 267.322 94.9002 267.358 95.1234C267.499 95.9593 267.477 96.8146 267.294 97.6424C267.019 98.9029 266.655 100.142 266.207 101.352C265.715 102.759 265.223 104.329 264.637 106.016L264.593 106.139L264.465 106.085L258.128 103.379L255.461 102.238L255.353 102.188L255.387 102.09C256.116 99.945 256.927 97.9819 257.538 96.1861C257.805 95.3159 258.134 94.4659 258.522 93.6424C258.869 92.9075 259.346 92.2409 259.929 91.6744C260.82 90.8341 262 90.369 263.225 90.3756C263.56 90.386 263.892 90.4457 264.209 90.5527C264.316 90.59 264.42 90.6361 264.519 90.6904C264.104 90.5529 263.672 90.4767 263.235 90.4641C262.048 90.4899 260.915 90.9626 260.061 91.7876C259.506 92.3414 259.053 92.9894 258.723 93.7015C258.35 94.5215 258.034 95.3665 257.779 96.2304C257.183 98.0557 256.371 100.029 255.658 102.159L255.584 102.011L258.256 103.153L264.583 105.869L264.411 105.938C264.991 104.25 265.533 102.69 266.02 101.288C266.478 100.089 266.857 98.8613 267.156 97.6129C267.346 96.8074 267.393 95.9746 267.294 95.1529C267.191 94.5576 267.072 94.2574 267.092 94.2525Z" fill="#263238"/>
<path d="M255.56 116.24C255.53 116.24 255.461 115.748 255.156 114.847C254.969 114.316 254.719 113.809 254.413 113.337C254.023 112.716 253.486 112.2 252.849 111.836H252.873L243.127 110.567L237.223 109.775L234.659 109.421L232.431 109.061L231.447 108.909C231.171 108.86 230.887 108.91 230.645 109.052L229.38 109.662L228.578 110.04C228.487 110.091 228.389 110.129 228.288 110.154C228.372 110.093 228.461 110.038 228.554 109.991L229.336 109.573L230.581 108.924C230.848 108.763 231.163 108.701 231.471 108.747L232.455 108.884L234.684 109.209L237.252 109.544L243.156 110.316L252.888 111.649H252.918C253.584 112.034 254.141 112.583 254.536 113.243C254.839 113.731 255.078 114.255 255.25 114.803C255.358 115.146 255.444 115.496 255.506 115.851C255.538 115.978 255.556 116.109 255.56 116.24Z" fill="#EB996E"/>
<path d="M249.444 111.192C249.376 110.961 249.332 110.723 249.311 110.483C249.228 109.991 249.124 109.332 249.001 108.55C248.721 106.872 248.352 104.638 247.943 102.154C247.535 99.6693 247.161 97.4504 246.886 95.7579C246.763 94.9756 246.664 94.3212 246.586 93.8194C246.534 93.5833 246.508 93.3426 246.507 93.1011C246.588 93.3279 246.647 93.5618 246.684 93.7997L247.063 95.7284C247.373 97.3569 247.781 99.6053 248.199 102.124C248.618 104.643 248.962 106.882 249.183 108.52C249.296 109.342 249.37 109.996 249.415 110.488C249.447 110.721 249.457 110.957 249.444 111.192Z" fill="#263238"/>
<path d="M342.678 218.891C342.678 218.964 271.466 219.019 183.644 219.019C95.822 219.019 24.6001 218.964 24.6001 218.891C24.6001 218.817 95.7974 218.763 183.654 218.763C271.51 218.763 342.678 218.822 342.678 218.891Z" fill="#263238"/>
<path d="M34.1348 202.487C33.3427 203.555 31.8716 203.152 31.2074 202.487C30.5432 201.823 30.2726 200.834 30.0315 199.909C29.4854 197.799 28.9393 195.585 29.446 193.464C29.5689 192.819 29.8687 192.221 30.3119 191.737C30.5354 191.499 30.8175 191.323 31.1301 191.229C31.4427 191.134 31.7747 191.122 32.093 191.196C32.8359 191.413 33.2787 192.155 33.5985 192.859C34.5247 194.935 34.9801 197.189 34.9318 199.462C34.9708 200.527 34.6916 201.581 34.1299 202.487" fill="#286EF1"/>
<g opacity="0.2">
<path opacity="0.2" d="M34.1348 202.487C33.3427 203.555 31.8716 203.152 31.2074 202.487C30.5432 201.823 30.2726 200.834 30.0315 199.909C29.4854 197.799 28.9393 195.585 29.446 193.464C29.5689 192.819 29.8687 192.221 30.3119 191.737C30.5354 191.499 30.8175 191.323 31.1301 191.229C31.4427 191.134 31.7747 191.122 32.093 191.196C32.8359 191.413 33.2787 192.155 33.5985 192.859C34.5247 194.935 34.9801 197.189 34.9318 199.462C34.9708 200.527 34.6916 201.581 34.1299 202.487" fill="black"/>
</g>
<path d="M31.1337 207.914C29.875 207.283 28.4477 207.071 27.0599 207.309C26.3031 207.358 25.5837 207.656 25.0132 208.155C24.4917 208.702 24.3736 209.681 24.9394 210.178C25.3079 210.437 25.7543 210.562 26.2039 210.532C27.2863 210.532 28.4917 210.389 29.3379 211.063C29.8299 211.452 30.1349 212.077 30.7204 212.273C31.0132 212.351 31.3231 212.33 31.6029 212.214C31.8827 212.099 32.117 211.895 32.2702 211.634C32.5665 211.098 32.6458 210.47 32.4916 209.877C32.4312 209.468 32.2772 209.078 32.0417 208.737C31.8063 208.397 31.4956 208.115 31.1337 207.914Z" fill="#286EF1"/>
<path d="M36.1817 204.101C35.8032 203.581 35.5582 202.975 35.4682 202.338C35.3781 201.701 35.4457 201.051 35.6651 200.446C36.1083 199.238 36.8761 198.176 37.884 197.376C39.0427 196.403 40.3795 195.664 41.82 195.201C42.3774 194.993 42.9734 194.909 43.5666 194.955C43.8622 194.98 44.1473 195.076 44.3969 195.237C44.6465 195.397 44.853 195.616 44.9983 195.875C45.387 196.657 44.9688 197.587 44.5063 198.335C43.7267 199.667 42.8433 200.935 41.8643 202.128C41.0771 203.088 40.1816 204.032 39.0107 204.446C37.8397 204.859 36.6392 204.77 36.0587 203.954" fill="#286EF1"/>
<path d="M33.7463 218.891C33.7096 218.73 33.6914 218.564 33.6922 218.399C33.6627 218.035 33.6331 217.582 33.5938 217.046C33.545 216.386 33.4612 215.729 33.3429 215.078C33.1881 214.278 32.9693 213.491 32.6885 212.726C32.4146 211.959 32.0318 211.235 31.552 210.576C31.1616 210.042 30.6574 209.602 30.076 209.287C29.6819 209.077 29.2567 208.93 28.8165 208.854C28.6497 208.846 28.4845 208.818 28.3245 208.77C28.488 208.754 28.6529 208.754 28.8165 208.77C29.2736 208.817 29.7186 208.945 30.1301 209.149C30.7432 209.461 31.2768 209.908 31.6897 210.458C32.1885 211.125 32.5849 211.863 32.8656 212.647C33.1557 213.412 33.3779 214.201 33.5298 215.004C33.6399 215.668 33.7106 216.339 33.7414 217.011C33.7414 217.587 33.7709 218.05 33.7709 218.369C33.7802 218.544 33.7719 218.718 33.7463 218.891Z" fill="#263238"/>
<path d="M33.6823 217.848C33.6716 217.771 33.6716 217.693 33.6823 217.616C33.6823 217.444 33.6823 217.228 33.6823 216.962C33.6823 216.396 33.7217 215.57 33.7167 214.556C33.7167 212.519 33.6233 209.71 33.3674 206.615C33.1116 203.521 32.7327 200.711 32.3834 198.743C32.2998 198.251 32.2161 197.789 32.1325 197.395C32.0489 197.001 31.9898 196.657 31.9259 196.377C31.8619 196.096 31.8225 195.885 31.7881 195.737C31.7689 195.663 31.7574 195.587 31.7537 195.511C31.7537 195.511 31.7881 195.585 31.8275 195.727C31.8668 195.87 31.9308 196.101 31.9997 196.362C32.0685 196.623 32.1571 196.977 32.2457 197.371C32.3342 197.764 32.4326 198.217 32.5261 198.719C33.0175 201.322 33.3689 203.95 33.579 206.591C33.8348 209.69 33.9135 212.495 33.8742 214.551C33.8742 215.57 33.8151 216.396 33.7709 216.962C33.7709 217.228 33.7315 217.454 33.7167 217.616C33.7104 217.694 33.6989 217.771 33.6823 217.848Z" fill="#263238"/>
<path d="M33.8152 212.421C33.7947 212.192 33.7947 211.961 33.8152 211.732C33.8546 211.294 33.9284 210.66 34.076 209.887C34.4663 207.866 35.1007 205.9 35.9652 204.032C36.7978 202.145 37.9645 200.423 39.4093 198.95C39.6618 198.699 39.9296 198.464 40.2112 198.246C40.3342 198.148 40.4425 198.05 40.5507 197.971L40.8607 197.769C41.0466 197.638 41.2424 197.521 41.4461 197.42C40.7686 197.924 40.1228 198.47 39.5126 199.053C38.1089 200.538 36.9676 202.249 36.1374 204.116C35.6685 205.135 35.2659 206.184 34.932 207.255C34.6485 208.128 34.4104 209.014 34.2187 209.912C34.0563 210.679 33.9579 211.309 33.8939 211.742C33.883 211.97 33.8567 212.197 33.8152 212.421Z" fill="#263238"/>
</svg>
