<svg width="233" height="67" viewBox="0 0 233 67" fill="none" xmlns="http://www.w3.org/2000/svg">
<path d="M22.1325 49.6523C20.8663 49.6523 19.6182 49.4714 18.3882 49.1096C17.1943 48.7117 16.109 48.1871 15.1323 47.5359C14.1555 46.8847 13.3415 46.1612 12.6903 45.3653C12.0391 44.5332 11.605 43.7012 11.388 42.8691L12.9617 42.1637L12.7989 49.0011H6.34131V8.95343H13.0159V27.1322L11.8221 26.5896C12.003 25.7213 12.4009 24.9074 13.0159 24.1477C13.6671 23.3518 14.463 22.6463 15.4036 22.0313C16.3442 21.3801 17.3752 20.8737 18.4967 20.5119C19.6182 20.114 20.7577 19.915 21.9154 19.915C24.4839 19.915 26.745 20.5481 28.6985 21.8143C30.6883 23.0804 32.2439 24.835 33.3653 27.078C34.523 29.3209 35.1018 31.8714 35.1018 34.7294C35.1018 37.6235 34.5411 40.192 33.4196 42.435C32.2981 44.678 30.7425 46.4506 28.7528 47.753C26.7993 49.0192 24.5925 49.6523 22.1325 49.6523ZM20.7216 43.7916C22.241 43.7916 23.5976 43.4118 24.7914 42.6521C25.9853 41.8562 26.9259 40.789 27.6132 39.4504C28.3006 38.0757 28.6443 36.502 28.6443 34.7294C28.6443 32.9929 28.3006 31.4554 27.6132 30.1168C26.962 28.7783 26.0395 27.7292 24.8457 26.9694C23.6519 26.2097 22.2772 25.8299 20.7216 25.8299C19.166 25.8299 17.7912 26.2097 16.5974 26.9694C15.4036 27.7292 14.463 28.7783 13.7756 30.1168C13.0883 31.4554 12.7446 32.9929 12.7446 34.7294C12.7446 36.502 13.0883 38.0757 13.7756 39.4504C14.463 40.789 15.4036 41.8562 16.5974 42.6521C17.7912 43.4118 19.166 43.7916 20.7216 43.7916Z" fill="white"/>
<path d="M50.9824 49.6523C48.9203 49.6523 47.1296 49.2 45.6102 48.2956C44.0907 47.355 42.9331 46.0346 42.1372 44.3343C41.3413 42.5978 40.9434 40.5357 40.9434 38.1481V20.5119H47.618V36.7372C47.618 38.2566 47.8531 39.5589 48.3234 40.6442C48.7937 41.6934 49.4811 42.5073 50.3855 43.0862C51.2899 43.665 52.3752 43.9544 53.6414 43.9544C54.582 43.9544 55.4321 43.8097 56.1919 43.5203C56.9878 43.1947 57.6751 42.7606 58.2539 42.2179C58.8328 41.6391 59.285 40.9698 59.6106 40.2101C59.9362 39.4142 60.0989 38.5641 60.0989 37.6597V20.5119H66.7736V49.1096H60.2617L60.1532 43.1404L61.347 42.4893C60.9129 43.864 60.1713 45.094 59.1222 46.1793C58.1092 47.2284 56.8973 48.0786 55.4864 48.7297C54.0755 49.3448 52.5742 49.6523 50.9824 49.6523Z" fill="white"/>
<path d="M78.9378 61.5906L85.0155 47.5359L85.0698 51.9857L70.9609 20.5119H78.6665L86.535 39.1791C86.7882 39.6494 87.0414 40.2825 87.2947 41.0784C87.5479 41.8381 87.765 42.5978 87.9458 43.3575L86.5892 43.7916C86.8425 43.1043 87.1138 42.3807 87.4032 41.621C87.6926 40.8251 87.9639 40.0112 88.2172 39.1791L94.946 20.5119H102.706L90.7676 49.1096L85.8838 61.5906H78.9378Z" fill="white"/>
<path d="M117.844 49.6523C115.311 49.6523 113.032 49.0192 111.006 47.753C109.017 46.4506 107.425 44.696 106.231 42.4893C105.073 40.2463 104.495 37.6778 104.495 34.7836C104.495 31.9257 105.073 29.3752 106.231 27.1322C107.389 24.8893 108.962 23.1347 110.952 21.8685C112.978 20.5662 115.257 19.915 117.79 19.915C119.164 19.915 120.485 20.132 121.751 20.5662C123.053 21.0003 124.211 21.5972 125.224 22.3569C126.237 23.0804 127.033 23.8944 127.612 24.7988C128.227 25.7033 128.57 26.6439 128.643 27.6206L126.852 27.8377V8.95343H133.526V49.1096H127.069L126.906 42.3807L128.208 42.4893C128.172 43.3937 127.847 44.2619 127.232 45.094C126.653 45.926 125.893 46.6858 124.953 47.3731C124.012 48.0605 122.909 48.6212 121.642 49.0553C120.412 49.4533 119.146 49.6523 117.844 49.6523ZM119.146 44.0087C120.702 44.0087 122.076 43.6107 123.27 42.8148C124.464 42.019 125.387 40.9337 126.038 39.5589C126.725 38.1842 127.069 36.5925 127.069 34.7836C127.069 33.011 126.725 31.4373 126.038 30.0626C125.387 28.6517 124.464 27.5664 123.27 26.8066C122.076 26.0108 120.702 25.6128 119.146 25.6128C117.591 25.6128 116.216 26.0108 115.022 26.8066C113.828 27.5664 112.888 28.6517 112.2 30.0626C111.549 31.4373 111.223 33.011 111.223 34.7836C111.223 36.5925 111.549 38.1842 112.2 39.5589C112.888 40.9337 113.828 42.019 115.022 42.8148C116.216 43.6107 117.591 44.0087 119.146 44.0087Z" fill="white"/>
<path d="M154.507 49.6523C151.504 49.6523 148.845 49.0192 146.53 47.753C144.251 46.4868 142.46 44.7684 141.157 42.5978C139.891 40.391 139.258 37.8767 139.258 35.0549C139.258 32.812 139.62 30.768 140.343 28.923C141.067 27.078 142.062 25.4862 143.328 24.1477C144.63 22.7729 146.168 21.7238 147.941 21.0003C149.749 20.2406 151.721 19.8607 153.855 19.8607C155.737 19.8607 157.491 20.2225 159.119 20.946C160.747 21.6696 162.158 22.6644 163.352 23.9306C164.546 25.1606 165.45 26.6439 166.065 28.3803C166.716 30.0806 167.024 31.9437 166.988 33.9696L166.933 36.303H143.762L142.514 31.7448H161.344L160.476 32.6673V31.4734C160.367 30.352 160.006 29.3752 159.391 28.5431C158.776 27.6749 157.98 27.0056 157.003 26.5353C156.062 26.0288 155.013 25.7756 153.855 25.7756C152.083 25.7756 150.581 26.1193 149.351 26.8066C148.158 27.494 147.253 28.4889 146.638 29.7912C146.023 31.0574 145.716 32.6492 145.716 34.5666C145.716 36.4116 146.096 38.0214 146.855 39.3962C147.651 40.7709 148.755 41.8381 150.165 42.5978C151.613 43.3213 153.295 43.6831 155.212 43.6831C156.551 43.6831 157.781 43.466 158.902 43.0319C160.024 42.5978 161.236 41.82 162.538 40.6985L165.848 45.311C164.871 46.2155 163.75 46.9933 162.484 47.6444C161.254 48.2594 159.951 48.7478 158.577 49.1096C157.202 49.4714 155.845 49.6523 154.507 49.6523Z" fill="white"/>
<path d="M182.45 49.6523C179.917 49.6523 177.638 49.2362 175.612 48.4042C173.623 47.5359 171.995 46.3059 170.729 44.7141L175.07 40.9698C176.155 42.1998 177.367 43.0862 178.705 43.6288C180.044 44.1715 181.455 44.4428 182.938 44.4428C183.553 44.4428 184.096 44.3704 184.566 44.2257C185.073 44.081 185.507 43.864 185.868 43.5746C186.23 43.2851 186.502 42.9596 186.682 42.5978C186.9 42.1998 187.008 41.7657 187.008 41.2954C187.008 40.4272 186.682 39.7398 186.031 39.2334C185.67 38.9801 185.091 38.7088 184.295 38.4194C183.535 38.13 182.54 37.8405 181.31 37.5511C179.357 37.0447 177.729 36.4658 176.426 35.8147C175.124 35.1273 174.111 34.3676 173.388 33.5355C172.773 32.8482 172.302 32.0704 171.977 31.2021C171.687 30.3339 171.543 29.3933 171.543 28.3803C171.543 27.1141 171.814 25.9746 172.356 24.9616C172.935 23.9125 173.713 23.0081 174.69 22.2484C175.667 21.4887 176.806 20.9098 178.109 20.5119C179.411 20.114 180.768 19.915 182.178 19.915C183.626 19.915 185.018 20.0959 186.357 20.4576C187.732 20.8194 188.998 21.344 190.155 22.0313C191.349 22.6825 192.362 23.4784 193.194 24.419L189.504 28.4889C188.817 27.8377 188.057 27.2589 187.225 26.7524C186.429 26.2459 185.615 25.848 184.783 25.5585C183.951 25.233 183.173 25.0702 182.45 25.0702C181.762 25.0702 181.147 25.1425 180.605 25.2872C180.062 25.3958 179.61 25.5766 179.248 25.8299C178.886 26.0831 178.597 26.4087 178.38 26.8066C178.199 27.1684 178.109 27.6025 178.109 28.109C178.145 28.5431 178.253 28.9592 178.434 29.3571C178.651 29.7189 178.941 30.0264 179.302 30.2796C179.7 30.5329 180.297 30.8223 181.093 31.1479C181.889 31.4734 182.92 31.7809 184.186 32.0704C185.959 32.5407 187.442 33.0652 188.636 33.644C189.83 34.2229 190.77 34.8921 191.458 35.6519C192.145 36.303 192.634 37.0627 192.923 37.931C193.212 38.7992 193.357 39.7579 193.357 40.807C193.357 42.5073 192.869 44.0268 191.892 45.3653C190.951 46.7038 189.649 47.753 187.985 48.5127C186.357 49.2724 184.512 49.6523 182.45 49.6523Z" fill="white"/>
<path d="M205.477 40.3729L204.175 34.1324L217.741 20.5119H226.641L205.477 40.3729ZM199.237 49.1096V8.95343H205.911V49.1096H199.237ZM218.555 49.1096L208.028 36.3573L212.749 32.3417L226.803 49.1096H218.555Z" fill="white"/>
</svg>
