<svg width="82" height="20" viewBox="0 0 82 20" fill="none" xmlns="http://www.w3.org/2000/svg">
<path d="M6.05111 14.9899C5.58596 14.9899 5.12745 14.9234 4.67559 14.7905C4.23702 14.6443 3.83831 14.4516 3.47948 14.2124C3.12065 13.9732 2.82163 13.7074 2.5824 13.415C2.34318 13.1093 2.1837 12.8037 2.10396 12.498L2.68208 12.2388L2.62227 14.7507H0.25V0.0385742H2.70201V6.71682L2.26344 6.51747C2.32989 6.19851 2.47608 5.89949 2.70201 5.6204C2.94124 5.32801 3.23362 5.06886 3.57916 4.84293C3.9247 4.60371 4.30347 4.41765 4.71546 4.28475C5.12745 4.13855 5.54609 4.06546 5.97137 4.06546C6.91496 4.06546 7.74559 4.29803 8.46325 4.76319C9.19421 5.22834 9.76568 5.87291 10.1777 6.69689C10.603 7.52087 10.8156 8.45782 10.8156 9.50774C10.8156 10.5709 10.6096 11.5145 10.1976 12.3385C9.78561 13.1625 9.21414 13.8137 8.48319 14.2922C7.76552 14.7573 6.95483 14.9899 6.05111 14.9899ZM5.5328 12.8369C6.09098 12.8369 6.58936 12.6973 7.02793 12.4183C7.4665 12.1259 7.81204 11.7338 8.06455 11.2421C8.31706 10.7371 8.44332 10.1589 8.44332 9.50774C8.44332 8.86981 8.31706 8.30499 8.06455 7.81325C7.82533 7.32152 7.48643 6.93611 7.04786 6.65702C6.60929 6.37793 6.10427 6.23838 5.5328 6.23838C4.96132 6.23838 4.4563 6.37793 4.01773 6.65702C3.57916 6.93611 3.23362 7.32152 2.98111 7.81325C2.72859 8.30499 2.60234 8.86981 2.60234 9.50774C2.60234 10.1589 2.72859 10.7371 2.98111 11.2421C3.23362 11.7338 3.57916 12.1259 4.01773 12.4183C4.4563 12.6973 4.96132 12.8369 5.5328 12.8369Z" fill="#286EF1"/>
<path d="M16.6496 14.9899C15.892 14.9899 15.2342 14.8238 14.676 14.4915C14.1178 14.146 13.6925 13.6609 13.4001 13.0362C13.1078 12.3983 12.9616 11.6408 12.9616 10.7636V4.28475H15.4136V10.2453C15.4136 10.8035 15.5 11.282 15.6727 11.6807C15.8455 12.0661 16.098 12.3651 16.4303 12.5777C16.7625 12.7904 17.1612 12.8967 17.6264 12.8967C17.9719 12.8967 18.2842 12.8435 18.5633 12.7372C18.8557 12.6176 19.1082 12.4581 19.3209 12.2588C19.5335 12.0461 19.6996 11.8003 19.8192 11.5212C19.9388 11.2288 19.9987 10.9165 19.9987 10.5842V4.28475H22.4507V14.7905H20.0585L20.0186 12.5977L20.4572 12.3585C20.2977 12.8635 20.0252 13.3153 19.6398 13.714C19.2677 14.0994 18.8225 14.4118 18.3042 14.651C17.7859 14.8769 17.2343 14.9899 16.6496 14.9899Z" fill="#286EF1"/>
<path d="M26.9194 19.3756L29.1521 14.2124L29.1721 15.8471L23.9889 4.28475H26.8197L29.7103 11.1424C29.8033 11.3152 29.8964 11.5478 29.9894 11.8401C30.0824 12.1192 30.1622 12.3983 30.2286 12.6774L29.7302 12.8369C29.8233 12.5844 29.9229 12.3186 30.0293 12.0395C30.1356 11.7471 30.2353 11.4481 30.3283 11.1424L32.8002 4.28475H35.651L31.2652 14.7905L29.4711 19.3756H26.9194Z" fill="#286EF1"/>
<path d="M41.2121 14.9899C40.2818 14.9899 39.4445 14.7573 38.7002 14.2922C37.9693 13.8137 37.3845 13.1691 36.946 12.3585C36.5207 11.5345 36.308 10.5909 36.308 9.52767C36.308 8.47776 36.5207 7.54081 36.946 6.71682C37.3712 5.89284 37.9494 5.24827 38.6803 4.78312C39.4246 4.30468 40.2618 4.06546 41.1921 4.06546C41.6972 4.06546 42.1822 4.1452 42.6474 4.30468C43.1258 4.46416 43.5511 4.68345 43.9232 4.96254C44.2954 5.22834 44.5877 5.52736 44.8004 5.85962C45.0263 6.19187 45.1526 6.53741 45.1791 6.89624L44.5213 6.97598V0.0385742H46.9733V14.7905H44.601L44.5412 12.3186L45.0197 12.3585C45.0064 12.6907 44.8868 13.0097 44.6608 13.3153C44.4482 13.621 44.1691 13.9001 43.8236 14.1526C43.478 14.4051 43.0727 14.6111 42.6075 14.7706C42.1557 14.9168 41.6905 14.9899 41.2121 14.9899ZM41.6905 12.9166C42.262 12.9166 42.767 12.7704 43.2056 12.4781C43.6441 12.1857 43.983 11.787 44.2223 11.282C44.4748 10.7769 44.601 10.1922 44.601 9.52767C44.601 8.87646 44.4748 8.29834 44.2223 7.79332C43.983 7.27501 43.6441 6.87631 43.2056 6.59721C42.767 6.30483 42.262 6.15864 41.6905 6.15864C41.119 6.15864 40.614 6.30483 40.1754 6.59721C39.7369 6.87631 39.3913 7.27501 39.1388 7.79332C38.8996 8.29834 38.78 8.87646 38.78 9.52767C38.78 10.1922 38.8996 10.7769 39.1388 11.282C39.3913 11.787 39.7369 12.1857 40.1754 12.4781C40.614 12.7704 41.119 12.9166 41.6905 12.9166Z" fill="#286EF1"/>
<path d="M54.6807 14.9899C53.5776 14.9899 52.6008 14.7573 51.7502 14.2922C50.913 13.827 50.2551 13.1957 49.7767 12.3983C49.3115 11.5876 49.0789 10.664 49.0789 9.62735C49.0789 8.80336 49.2119 8.05247 49.4777 7.37468C49.7435 6.69689 50.1089 6.11213 50.5741 5.6204C51.0525 5.11537 51.6173 4.72996 52.2686 4.46416C52.9331 4.18507 53.6574 4.04552 54.4415 4.04552C55.1326 4.04552 55.7771 4.17842 56.3752 4.44423C56.9732 4.71003 57.4916 5.0755 57.9301 5.54066C58.3687 5.99252 58.7009 6.53741 58.9269 7.17533C59.1661 7.79996 59.2791 8.4844 59.2658 9.22864L59.2458 10.0859H50.7336L50.2751 8.41131H57.1925L56.8736 8.7502V8.31163C56.8337 7.89964 56.7008 7.54081 56.4749 7.23514C56.2489 6.91618 55.9566 6.67031 55.5977 6.49754C55.2522 6.31148 54.8668 6.21845 54.4415 6.21845C53.7903 6.21845 53.2387 6.3447 52.7869 6.59721C52.3483 6.84973 52.016 7.2152 51.7901 7.69364C51.5642 8.1588 51.4512 8.74356 51.4512 9.44793C51.4512 10.1257 51.5908 10.7171 51.8699 11.2222C52.1622 11.7272 52.5676 12.1192 53.0859 12.3983C53.6175 12.6641 54.2355 12.797 54.9399 12.797C55.4316 12.797 55.8835 12.7173 56.2954 12.5578C56.7074 12.3983 57.1527 12.1126 57.6311 11.7006L58.8471 13.3951C58.4883 13.7273 58.0763 14.0131 57.6112 14.2523C57.1593 14.4782 56.6809 14.6576 56.1758 14.7905C55.6708 14.9234 55.1724 14.9899 54.6807 14.9899Z" fill="#286EF1"/>
<path d="M64.946 14.9899C64.0157 14.9899 63.1784 14.837 62.4342 14.5314C61.7032 14.2124 61.1052 13.7606 60.64 13.1758L62.2349 11.8003C62.6336 12.2521 63.0788 12.5777 63.5705 12.7771C64.0622 12.9764 64.5805 13.0761 65.1254 13.0761C65.3514 13.0761 65.5507 13.0495 65.7235 12.9964C65.9095 12.9432 66.069 12.8635 66.2019 12.7572C66.3348 12.6508 66.4345 12.5312 66.501 12.3983C66.5807 12.2521 66.6206 12.0927 66.6206 11.9199C66.6206 11.6009 66.501 11.3484 66.2617 11.1623C66.1288 11.0693 65.9162 10.9696 65.6238 10.8633C65.3447 10.757 64.9792 10.6507 64.5274 10.5444C63.8097 10.3583 63.2117 10.1457 62.7332 9.90644C62.2548 9.65393 61.8827 9.37484 61.6169 9.06916C61.3909 8.81665 61.2182 8.53092 61.0986 8.21196C60.9922 7.89299 60.9391 7.54745 60.9391 7.17533C60.9391 6.71018 61.0387 6.29154 61.2381 5.91942C61.4507 5.53401 61.7365 5.20176 62.0953 4.92267C62.4541 4.64358 62.8728 4.43094 63.3512 4.28475C63.8297 4.13855 64.328 4.06546 64.8464 4.06546C65.378 4.06546 65.8896 4.13191 66.3813 4.26481C66.8864 4.39771 67.3515 4.59042 67.7768 4.84293C68.2154 5.08215 68.5875 5.37453 68.8932 5.72007L67.5376 7.2152C67.2851 6.97598 67.006 6.76334 66.7003 6.57728C66.4079 6.39122 66.1089 6.24503 65.8032 6.13871C65.4976 6.0191 65.2118 5.95929 64.946 5.95929C64.6935 5.95929 64.4676 5.98587 64.2682 6.03903C64.0689 6.0789 63.9028 6.14535 63.7699 6.23838C63.637 6.33141 63.5306 6.45102 63.4509 6.59721C63.3844 6.73011 63.3512 6.8896 63.3512 7.07566C63.3645 7.23514 63.4044 7.38797 63.4708 7.53416C63.5506 7.66706 63.6569 7.78003 63.7898 7.87306C63.936 7.96609 64.1553 8.07241 64.4476 8.19202C64.74 8.31163 65.1188 8.4246 65.5839 8.53092C66.2352 8.70369 66.7801 8.89639 67.2186 9.10903C67.6572 9.32167 68.0027 9.56754 68.2552 9.84663C68.5078 10.0859 68.6872 10.3649 68.7935 10.6839C68.8998 11.0029 68.953 11.3551 68.953 11.7405C68.953 12.3651 68.7736 12.9233 68.4147 13.415C68.0692 13.9067 67.5907 14.2922 66.9794 14.5712C66.3813 14.8503 65.7036 14.9899 64.946 14.9899Z" fill="#286EF1"/>
<path d="M73.4055 11.581L72.9271 9.28845L77.9108 4.28475H81.1802L73.4055 11.581ZM71.113 14.7905V0.0385742H73.565V14.7905H71.113ZM78.2099 14.7905L74.3425 10.1058L76.0768 8.63059L81.24 14.7905H78.2099Z" fill="#286EF1"/>
</svg>
