<svg width="110" height="27" viewBox="0 0 110 27" fill="none" xmlns="http://www.w3.org/2000/svg">
<path d="M8.3525 20.2309C7.72366 20.2309 7.10381 20.1411 6.49294 19.9614C5.90004 19.7638 5.36103 19.5033 4.87593 19.1799C4.39083 18.8565 3.98658 18.4971 3.66318 18.1019C3.33977 17.6886 3.12417 17.2754 3.01637 16.8621L3.79793 16.5118L3.71708 19.9075H0.51001V0.0183105H3.82488V9.04661L3.23197 8.7771C3.32181 8.3459 3.51944 7.94165 3.82488 7.56435C4.14828 7.16908 4.54355 6.81873 5.01068 6.51329C5.47782 6.18989 5.98987 5.93836 6.54684 5.75869C7.10381 5.56105 7.66976 5.46224 8.2447 5.46224C9.52034 5.46224 10.6433 5.77666 11.6135 6.40549C12.6016 7.03433 13.3742 7.90572 13.9312 9.01966C14.5061 10.1336 14.7936 11.4003 14.7936 12.8196C14.7936 14.257 14.5151 15.5326 13.9581 16.6465C13.4012 17.7605 12.6286 18.6409 11.6404 19.2877C10.6702 19.9165 9.57424 20.2309 8.3525 20.2309ZM7.6518 17.3203C8.4064 17.3203 9.08015 17.1316 9.67306 16.7543C10.266 16.3591 10.7331 15.8291 11.0745 15.1643C11.4158 14.4816 11.5865 13.7 11.5865 12.8196C11.5865 11.9572 11.4158 11.1936 11.0745 10.5289C10.7511 9.86409 10.2929 9.34306 9.70001 8.96576C9.10711 8.58845 8.42437 8.3998 7.6518 8.3998C6.87923 8.3998 6.19649 8.58845 5.60359 8.96576C5.01068 9.34306 4.54355 9.86409 4.20218 10.5289C3.86081 11.1936 3.69013 11.9572 3.69013 12.8196C3.69013 13.7 3.86081 14.4816 4.20218 15.1643C4.54355 15.8291 5.01068 16.3591 5.60359 16.7543C6.19649 17.1316 6.87923 17.3203 7.6518 17.3203Z" fill="#286EF1"/>
<path d="M22.6805 20.2309C21.6564 20.2309 20.767 20.0063 20.0124 19.5572C19.2578 19.09 18.6829 18.4342 18.2876 17.5898C17.8924 16.7274 17.6947 15.7033 17.6947 14.5175V5.75869H21.0096V13.8168C21.0096 14.5714 21.1264 15.2182 21.3599 15.7572C21.5935 16.2782 21.9349 16.6825 22.3841 16.9699C22.8332 17.2574 23.3722 17.4011 24.0011 17.4011C24.4682 17.4011 24.8904 17.3293 25.2677 17.1855C25.663 17.0238 26.0044 16.8082 26.2918 16.5387C26.5793 16.2513 26.8039 15.9189 26.9656 15.5416C27.1273 15.1463 27.2081 14.7241 27.2081 14.2749V5.75869H30.523V19.9614H27.289L27.2351 16.9969L27.828 16.6735C27.6124 17.3562 27.2441 17.9671 26.723 18.5061C26.22 19.0271 25.6181 19.4494 24.9174 19.7728C24.2167 20.0782 23.471 20.2309 22.6805 20.2309Z" fill="#286EF1"/>
<path d="M36.5642 26.1599L39.5827 19.1799L39.6096 21.3898L32.6026 5.75869H36.4295L40.3373 15.0295C40.463 15.2631 40.5888 15.5775 40.7146 15.9728C40.8403 16.3501 40.9481 16.7274 41.038 17.1047L40.3642 17.3203C40.49 16.9789 40.6247 16.6196 40.7685 16.2423C40.9122 15.847 41.0469 15.4428 41.1727 15.0295L44.5145 5.75869H48.3684L42.4394 19.9614L40.0139 26.1599H36.5642Z" fill="#286EF1"/>
<path d="M55.8864 20.2309C54.6288 20.2309 53.4969 19.9165 52.4907 19.2877C51.5025 18.6409 50.712 17.7695 50.1191 16.6735C49.5442 15.5596 49.2567 14.2839 49.2567 12.8466C49.2567 11.4272 49.5442 10.1605 50.1191 9.04661C50.694 7.93267 51.4756 7.06128 52.4638 6.43244C53.4699 5.78564 54.6018 5.46224 55.8595 5.46224C56.5422 5.46224 57.198 5.57004 57.8268 5.78564C58.4737 6.00124 59.0486 6.29769 59.5517 6.67499C60.0547 7.03433 60.45 7.43858 60.7375 7.88775C61.0429 8.33692 61.2136 8.80406 61.2495 9.28916L60.3602 9.39696V0.0183105H63.675V19.9614H60.468L60.3871 16.6196L61.0339 16.6735C61.0159 17.1227 60.8543 17.5539 60.5488 17.9671C60.2613 18.3803 59.884 18.7576 59.4169 19.099C58.9498 19.4404 58.4018 19.7189 57.7729 19.9345C57.1621 20.1321 56.5332 20.2309 55.8864 20.2309ZM56.5332 17.4281C57.3058 17.4281 57.9886 17.2305 58.5815 16.8352C59.1744 16.4399 59.6325 15.9009 59.9559 15.2182C60.2973 14.5354 60.468 13.7449 60.468 12.8466C60.468 11.9662 60.2973 11.1847 59.9559 10.5019C59.6325 9.80121 59.1744 9.26221 58.5815 8.88491C57.9886 8.48964 57.3058 8.292 56.5332 8.292C55.7607 8.292 55.0779 8.48964 54.485 8.88491C53.8921 9.26221 53.425 9.80121 53.0836 10.5019C52.7602 11.1847 52.5985 11.9662 52.5985 12.8466C52.5985 13.7449 52.7602 14.5354 53.0836 15.2182C53.425 15.9009 53.8921 16.4399 54.485 16.8352C55.0779 17.2305 55.7607 17.4281 56.5332 17.4281Z" fill="#286EF1"/>
<path d="M74.0946 20.2309C72.6034 20.2309 71.2828 19.9165 70.133 19.2877C69.001 18.6588 68.1117 17.8054 67.4649 16.7274C66.8361 15.6314 66.5216 14.3827 66.5216 12.9813C66.5216 11.8674 66.7013 10.8523 67.0606 9.93596C67.42 9.01966 67.9141 8.22912 68.5429 7.56435C69.1897 6.88161 69.9533 6.36058 70.8337 6.00124C71.732 5.62394 72.7112 5.43529 73.7712 5.43529C74.7055 5.43529 75.5769 5.61495 76.3854 5.97429C77.1939 6.33363 77.8946 6.82771 78.4875 7.45655C79.0804 8.06742 79.5296 8.80405 79.835 9.66646C80.1584 10.5109 80.3111 11.4362 80.2932 12.4423L80.2662 13.6012H68.7585L68.1386 11.3374H77.4903L77.0591 11.7955V11.2026C77.0052 10.6456 76.8256 10.1605 76.5201 9.74731C76.2147 9.31611 75.8194 8.98372 75.3343 8.75015C74.8672 8.49862 74.3462 8.37285 73.7712 8.37285C72.8909 8.37285 72.1452 8.54354 71.5344 8.88491C70.9415 9.22627 70.4923 9.72036 70.1869 10.3672C69.8814 10.996 69.7287 11.7865 69.7287 12.7388C69.7287 13.6551 69.9174 14.4546 70.2947 15.1373C70.6899 15.8201 71.2379 16.3501 71.9386 16.7274C72.6573 17.0867 73.4927 17.2664 74.445 17.2664C75.1098 17.2664 75.7206 17.1586 76.2776 16.943C76.8346 16.7274 77.4364 16.3411 78.0832 15.7841L79.7272 18.0749C79.2421 18.5241 78.6851 18.9104 78.0563 19.2338C77.4454 19.5392 76.7986 19.7817 76.1159 19.9614C75.4332 20.1411 74.7594 20.2309 74.0946 20.2309Z" fill="#286EF1"/>
<path d="M87.9723 20.2309C86.7146 20.2309 85.5827 20.0243 84.5765 19.6111C83.5884 19.1799 82.7799 18.569 82.151 17.7785L84.307 15.9189C84.846 16.5298 85.4479 16.9699 86.1127 17.2394C86.7775 17.5089 87.4782 17.6437 88.2148 17.6437C88.5202 17.6437 88.7897 17.6078 89.0233 17.5359C89.2748 17.464 89.4905 17.3562 89.6701 17.2125C89.8498 17.0688 89.9845 16.9071 90.0744 16.7274C90.1822 16.5298 90.2361 16.3142 90.2361 16.0806C90.2361 15.6494 90.0744 15.308 89.751 15.0565C89.5713 14.9307 89.2838 14.796 88.8886 14.6522C88.5113 14.5085 88.0172 14.3648 87.4063 14.221C86.4361 13.9695 85.6276 13.682 84.9808 13.3586C84.334 13.0173 83.8309 12.64 83.4716 12.2267C83.1662 11.8854 82.9326 11.4991 82.7709 11.0679C82.6272 10.6367 82.5553 10.1695 82.5553 9.66646C82.5553 9.03762 82.69 8.47167 82.9595 7.9686C83.247 7.44756 83.6333 6.9984 84.1184 6.62109C84.6035 6.24379 85.1694 5.95632 85.8162 5.75869C86.463 5.56105 87.1368 5.46224 87.8375 5.46224C88.5562 5.46224 89.2479 5.55207 89.9127 5.73174C90.5954 5.91141 91.2242 6.17193 91.7992 6.51329C92.3921 6.83669 92.8951 7.23196 93.3084 7.6991L91.4758 9.72036C91.1344 9.39696 90.7571 9.10949 90.3439 8.85795C89.9486 8.60642 89.5443 8.40879 89.1311 8.26505C88.7179 8.10335 88.3316 8.0225 87.9723 8.0225C87.6309 8.0225 87.3255 8.05843 87.056 8.1303C86.7865 8.1842 86.5619 8.27404 86.3822 8.3998C86.2025 8.52557 86.0588 8.68727 85.951 8.88491C85.8612 9.06457 85.8162 9.28017 85.8162 9.53171C85.8342 9.74731 85.8881 9.95393 85.978 10.1516C86.0858 10.3312 86.2295 10.4839 86.4091 10.6097C86.6068 10.7355 86.9032 10.8792 87.2985 11.0409C87.6938 11.2026 88.2058 11.3553 88.8347 11.4991C89.715 11.7326 90.4517 11.9932 91.0446 12.2806C91.6375 12.5681 92.1046 12.9005 92.446 13.2778C92.7874 13.6012 93.0299 13.9785 93.1736 14.4097C93.3174 14.8409 93.3892 15.317 93.3892 15.838C93.3892 16.6825 93.1467 17.4371 92.6616 18.1019C92.1945 18.7666 91.5476 19.2877 90.7212 19.665C89.9127 20.0423 88.9964 20.2309 87.9723 20.2309Z" fill="#286EF1"/>
<path d="M99.4086 15.6224L98.7618 12.5232L105.499 5.75869H109.919L99.4086 15.6224ZM96.3093 19.9614V0.0183105H99.6242V19.9614H96.3093ZM105.904 19.9614L100.675 13.6281L103.02 11.6338L110 19.9614H105.904Z" fill="#286EF1"/>
</svg>
