<svg width="15" height="20" viewBox="0 0 15 20" fill="none" xmlns="http://www.w3.org/2000/svg">
<path fill-rule="evenodd" clip-rule="evenodd" d="M8.1514 19.25C7.57584 19.25 7.00851 19.1678 6.44939 19.0034C5.90673 18.8225 5.41339 18.584 4.96939 18.288C4.56752 18.0201 4.22627 17.7252 3.94564 17.4034L3.90873 18.954H0.973389V0.75H4.00739V7.65667C4.30339 7.2949 4.66517 6.97423 5.09273 6.69467C5.52028 6.39867 5.98895 6.16845 6.49873 6.004C7.00851 5.82311 7.52651 5.73267 8.05273 5.73267C9.22029 5.73267 10.2481 6.02045 11.1361 6.596C12.0405 7.17156 12.7476 7.96912 13.2574 8.98868C13.7836 10.0082 14.0467 11.1676 14.0467 12.4667C14.0467 13.7822 13.7918 14.9498 13.2821 15.9693C12.7723 16.9889 12.0652 17.7947 11.1607 18.3867C10.2727 18.9622 9.26962 19.25 8.1514 19.25ZM7.51006 16.586C8.20073 16.586 8.8174 16.4133 9.36006 16.068C9.90273 15.7062 10.3303 15.2211 10.6427 14.6127C10.9552 13.9878 11.1114 13.2725 11.1114 12.4667C11.1114 11.6773 10.9552 10.9785 10.6427 10.37C10.3467 9.76156 9.9274 9.28467 9.38473 8.93934C8.84206 8.59401 8.21717 8.42134 7.51006 8.42134C6.80295 8.42134 6.17806 8.59401 5.63539 8.93934C5.09273 9.28467 4.66517 9.76156 4.35273 10.37C4.04028 10.9785 3.88406 11.6773 3.88406 12.4667C3.88406 13.2725 4.04028 13.9878 4.35273 14.6127C4.66517 15.2211 5.09273 15.7062 5.63539 16.068C6.17806 16.4133 6.80295 16.586 7.51006 16.586Z" fill="#286EF1"/>
</svg>
