<svg width="243" height="168" viewBox="0 0 243 168" fill="none" xmlns="http://www.w3.org/2000/svg">
<rect y="-0.00012207" width="242.093" height="167.773" fill="#EDF6FF"/>
<rect x="24" y="18.8196" width="48.0235" height="6.93544" fill="white"/>
<rect x="24" y="130.826" width="59.7026" height="6.93544" fill="white"/>
<rect x="141.265" y="130.826" width="76.8284" height="6.93544" fill="white"/>
<rect x="165.526" y="142.018" width="52.5668" height="6.93544" fill="white"/>
<rect x="158.096" y="18.8196" width="11.9035" height="6.93544" fill="white"/>
<rect x="175.722" y="18.8196" width="41.4332" height="6.93544" fill="white"/>
<rect x="46.8345" y="75.998" width="45.1932" height="6.93544" fill="white"/>
<rect x="46.8345" y="87.5571" width="32.5867" height="6.93544" fill="white"/>
<rect x="133.294" y="75.998" width="17.3637" height="6.93544" fill="white"/>
<rect x="180.868" y="75.998" width="17.3637" height="6.93544" fill="white"/>
<rect x="133.294" y="87.1904" width="17.3637" height="6.93544" fill="white"/>
<rect x="180.868" y="87.1904" width="17.3637" height="6.93544" fill="white"/>
<rect x="133.294" y="98.7495" width="17.3637" height="6.93544" fill="white"/>
<rect x="180.868" y="98.7495" width="17.3637" height="6.93544" fill="white"/>
<rect x="46.8345" y="99.1162" width="53.3993" height="6.93544" fill="white"/>
<rect x="24" y="46.2722" width="194.093" height="6.93544" fill="white"/>
<rect x="24" y="112.659" width="194.093" height="6.93544" fill="white"/>
<rect x="31.2656" y="46.6389" width="66.3869" height="7.26551" transform="rotate(90 31.2656 46.6389)" fill="white"/>
<rect x="122.946" y="46.6389" width="66.3869" height="7.60769" transform="rotate(90 122.946 46.6389)" fill="white"/>
<rect x="168.135" y="46.2722" width="66.3869" height="7.12872" transform="rotate(90 168.135 46.2722)" fill="white"/>
<rect x="218.093" y="46.2722" width="66.3869" height="7.0158" transform="rotate(90 218.093 46.2722)" fill="white"/>
<rect x="24" y="62.4551" width="194.093" height="6.93544" fill="white"/>
<rect x="158.096" y="30.0896" width="59.0594" height="6.93544" fill="white"/>
</svg>
