<svg width="65" height="65" viewBox="0 0 65 65" fill="none" xmlns="http://www.w3.org/2000/svg">
<rect x="0.848145" y="1.625" width="62.5" height="62.5" rx="1.25" fill="#EDF6FF" stroke="#286EF1" stroke-width="1.5"/>
<path d="M5.56201 8.79166H19.062" stroke="#286EF1" stroke-width="1.5" stroke-linecap="round" stroke-linejoin="round"/>
<rect x="6.31201" y="16.5" width="51.6667" height="32.75" rx="1.25" fill="white" stroke="#286EF1" stroke-width="1.5"/>
<path d="M5.56201 54.875H19.062" stroke="#286EF1" stroke-width="1.5" stroke-linecap="round" stroke-linejoin="round"/>
<path d="M11.896 29.1667H25.396" stroke="#286EF1" stroke-width="1.5" stroke-linecap="round" stroke-linejoin="round"/>
<path d="M11.896 35.0833H22.7293" stroke="#286EF1" stroke-width="1.5" stroke-linecap="round" stroke-linejoin="round"/>
<path d="M11.896 41.5H27.5627" stroke="#286EF1" stroke-width="1.5" stroke-linecap="round" stroke-linejoin="round"/>
<path d="M6.56201 22.8333H57.6453" stroke="#286EF1" stroke-width="1.5" stroke-linecap="round" stroke-linejoin="round"/>
<path d="M32.0981 16.3333L32.1457 49.1666" stroke="#286EF1" stroke-width="1.5" stroke-linecap="round" stroke-linejoin="round"/>
<path d="M44.2651 16.4583L44.3127 49.2916" stroke="#286EF1" stroke-width="1.5" stroke-linecap="round" stroke-linejoin="round"/>
<path d="M49.979 8.79166L58.729 8.79166" stroke="#286EF1" stroke-width="1.5" stroke-linecap="round" stroke-linejoin="round"/>
<path d="M44.312 11.4583L58.7287 11.4583" stroke="#286EF1" stroke-width="1.5" stroke-linecap="round" stroke-linejoin="round"/>
<path d="M43.229 54.875L57.6457 54.875" stroke="#286EF1" stroke-width="1.5" stroke-linecap="round" stroke-linejoin="round"/>
<path d="M47.562 57.7083L57.6453 57.7083" stroke="#286EF1" stroke-width="1.5" stroke-linecap="round" stroke-linejoin="round"/>
<path d="M44.312 8.79166L47.562 8.79166" stroke="#286EF1" stroke-width="1.5" stroke-linecap="round" stroke-linejoin="round"/>
<path d="M36.5806 29.1667L39.8306 29.1667" stroke="#286EF1" stroke-width="1.5" stroke-linecap="round" stroke-linejoin="round"/>
<path d="M48.7476 28.9167L54.5627 28.9167" stroke="#286EF1" stroke-width="1.5" stroke-linecap="round" stroke-linejoin="round"/>
<path d="M36.5806 35.0833L39.8306 35.0833" stroke="#286EF1" stroke-width="1.5" stroke-linecap="round" stroke-linejoin="round"/>
<path d="M48.7476 34.8333L54.5627 34.8333" stroke="#286EF1" stroke-width="1.5" stroke-linecap="round" stroke-linejoin="round"/>
<path d="M36.5806 41.5L39.8306 41.5" stroke="#286EF1" stroke-width="1.5" stroke-linecap="round" stroke-linejoin="round"/>
<path d="M48.7476 41.25L54.5627 41.25" stroke="#286EF1" stroke-width="1.5" stroke-linecap="round" stroke-linejoin="round"/>
</svg>
