<svg width="17" height="17" viewBox="0 0 17 17" fill="none" xmlns="http://www.w3.org/2000/svg">
<path d="M13.832 7.37942C13.832 11.4628 8.58203 14.9628 8.58203 14.9628C8.58203 14.9628 3.33203 11.4628 3.33203 7.37942C3.33203 5.98704 3.88515 4.65168 4.86972 3.66711C5.85429 2.68255 7.18964 2.12943 8.58203 2.12943C9.97442 2.12943 11.3098 2.68255 12.2943 3.66711C13.2789 4.65168 13.832 5.98704 13.832 7.37942Z" stroke="#286EF1" stroke-width="1.5" stroke-linecap="round" stroke-linejoin="round"/>
<path d="M8.58203 9.12943C9.54853 9.12943 10.332 8.34592 10.332 7.37943C10.332 6.41293 9.54853 5.62943 8.58203 5.62943C7.61553 5.62943 6.83203 6.41293 6.83203 7.37943C6.83203 8.34592 7.61553 9.12943 8.58203 9.12943Z" stroke="#286EF1" stroke-width="1.5" stroke-linecap="round" stroke-linejoin="round"/>
</svg>
